<!-- Generator: Adobe Illustrator 19.1.0, SVG Export Plug-In  -->
<svg version="1.1"
	 xmlns="http://www.w3.org/2000/svg" xmlns:xlink="http://www.w3.org/1999/xlink" xmlns:a="http://ns.adobe.com/AdobeSVGViewerExtensions/3.0/"
	 x="0px" y="0px" width="221.5px" height="928.2px" viewBox="0 0 221.5 928.2" style="enable-background:new 0 0 221.5 928.2;"
	 xml:space="preserve">
<style type="text/css">
	.st0{fill:#3C424B;}
	.st1{fill:#F7D3AF;}
	.st2{fill:#DDB492;}
	.st3{fill:#F6D2B2;}
	.st4{fill:#729076;}
	.st5{fill:#5F7861;}
	.st6{fill:#6B6D87;}
	.st7{fill:#E46C61;}
	.st8{fill:#C65A55;}
	.st9{fill:#EF7F7B;}
	.st10{fill:#DEB590;}
	.st11{fill:#F1EFEF;}
	.st12{fill:#DF6C63;}
	.st13{fill:#242628;}
	.st14{fill:#4C525C;}
</style>
<defs>
</defs>
<path id="XMLID_69_" class="st0" d="M123.2,10.3c0,0,0-7.7-6.1-9.1c-6.1-1.3-40.8-5.9-60.7,18.9s-12.1,30.3-20,51.1
	s-16,31.3-10.5,46c0,0,4.6,8,14.5,16.9s7.5,18.6,0,30.3s-22.2,47.4,10.6,62.9c5.8,2,7.4,2,7.4,2s-14-12.5-4.6-31.1
	c-3.8,17.8,7.3,33.8,24.9,36c-1.1-6.8-1.9-17.3-1.9-17.3s7.5,5.7,7,17.3c8.3,0.7,16.1,1.1,21.2-7c1.4,6.8,1.8,7.3,1.8,7.3
	s9.4-4.3,11.1-11.1c-2.3,7.7-4.3,11.1-4.3,11.1s16.6-2.1,16.9-20.7c-0.9,9.6-1.6,19.3-2.3,20.7c5.9-3.4,17.1-6.5,18.9-15
	c-1,8.1-1,8.1-1,8.1s14.5-3.1,14-22.2c1.5,6.8,1.3,12.9,0,15.6c6.4-6.6,13.4-13.6,8.5-25c-4.8-11.4-13.8-13.2-11.6-23.5
	c2.2-10.3,10-14.5,13.2-24.6s3.9-18.5-0.7-29.4s-2.2-41.4-2-49.1s0.7-40.6-20.5-56.6S123.2,10.3,123.2,10.3z"/>
<ellipse id="XMLID_68_" class="st1" cx="112.3" cy="408.1" rx="68.6" ry="43.5"/>
<path id="XMLID_67_" class="st1" d="M185.1,416.6C185.1,416.6,185.1,416.6,185.1,416.6c0-16.9-13.7-30.7-30.7-30.7
	c-16.9,0-30.7,13.7-30.7,30.7c0,2.1,0.2,4.1,0.6,6.1c-7.8,44-8.1,155.3-0.6,201.8c29.2,27.8,39.7,0,39.7,0s1.8-10,4-20.2
	C189.1,507,187.5,401,185.1,416.6z"/>
<path id="XMLID_66_" class="st1" d="M39.5,418.2C39.5,418.2,39.5,418.2,39.5,418.2c-0.9-16.9,12.1-31.3,29.1-32.2
	c16.9-0.9,31.3,12.1,32.2,29c0.1,2.1,0,4.1-0.3,6.1c10.1,43.5,16.1,154.7,11,201.5c-27.8,29.3-39.6,2-39.6,2s-2.3-9.9-5.1-19.9
	C40.1,508.6,36.3,402.7,39.5,418.2z"/>
<path id="XMLID_65_" class="st1" d="M111.4,629C111.4,629,111.3,628.9,111.4,629c1.3-2.6,2-5.6,2-8.7c0-11-8.9-19.8-19.8-19.8
	c-11,0-19.8,8.9-19.8,19.8c0,0-22.5,77.9-11,135.9c11.5,58,10,77.8,11,92.3c7,23,16,6.7,18.8,1.6c0,0-0.5-19.3,0-36.6
	c0.5-17.3,11.1-75.3,12.6-94C107.8,687.4,117.8,646.5,111.4,629z"/>
<path id="XMLID_64_" class="st1" d="M97.2,889.6c-2.8-3.5-3.9-12.8-3.5-16.2c0.5-3.5-1.3-12.9-1.3-12.9c0.9-1.6,1.3-3.4,1.3-5.3
	c0-6.1-5-11.1-11.1-11.1c-6.1,0-11.1,5-11.1,11.1c0,2.3,0.7,4.5,1.9,6.3h0c0,0,0.3,5.4-1.9,11.4s-5,9.2-6,15s-0.2,25.8,10.8,36.5
	s17-5,19.8-10.2S99.9,893.1,97.2,889.6z"/>
<path id="XMLID_63_" class="st1" d="M124.4,628.3C124.4,628.3,124.4,628.3,124.4,628.3c-1.2-2.7-1.8-5.7-1.7-8.8
	c0.4-10.9,9.6-19.5,20.6-19.1c10.9,0.4,19.5,9.6,19.1,20.6c0,0,19.6,78.6,5.9,136.2c-13.7,57.5-12.9,77.3-14.5,91.9
	c-7.9,22.8-16.2,6.1-18.8,0.9c0,0,1.2-19.2,1.4-36.6c0.2-17.3-8.2-75.6-9.1-94.4C125.7,686.9,117.3,645.6,124.4,628.3z"/>
<path id="XMLID_62_" class="st1" d="M128.7,889.2c2.9-3.4,4.4-12.6,4.1-16.1c-0.3-3.5,1.8-12.9,1.8-12.9c-0.8-1.6-1.2-3.4-1.1-5.3
	c0.2-6.1,5.4-10.9,11.5-10.7c6.1,0.2,10.9,5.4,10.7,11.5c-0.1,2.3-0.9,4.5-2.2,6.2h0c0,0-0.5,5.4,1.5,11.5c2.1,6.1,4.7,9.4,5.5,15.2
	c0.8,5.8-0.7,25.7-12.1,36.1c-11.4,10.3-16.8-5.6-19.4-11C126.5,908.4,125.9,892.6,128.7,889.2z"/>
<path id="XMLID_61_" class="st2" d="M148.7,200.6c-0.7-10.7,8.2-22.1,18.9-22.8c10.7-0.7,20,7.5,20.7,18.2c0,0,18.6,72,21.4,84.9
	c2.8,12.9,12.2,68.6,11.8,78.7c-0.4,10-24,17-28.4-4.7c-4.4-21.8-25.5-125.6-25.5-125.6s-1.6-9.4-8.5-13.5
	C158.4,215.5,149.1,207.5,148.7,200.6z"/>
<path id="XMLID_60_" class="st2" d="M68.4,196.4c0.1-10.8-9.6-21.5-20.3-21.5c-10.8,0-19.5,8.7-19.5,19.5c0,0-14,73-16,86
	s-7.8,69.3-6.8,79.3s25,15.5,28-6.5s17.5-127,17.5-127s1-9.5,7.6-14C59.7,211.8,68.4,203.2,68.4,196.4z"/>
<path id="XMLID_59_" class="st3" d="M171.7,174.7c0.1-0.5-6.8-0.9-6.7-1.4c-99.9-16.4-121.9,3.2-121.9,3.2l0,0
	c-7.7,3-13,9.4-13,16.8c0,10.3,10.2,18.6,22.8,18.6l110-1.4c12.6,0,22.8-8.3,22.8-18.6C185.8,184.1,179.9,177.5,171.7,174.7z"/>
<g id="XMLID_37_">
	<ellipse id="XMLID_58_" class="st4" cx="113.4" cy="413.5" rx="77.8" ry="48.9"/>
	<path id="XMLID_57_" class="st4" d="M37,408.8c0,0,2.6,117.3,25.2,196.6c4,15.3,2,19.3,0,35.3s-7.3,42.7-8,63.3
		c25.3,10.7,93.9,17.3,126.6,0c-2.6-19.3-8.6-64.6-10.6-71.9c4.7-6.7,1.5-3.1-0.7-15.4c9.3-8,5.7-4.4,3.5-16.4
		c4.5-22.3,24.9-167,18.2-186.8C152.9,418.7,37,408.8,37,408.8z"/>
	<path id="XMLID_56_" class="st5" d="M49.1,386c0,0-19.2,40-2.7,72.8c2.5,30.3,11.2,126.4,20.4,146.1c3.1,15.7-4.9,38.6-4.5,35.9
		s3.3-24.4,0-35.3c-3.3-10.9-32-154.7-26.7-188.8C39.4,388.6,49.1,386,49.1,386z"/>
	<path id="XMLID_55_" class="st5" d="M175.7,610.1c0,0-17.2,9-30.7,6.5c11.5,2.5,24.7,0.2,24.7,0.2S176.2,612.4,175.7,610.1z"/>
	<path id="XMLID_54_" class="st5" d="M171.9,624.9c0,0-5.6,8.5-19.5,11.1C164.9,637.1,174.1,633.1,171.9,624.9z"/>
	<path id="XMLID_53_" class="st6" d="M144.9,426.8c3.5,1.3,29.3-3.1,40.1-10.1c-0.1,10.4-0.1,10.4-0.1,10.4s-21.2,8-37.6,8
		C144.9,426.8,144.9,426.8,144.9,426.8z"/>
	<path id="XMLID_52_" class="st6" d="M154.4,445.3c0,0,21.9-0.9,26.5-5.1c0,8.9,0,8.9,0,8.9s-18,1.5-26.5,2.5
		C153.9,447.6,154.4,445.3,154.4,445.3z"/>
	<path id="XMLID_51_" class="st6" d="M85.1,426.8c-3.5,1.3-29.3-3.1-40.1-10.1c0.1,10.4,0.1,10.4,0.1,10.4s21.2,8,37.6,8
		C85.1,426.8,85.1,426.8,85.1,426.8z"/>
	<path id="XMLID_50_" class="st6" d="M49.1,440.2c4.5,4.1,26.5,5.1,26.5,5.1s0.5,2.3,0,6.3c0,0-21.8-0.5-26.5-4.2
		C49.1,440.2,49.1,440.2,49.1,440.2z"/>
	<path id="XMLID_47_" class="st6" d="M73.6,450.2c0,0-8.6,9.8-5.3,14.1C74.4,472,82.1,464.1,73.6,450.2z M72.5,463.9
		c-1.5,0-2.8-1.3-2.8-3c0-1.7,1.2-3,2.8-3c1.5,0,2.8,1.3,2.8,3S74,463.9,72.5,463.9z"/>
	<path id="XMLID_44_" class="st6" d="M148.5,432.9c0,0-8.6,9.8-5.3,14.1C149.3,454.7,157,446.8,148.5,432.9z M147.3,446.6
		c-1.5,0-2.8-1.3-2.8-3s1.2-3,2.8-3c1.5,0,2.8,1.3,2.8,3S148.9,446.6,147.3,446.6z"/>
	<path id="XMLID_41_" class="st6" d="M83.4,432.9c0,0-8.6,9.8-5.3,14.1C84.3,454.7,92,446.8,83.4,432.9z M82.3,446.6
		c-1.5,0-2.8-1.3-2.8-3s1.2-3,2.8-3c1.5,0,2.8,1.3,2.8,3S83.9,446.6,82.3,446.6z"/>
	<path id="XMLID_38_" class="st6" d="M155.4,447.6c0,0-8.6,9.8-5.3,14.1C156.2,469.4,163.9,461.5,155.4,447.6z M154.2,461.3
		c-1.5,0-2.8-1.3-2.8-3s1.2-3,2.8-3c1.5,0,2.8,1.3,2.8,3C157,460,155.8,461.3,154.2,461.3z"/>
</g>
<g id="XMLID_23_">
	<path id="XMLID_36_" class="st7" d="M174.3,333.5c-3.3-8.1,7.6-10.8,1.3-16.1c-8.7-7.3-9.9-11.6-12-20.1c-2-20.6-2.7-30.6-2.7-30.6
		s6.3-11.7,9-24.1c2.2-10.4-5.2-33.8-7.6-41c-2-4-5.3-8.9-5.3-14.5c0-9.3,4.3-14.8-3.7-18.7c-11.9-5.8-81.1-7.6-94.7,0.5
		c-7.7,2.6,0.9,7.1,0.9,15.7c0,6.1-4.9,9.7-6.8,18c-1.6,5.5-8.4,29.9-6,40.9c2.7,12.4,9,24.1,9,24.1l4.7,11.9
		c1.3,10.7,1.9,21.3-4.1,26.7c0,7.5,7.1,10,7.1,10s-31.4,65.6-30.2,85.5c33.2,9.8,123.3,11,158.5-5.2
		C191.6,396.3,177.6,339.7,174.3,333.5z"/>
	<g id="XMLID_24_">
		<path id="XMLID_35_" class="st8" d="M168.7,230.1c0,0,0.3,23.5-29.7,28.5c-30,5-82.2,3.7-93.3-15.2c3.4,11.3,11.3,30,11.3,30
			s7.6,4.1,21.6,6.6s65.4,6.2,81.4-13.4S168.7,230.1,168.7,230.1z"/>
		<path id="XMLID_34_" class="st9" d="M64.2,160.8c0,0,27.7-15.1,61.4-2.2c11.2,4.2,18.7,4.7,18.7,4.7s-19,7-20.3,8.9
			c14,2.6,16.3,7,16.3,7s-25.2,6.2-28.8,10.2c-0.9,8.3,2.3,34.9,2.3,34.9H92.9c0,0,6.7-28.6,5.4-34.6C88,185.2,70,185.1,70,185.1
			s7.3-8.8,19-12.9C75,167.2,64.2,160.8,64.2,160.8z"/>
		<path id="XMLID_33_" class="st10" d="M84.9,161.2c0,0,4.3,7.6,13.7,15.2s7,7.7,7,7.7s8.4-9.1,12.7-13.2c4.3-4.1,7.3-7.4,7.3-7.4
			S105.9,150.6,84.9,161.2z"/>
		<ellipse id="XMLID_32_" class="st11" cx="105.6" cy="192.4" rx="2.3" ry="2.1"/>
		<ellipse id="XMLID_31_" class="st11" cx="105.6" cy="205.7" rx="2.3" ry="2.1"/>
		<ellipse id="XMLID_30_" class="st11" cx="105.3" cy="218.9" rx="2.3" ry="2.1"/>
		<path id="XMLID_29_" class="st8" d="M56.2,306.1c0,0,13.4,3.5,19.1,4s-13.1,9.5-7.7,11.5s19.7,7.6,19.7,7.6s-21.4,3.4-28.6-3.1
			c4.6-10,4.6-10,4.6-10s-8.9-2.1-6.8-7.5C58.5,303.2,56.2,306.1,56.2,306.1z"/>
		<path id="XMLID_28_" class="st8" d="M175.6,317.4c0,0-3.7,7-13.2,11.1c-9.5,4.1-26,5.5-24,6.6c2,1,17.3,1.5,26.6,0
			c9.3-1.5,5.9,8.4,10.6,13c4.7,4.6,5.3,6.9,5.3,6.9s-7-21.9-5.5-24.9S179,320.5,175.6,317.4z"/>
		<path id="XMLID_27_" class="st8" d="M44.9,358.4l-14.5,13.2c0,0,11.8,9.5,18.7,10.5c2.8-9.5,7-16.6,7-16.6L44.9,358.4z"/>
		<path id="XMLID_26_" class="st8" d="M170.3,358.4c0.6,2.7,4.1,16.7,4.1,16.7l16.8-4.3l-10.4-15.9L170.3,358.4z"/>
		<path id="XMLID_25_" class="st8" d="M33,390.6c0,0,76,24.6,156.2-3.7c4.7,9.7,4.7,9.7,4.7,9.7s-78.5,30-163.5,7
			C33.6,394.7,33,390.6,33,390.6z"/>
	</g>
</g>
<g id="XMLID_20_">
	<circle id="XMLID_22_" class="st1" cx="18.2" cy="366.5" r="14.1"/>
	<path id="XMLID_21_" class="st1" d="M4.2,364.9c0,0-8.2,25.7-1.5,56.3s8.3,49.1,8.3,49.1s-1.7,12.6,8,13.3
		c9.7,0.7,12.5-5.9,12.5-14.6c0-8.7-0.6-31.7,0.3-47.7c0.9-16,2.8-41.9-2.1-53.5C16.9,366.3,4.2,364.9,4.2,364.9z"/>
</g>
<g id="XMLID_17_">
	<circle id="XMLID_19_" class="st1" cx="207.2" cy="357.8" r="14.1"/>
	<path id="XMLID_18_" class="st1" d="M215.8,369.1c0,0-17.9,20.2-47.7,30c-29.8,9.8-46.5,17.9-46.5,17.9s-10,7.9-15.5-0.1
		c-5.5-8-1.3-13.7,6.2-18.2c7.5-4.4,27.6-15.7,40.9-24.6c13.3-8.9,34.6-23.7,47.1-25.4C208,358.9,215.8,369.1,215.8,369.1z"/>
</g>
<g id="XMLID_14_">
	<circle id="XMLID_16_" class="st1" cx="117.3" cy="411.3" r="11.7"/>
	<path id="XMLID_15_" class="st1" d="M117.9,400.9c0,0-10.6,2.4-17.5,6.6c-6.9,4.3-7.7,7.4-10,10.1c-2.3,2.7-5.4,7.2-7,8.8
		c-1.6,1.6-4.4,14.4-5.3,17.8s-1.3,8.5,4.1,8c2.8,5.6,2.3,7.4,8.2,4.8c6.8,5.1,8.7,6.9,12.2,2.9c2.5-5.8,2.5-7.2,2.5-5.8
		s-1.2,6.7,1.6,8c2.8,1.3,6.1-2.7,7.4-8c7.7-8.2,8.6-21.3,12-25.5s3-14.7,3-14.7L117.9,400.9z"/>
</g>
<path id="XMLID_13_" class="st1" d="M53.5,536.9c-4.3-3.2-10.9-2.5-10.9-2.5s4.6-0.9,4.3-2.1c-0.2-1.1-2.3-3.9-4.6-4.3
	c-2.3-0.5-2.3-0.5-2.3-0.5s2.7-2.5,0.5-4.1c-2.3-1.6-4.6-2.7-4.6-2.7s-1.6-13.6-2.6-20.2c0.4-0.7,0.9-1.3,1.7-1.2
	c0,0-1.2,0.1,0.2,2.6c1.4,2.5,1.4,7.5,3.4,10.7s3.9,3.6,5,3.2c1.1-0.5,2.7-1.6,0.9-7.8c-1.8-6.1-3.4-9.3-3-14.1
	c0.5-4.8,1.2-10.1-0.9-11.9c-2.1-1.8-9.7-12.3-9.7-12.3L11,477.4c0,0-0.6,20.5,0,26.9c0.6,6.4,2,7.3,5.2,14.4s2.4,12.3,5.6,14.4
	s9.5,2.5,9.5,2.5s0.2,5,4,5.5c3.8,0.5,10.9-0.7,14.7,0C53.7,541.7,57.8,540.1,53.5,536.9z"/>
<path id="XMLID_12_" class="st2" d="M88.9,138.3v12.3c0,0-1.1,24.3,16.7,24.3s16.3-24.1,16.3-24.1v-11.2v-14.5c0,0,1.3-7.8-14.4-8.1
	c-20.3-0.4-18.4,9.7-18.4,9.7L88.9,138.3z"/>
<g id="XMLID_7_">
	<g>
		<path class="st3" d="M149.8,78.9c1.7-1.9,4.2-3.9,7.4-4.4c6.7-1,6.5,4.7,6.6,7.3c0.1,2.4-1.7,7.5-4.9,10.2
			c-5.4,4.5-2.2,5.7-4.1,8.3c-1.6,2.2-4.7,3.6-7.6,2.9c-3.5,13.1-17,28.3-30.1,37.8c-15,10.9-23.7,1-23.7,1s-27.9-16.8-33.2-38.7
			c-2.9,0.6-6-0.8-7.5-2.9c-1.9-2.7,1.3-3.8-4.1-8.3c-3.2-2.7-5-7.8-4.9-10.2c0.1-2.6-0.1-8.3,6.6-7.3c2.2,0.3,4.1,1.4,5.6,2.6
			c2.3,8.2,6.2,20.1,10,21.5c-6.4-35.6,2-54.7,2-54.7s10.3-11.4,35.3-13.1c23.1-1.6,37.8,5.4,46.1,11.7c3,11.5,2.1,21.8,2.1,21.8
			S150.7,70.7,149.8,78.9z"/>
		<path class="st0" d="M123.4,12.5c15.9,4.9,22.9,18.1,25.9,29.8c-8.2-6.3-23-13.3-46.1-11.7c-25,1.7-35.3,13.1-35.3,13.1
			s-8.3,19.1-2,54.7c-3.9-1.4-7.8-13.3-10-21.5c0.4,0.3,0.8,0.7,1.1,1c-0.9-6.3-1.8-11.5-1.8-11.7C49.9,18.5,87.6,1.4,123.4,12.5z"
			/>
	</g>
	<g>
	</g>
</g>
<path id="XMLID_6_" class="st2" d="M149.2,84.2l-0.8,11.4c0,0,2.2,1.4,3.5-2.5c1.3-3.9,4.9-5.3,5.7-7.8
	C158.4,82.8,156.5,77.6,149.2,84.2z"/>
<path id="XMLID_5_" class="st2" d="M57.6,84.7l2.1,13.9c0,0-4.3-1.6-5.6-5.5c-1.3-3.9-4.9-5.3-5.7-7.8
	C47.7,82.8,50.3,78.1,57.6,84.7z"/>
<circle id="XMLID_4_" class="st12" cx="54.3" cy="102.3" r="3.7"/>
<circle id="XMLID_3_" class="st12" cx="149" cy="102.3" r="3.7"/>
<path id="XMLID_2_" class="st13" d="M137.1,36.2c3.6,12.9,8.2,32.9,7.9,45.4c-0.3,12.5-3.6,42.1-4.9,53.1
	c-1.3,11,9.9,40.4,37.3,17.1c-6.6,0.4-19.7-4.6-20-19.7s3.1-58.7,2.4-70s-2.1-47.1-21.1-49.3s-26.3,16.2-26.3,16.2
	s-5.5-9.9-20.2-5.9c0,0-13.4,3.7-19.3,13.4C82.6,33.1,110.7,29.5,137.1,36.2z"/>
<path id="XMLID_1_" class="st14" d="M115,21.8c0,0-3.4-8.2-14.6-12s-34.8,4.1-40.6,13.5s-9.4,19.6-10.5,26.1
	C48.1,56,47.9,71.2,45,76.1s-11.1,25.3-8.3,34.9c2.8,9.6,11.4,16.4,17,20.3c5.6,3.9,14.8,12,11.3,24.6c-3.5,12.6-8.6,22.8-8.5,30.3
	c0,7.1,3.5,16.4,3.5,16.4s-1.8-12.1,0.9-20c2.7-7.9,12.5-23.5,10.7-33.4s-0.7-15.2-14.5-26s-9.4-21.3-7.9-26.4
	c1.6-5.1,10.3-28.2,14.3-37.6s14.7-29.4,22.6-32.7s26.5-1.9,26.9-2.2S115,21.8,115,21.8z"/>
</svg>
