<!-- Generator: Adobe Illustrator 19.0.0, SVG Export Plug-In  -->
<svg version="1.1"
	 xmlns="http://www.w3.org/2000/svg" xmlns:xlink="http://www.w3.org/1999/xlink" xmlns:a="http://ns.adobe.com/AdobeSVGViewerExtensions/3.0/"
	 x="0px" y="0px" width="15.4px" height="15.4px" viewBox="0 0 15.4 15.4" style="enable-background:new 0 0 15.4 15.4;"
	 xml:space="preserve">
<style type="text/css">
	.st0{fill:#FFFFFF;}
</style>
<defs>
</defs>
<g id="XMLID_15_">
	<path id="XMLID_16_" class="st0" d="M14.4,3.8c0.7,1.2,1,2.5,1,3.9s-0.3,2.7-1,3.9c-0.7,1.2-1.6,2.1-2.8,2.8c-1.2,0.7-2.5,1-3.9,1
		c-1.4,0-2.7-0.3-3.9-1c-1.2-0.7-2.1-1.6-2.8-2.8c-0.7-1.2-1-2.5-1-3.9S0.3,5,1,3.8C1.7,2.7,2.7,1.7,3.8,1C5,0.3,6.3,0,7.7,0
		c1.4,0,2.7,0.3,3.9,1C12.8,1.7,13.7,2.7,14.4,3.8z M12.4,10.5c0.5-0.8,0.7-1.8,0.7-2.7S12.9,5.8,12.4,5s-1.2-1.5-2-2
		C9.6,2.5,8.7,2.2,7.7,2.2C6.7,2.2,5.8,2.5,5,3C4.1,3.5,3.5,4.1,3,5C2.5,5.8,2.2,6.7,2.2,7.7S2.5,9.6,3,10.5c0.5,0.8,1.2,1.5,2,2
		c0.8,0.5,1.8,0.7,2.7,0.7c1,0,1.9-0.2,2.7-0.7C11.3,12,12,11.3,12.4,10.5z M9,4.2v4.5c0,0.1,0,0.2-0.1,0.2C8.8,9,8.8,9,8.7,9H5.5
		C5.4,9,5.3,9,5.2,8.9C5.2,8.8,5.1,8.8,5.1,8.7V8c0-0.1,0-0.2,0.1-0.2c0.1-0.1,0.1-0.1,0.2-0.1h2.2V4.2c0-0.1,0-0.2,0.1-0.2
		S7.9,3.9,8,3.9h0.6c0.1,0,0.2,0,0.2,0.1C9,4,9,4.1,9,4.2z"/>
</g>
</svg>
