<!-- Generator: Adobe Illustrator 19.0.0, SVG Export Plug-In  -->
<svg version="1.1"
	 xmlns="http://www.w3.org/2000/svg" xmlns:xlink="http://www.w3.org/1999/xlink" xmlns:a="http://ns.adobe.com/AdobeSVGViewerExtensions/3.0/"
	 x="0px" y="0px" width="17.1px" height="16px" viewBox="0 0 17.1 16" style="enable-background:new 0 0 17.1 16;"
	 xml:space="preserve">
<style type="text/css">
	.st0{fill:#FFFFFF;}
</style>
<defs>
</defs>
<g id="XMLID_15_">
	<path id="XMLID_16_" class="st0" d="M5.3,8c-1,0-1.8,0.4-2.4,1.1H1.7C1.2,9.1,0.8,9,0.5,8.8S0,8.2,0,7.7c0-2.1,0.4-3.2,1.1-3.2
		c0,0,0.2,0.1,0.4,0.2S2,5,2.4,5.1c0.4,0.1,0.7,0.2,1.1,0.2c0.4,0,0.8-0.1,1.2-0.2c0,0.2,0,0.4,0,0.6C4.6,6.5,4.8,7.3,5.3,8z M5,0.7
		c0.4,0.4,0.7,1,0.7,1.6c0,0.6-0.2,1.2-0.7,1.6c-0.4,0.4-1,0.7-1.6,0.7c-0.6,0-1.2-0.2-1.6-0.7s-0.7-1-0.7-1.6
		c0-0.6,0.2-1.2,0.7-1.6C2.3,0.2,2.8,0,3.4,0C4.1,0,4.6,0.2,5,0.7z M14.9,13.7c0,0.7-0.2,1.3-0.7,1.7c-0.4,0.4-1,0.6-1.7,0.6H4.7
		c-0.7,0-1.3-0.2-1.7-0.6s-0.7-1-0.7-1.7c0-0.3,0-0.6,0-0.9c0-0.3,0.1-0.6,0.1-1c0.1-0.3,0.1-0.7,0.2-1c0.1-0.3,0.2-0.6,0.4-0.9
		s0.3-0.5,0.6-0.7C3.8,9,4.1,8.9,4.4,8.8s0.6-0.2,1-0.2c0.1,0,0.2,0.1,0.4,0.2C6,8.9,6.2,9,6.4,9.2s0.6,0.3,1,0.4
		c0.4,0.1,0.8,0.2,1.2,0.2s0.8-0.1,1.2-0.2c0.4-0.1,0.7-0.3,1-0.4C11,9,11.2,8.9,11.4,8.8c0.2-0.1,0.3-0.2,0.4-0.2
		c0.4,0,0.7,0.1,1,0.2c0.3,0.1,0.6,0.3,0.8,0.5c0.2,0.2,0.4,0.4,0.6,0.7c0.2,0.3,0.3,0.6,0.4,0.9c0.1,0.3,0.2,0.6,0.2,1
		c0.1,0.3,0.1,0.7,0.1,1C14.8,13.1,14.9,13.4,14.9,13.7z M11,3.3c0.7,0.7,1,1.5,1,2.4s-0.3,1.8-1,2.4c-0.7,0.7-1.5,1-2.4,1
		c-0.9,0-1.8-0.3-2.4-1c-0.7-0.7-1-1.5-1-2.4s0.3-1.8,1-2.4c0.7-0.7,1.5-1,2.4-1C9.5,2.3,10.3,2.6,11,3.3z M15.3,0.7
		c0.4,0.4,0.7,1,0.7,1.6c0,0.6-0.2,1.2-0.7,1.6c-0.4,0.4-1,0.7-1.6,0.7s-1.2-0.2-1.6-0.7s-0.7-1-0.7-1.6c0-0.6,0.2-1.2,0.7-1.6
		c0.4-0.4,1-0.7,1.6-0.7S14.9,0.2,15.3,0.7z M17.1,7.7c0,0.5-0.2,0.8-0.5,1.1c-0.3,0.2-0.7,0.4-1.2,0.4h-1.2C13.6,8.4,12.8,8,11.8,8
		c0.5-0.7,0.7-1.5,0.7-2.3c0-0.2,0-0.4,0-0.6c0.4,0.1,0.8,0.2,1.2,0.2c0.4,0,0.7-0.1,1.1-0.2c0.4-0.1,0.6-0.3,0.9-0.4S16,4.6,16,4.6
		C16.8,4.6,17.1,5.6,17.1,7.7z"/>
</g>
</svg>
