<!-- Generator: Adobe Illustrator 19.1.0, SVG Export Plug-In  -->
<svg version="1.1"
	 xmlns="http://www.w3.org/2000/svg" xmlns:xlink="http://www.w3.org/1999/xlink" xmlns:a="http://ns.adobe.com/AdobeSVGViewerExtensions/3.0/"
	 x="0px" y="0px" width="42px" height="18.7px" viewBox="0 0 42 18.7" style="enable-background:new 0 0 42 18.7;"
	 xml:space="preserve">
<style type="text/css">
	.st0{fill:#AA6858;}
	.st1{fill:#DB9E8C;}
	.st2{fill:#F1EFEF;}
	.st3{fill:#070201;}
</style>
<defs>
</defs>
<path id="XMLID_3_" class="st0" d="M0.1,7.3c-0.1-0.5,0-3.9,0-3.9s-0.3,0,3.1,0.8s10.2,1.9,21.3,1.2s17.5-2,17.5-2v3.7l-1.3-1.8
	c0,0-25.3,5.6-38.5,0C-0.1,7.3,0.1,7.3,0.1,7.3z"/>
<path id="XMLID_2_" class="st1" d="M3.5,4.4c0,0,5.1-2.2,8-3.6s4.8-0.3,6.5,0.7c1.8,1,3.3,0.4,5.3-0.5s6.2-2,11.5,2.6
	C37,4.9,40,4.2,40,4.2s-9.5,15.3-20.1,14.5S4.2,7.1,3.5,4.4z"/>
<path id="XMLID_1_" class="st2" d="M5,4.4c0,0,9.8,1.8,16.7,1.4c7.9-0.4,14.6-1.7,14.6-1.7s-5.4,5.1-9.1,7.1S14.3,14.9,5,4.4z"/>
<path class="st3" d="M8.2,7.5c0,0,12.9,3.8,24.5,0C30.3,9.3,21.8,18.8,8.2,7.5z"/>
</svg>
