<?xml version="1.0" encoding="utf-8"?>
<!-- Generator: Adobe Illustrator 19.1.0, SVG Export Plug-In . SVG Version: 6.00 Build 0)  -->
<svg version="1.1" id="Layer_1" xmlns="http://www.w3.org/2000/svg" xmlns:xlink="http://www.w3.org/1999/xlink" x="0px" y="0px"
	 viewBox="0 0 252 22.9" style="enable-background:new 0 0 252 22.9;" xml:space="preserve">
<style type="text/css">
	.st0{fill:#95D6EC;}
	.st1{fill:#6BBED4;}
	.st2{fill:#FFFFFF;}
	.st3{fill:#CED6D7;}
</style>
<g>
	<path class="st0" d="M244.6,18.6H241c-1.2,0-2.2-1-2.2-2.2V6.5c0-1.2,1-2.2,2.2-2.2h3.6V0H13.9c-3.6,0-6.5,2.9-6.5,6.5v9.9
		c0,3.6,2.9,6.5,6.5,6.5h230.6V18.6z"/>
	<path class="st1" d="M244.6,18.6H241c-1.2,0-2.2-1-2.2-2.2V6.5c0-1.2,1-2.2,2.2-2.2h3.6V0H124.9v22.9h119.7V18.6z"/>
	<path class="st2" d="M238.8,16.4V6.5c0-1.2,1-2.2,2.2-2.2h-227c-1.2,0-2.2,1-2.2,2.2v9.9c0,1.2,1,2.2,2.2,2.2h227
		C239.7,18.6,238.8,17.6,238.8,16.4z"/>
	<path class="st3" d="M238.8,16.4V6.5c0-1.2,1-2.2,2.2-2.2H120.6c-1.2,0-2.2,1-2.2,2.2v9.9c0,1.2,1,2.2,2.2,2.2H241
		C239.7,18.6,238.8,17.6,238.8,16.4z"/>
</g>
</svg>
