<?xml version="1.0" encoding="utf-8"?>
<!-- Generator: Adobe Illustrator 19.1.0, SVG Export Plug-In . SVG Version: 6.00 Build 0)  -->
<svg version="1.1" id="Layer_1" xmlns="http://www.w3.org/2000/svg" xmlns:xlink="http://www.w3.org/1999/xlink" x="0px" y="0px"
	 viewBox="0 0 162.4 26.9" style="enable-background:new 0 0 162.4 26.9;" xml:space="preserve">
<style type="text/css">
	.st0{fill:#F9A91A;}
	.st1{fill:#E5E8EC;}
</style>
<g>
	<path class="st0" d="M9.6,22.6c1.2,0,2.3,0,3.5,0c1.1,0,2.1-1,2.1-2.2c0.1-7.7,0.1-6.2,0-13.9c0-1.2-1-2.2-2.1-2.2
		c-1.2,0-2.3,0-3.5,0c0-1.5,0-2.9,0-4.4C56.1,0,102.6,0,149,0c3.3,0,8.5,2.4,10.4,5.9c3.9,7.6,3.9,7.5,0,15.1
		c-1.8,3.6-7,5.9-10.4,5.9c-46.5,0-92.9,0-139.4,0C9.6,25.5,9.6,24,9.6,22.6z"/>
	<path class="st1" d="M15.2,20.4c0.1-7.7,0.1-6.2,0-13.9c0-1.2-1-2.2-2.1-2.2C59.4,4.2,105.7,4,152,3.9c1.1,0,2.7,0.9,3.3,2.1
		c3.8,7.6,3.8,7.5,0,15.1c-0.6,1.2-2.1,2.1-3.3,2.1c-46.3-0.2-92.6-0.3-138.8-0.5C14.2,22.6,15.2,21.6,15.2,20.4z"/>
</g>
</svg>
