<?xml version="1.0" encoding="utf-8"?>
<!-- Generator: Adobe Illustrator 19.1.0, SVG Export Plug-In . SVG Version: 6.00 Build 0)  -->
<svg version="1.1" id="Layer_1" xmlns="http://www.w3.org/2000/svg" xmlns:xlink="http://www.w3.org/1999/xlink" x="0px" y="0px"
	 viewBox="0 0 252 35.1" style="enable-background:new 0 0 252 35.1;" xml:space="preserve">
<style type="text/css">
	.st0{fill:#4F6D98;}
	.st1{fill:#7C95BA;}
	.st2{fill:#CED6D7;}
	.st3{fill:#FFFFFF;}
	.st4{fill:#E6E8EB;}
	.st5{fill:#E5E8EC;}
</style>
<g>
	<path class="st0" d="M18.5,30.8h3.2c1.1,0,1.9-1,1.9-2.2V6.5c0-1.2-0.9-2.2-1.9-2.2h-3.2V0h206.6c3.2,0,5.8,2.9,5.8,6.5v22.1
		c0,3.6-2.6,6.5-5.8,6.5H18.5V30.8z"/>
	<path class="st1" d="M18.5,30.8h3.2c1.1,0,1.9-1,1.9-2.2V6.5c0-1.2-0.9-2.2-1.9-2.2h-3.2V0h107.2v35.1H18.5V30.8z"/>
	<path class="st2" d="M23.7,28.6V6.5c0-1.2-0.9-2.2-1.9-2.2h203.4c1.1,0,1.9,1,1.9,2.2v22.1c0,1.2-0.9,2.2-1.9,2.2H21.8
		C22.9,30.8,23.7,29.8,23.7,28.6z"/>
	<path class="st3" d="M23.7,28.6V6.5c0-1.2-0.9-2.2-1.9-2.2h107.9c1.1,0,1.9,1,1.9,2.2v22.1c0,1.2-0.9,2.2-1.9,2.2H21.8
		C22.9,30.8,23.7,29.8,23.7,28.6z"/>
	<g>
		<rect x="131.7" y="7.3" class="st4" width="93.9" height="1.4"/>
		<rect x="131.7" y="27.5" class="st4" width="93.9" height="1.4"/>
		<rect x="131.7" y="10.8" class="st4" width="93.9" height="0.4"/>
		<rect x="131.7" y="4.4" class="st4" width="93.9" height="0.4"/>
		<rect x="131.7" y="14.3" class="st4" width="93.9" height="0.4"/>
		<rect x="131.7" y="18.9" class="st4" width="93.9" height="0.4"/>
		<rect x="131.7" y="12.9" class="st5" width="93.9" height="0.9"/>
		<rect x="131.7" y="17.2" class="st4" width="93.9" height="1.4"/>
		<rect x="131.7" y="6.5" class="st4" width="93.9" height="0.9"/>
		<rect x="131.7" y="23.6" class="st4" width="93.9" height="0.9"/>
		<rect x="131.7" y="11.4" class="st4" width="93.9" height="0.9"/>
	</g>
</g>
</svg>
