<!-- Generator: Adobe Illustrator 19.1.0, SVG Export Plug-In  -->
<svg version="1.1"
	 xmlns="http://www.w3.org/2000/svg" xmlns:xlink="http://www.w3.org/1999/xlink" xmlns:a="http://ns.adobe.com/AdobeSVGViewerExtensions/3.0/"
	 x="0px" y="0px" width="1017.5px" height="1877.5px" viewBox="0 0 1017.5 1877.5"
	 style="enable-background:new 0 0 1017.5 1877.5;" xml:space="preserve">
<style type="text/css">
	.st0{fill:#8FC1BC;}
	.st1{fill:#42A096;}
	.st2{fill:#FAA900;}
	.st3{fill:#FFFFFF;}
	.st4{fill:#E5E8EC;}
	.st5{fill:#DE6940;}
	.st6{font-family:'FontAwesome';}
	.st7{font-size:223.0264px;}
	.st8{fill:#FFD87E;}
	.st9{font-family:'OpenSans';}
	.st10{font-size:46px;}
</style>
<defs>
</defs>
<g>
	<path class="st0" d="M122.7,1877.4L76,1865.9c-1.6-0.4-2.6-2-2.2-3.6l116.4-469.5c0.4-1.6,2-2.6,3.6-2.2l46.6,11.6
		c1.6,0.4,2.6,2,2.2,3.6l-116.4,469.5C125.9,1876.8,124.3,1877.8,122.7,1877.4z"/>
	<path class="st0" d="M897.9,1877.4l46.6-11.6c1.6-0.4,2.6-2,2.2-3.6l-116.4-469.5c-0.4-1.6-2-2.6-3.6-2.2l-46.6,11.6
		c-1.6,0.4-2.6,2-2.2,3.6l116.4,469.5C894.6,1876.8,896.3,1877.8,897.9,1877.4z"/>
	<path class="st1" d="M524.3,1734.3h-46c-2.2,0-4-1.8-4-4V4c0-2.2,1.8-4,4-4l46,0c2.2,0,4,1.8,4,4v1726.3
		C528.3,1732.5,526.5,1734.3,524.3,1734.3z"/>
	<rect x="34.5" y="108.6" class="st2" width="951.5" height="1313.8"/>
	<rect x="75" y="108.6" class="st3" width="870.5" height="1275.9"/>
	<rect y="50.4" class="st0" width="1017.5" height="102.1"/>
	<rect x="460.7" y="1422.3" class="st4" width="81" height="49.3"/>
	<polygon class="st4" points="933.7,1777.6 868.3,1794.3 853.8,1737.6 919.2,1720.9 	"/>
	<polygon class="st4" points="88.4,1777.6 153.8,1794.3 168.3,1737.6 102.9,1720.9 	"/>
	<rect y="131" class="st4" width="1017.5" height="21.5"/>
	<g>
		<g>
			<rect x="188.4" y="878.2" class="st4" width="693.3" height="3.3"/>
		</g>
		<g>
			<rect x="188.4" y="683.4" class="st4" width="693.3" height="3.3"/>
		</g>
		<g>
			<rect x="188.4" y="488.7" class="st4" width="693.3" height="3.3"/>
		</g>
		<g>
			<rect x="136.9" y="873" class="st4" width="32.7" height="13.6"/>
		</g>
		<g>
			<rect x="136.9" y="678.2" class="st4" width="32.7" height="13.6"/>
		</g>
		<g>
			<rect x="136.9" y="483.5" class="st4" width="32.7" height="13.6"/>
		</g>
	</g>
	<g>
		<rect x="213" y="1187.2" class="st4" width="280.6" height="14.4"/>
		<rect x="213" y="1229.5" class="st4" width="280.6" height="14.4"/>
		<rect x="213" y="1271.8" class="st4" width="201.4" height="14.4"/>
		<rect x="163.8" y="1180.7" class="st2" width="32.8" height="27.4"/>
		<rect x="601.2" y="1187.2" class="st4" width="280.6" height="14.4"/>
		<rect x="601.2" y="1229.5" class="st4" width="280.6" height="14.4"/>
		<rect x="601.2" y="1271.8" class="st4" width="201.3" height="14.4"/>
		<rect x="551.9" y="1180.7" class="st1" width="32.8" height="27.4"/>
	</g>
	<text transform="matrix(0.7071 -0.7071 0.7071 0.7071 500.8555 422.9079)" class="st5 st6 st7"></text>
	<g>
		<g>
			<polygon class="st0" points="307.3,663.3 265.1,838.9 186.1,805.7 182.2,814.9 272.1,852.6 314,677.8 500.2,771.4 636.2,628.9 
				743.7,703.2 775.4,611.8 881.9,694 888,686.2 770.5,595.5 738.6,687.6 634.9,615.9 498.1,759.2 			"/>
		</g>
		<path class="st1" d="M196.1,804.7c-3.1-6.5-10.9-9.4-17.5-6.3c-6.6,3.1-9.4,10.9-6.3,17.4c3.1,6.6,10.9,9.4,17.4,6.3
			C196.3,819.1,199.1,811.3,196.1,804.7z"/>
		<path class="st1" d="M322.5,665c-3.1-6.6-10.9-9.4-17.4-6.3c-6.6,3.1-9.4,10.9-6.3,17.4c3.1,6.6,10.9,9.4,17.4,6.3
			C322.8,679.3,325.6,671.5,322.5,665z"/>
		<path class="st1" d="M280.5,840.1c-3.1-6.6-10.9-9.4-17.5-6.3c-6.5,3.1-9.4,10.9-6.3,17.5c3.1,6.5,10.9,9.4,17.4,6.3
			C280.7,854.5,283.5,846.7,280.5,840.1z"/>
		<path class="st1" d="M511,759.7c-3.1-6.6-10.9-9.4-17.4-6.3c-6.6,3.1-9.4,10.9-6.3,17.4c3.1,6.5,10.9,9.4,17.4,6.3
			C511.2,774.1,514.1,766.3,511,759.7z"/>
		<path class="st1" d="M647.4,616.8c-3.1-6.5-10.9-9.4-17.5-6.3c-6.6,3.1-9.4,10.9-6.3,17.4c3.1,6.6,10.9,9.4,17.5,6.3
			C647.7,631.2,650.5,623.4,647.4,616.8z"/>
		<path class="st1" d="M753,689.8c-3.1-6.6-10.9-9.4-17.5-6.3c-6.6,3.1-9.4,10.9-6.3,17.4c3.1,6.6,10.9,9.4,17.4,6.3
			C753.3,704.2,756.1,696.4,753,689.8z"/>
		<path class="st1" d="M784.8,598c-3.1-6.6-10.9-9.4-17.5-6.3c-6.5,3.1-9.4,10.9-6.3,17.4c3.1,6.6,10.9,9.4,17.4,6.3
			C785.1,612.4,787.9,604.6,784.8,598z"/>
		<path class="st1" d="M896.9,684.5c-3.1-6.6-10.9-9.4-17.5-6.3c-6.6,3.1-9.4,10.9-6.3,17.4c3.1,6.6,10.9,9.4,17.4,6.3
			C897.1,698.9,899.9,691.1,896.9,684.5z"/>
	</g>
	<g>
		<g>
			<polygon class="st8" points="305.8,544.6 268.7,721.3 188.7,690.5 185.2,699.7 276,734.8 313,558.9 501.7,647.2 633.7,500.9 
				743.2,572.1 772.3,479.9 881.1,559.1 887,551 767,463.7 737.6,556.7 632,487.9 499.3,635.1 			"/>
		</g>
		<path class="st2" d="M198.7,689.2c-3.3-6.5-11.1-9.1-17.6-5.8c-6.5,3.3-9.1,11.2-5.8,17.6c3.3,6.5,11.1,9.1,17.6,5.8
			C199.3,703.6,201.9,695.7,198.7,689.2z"/>
		<path class="st2" d="M321.1,545.9c-3.3-6.5-11.1-9.1-17.6-5.8c-6.5,3.3-9.1,11.2-5.8,17.6c3.3,6.5,11.2,9.1,17.6,5.8
			C321.8,560.2,324.4,552.3,321.1,545.9z"/>
		<path class="st2" d="M284,722.2c-3.3-6.5-11.2-9.1-17.6-5.8c-6.5,3.3-9.1,11.1-5.8,17.6c3.3,6.5,11.1,9,17.6,5.8
			C284.7,736.5,287.3,728.6,284,722.2z"/>
		<path class="st2" d="M512.2,635.3c-3.3-6.5-11.1-9.1-17.6-5.8c-6.5,3.3-9.1,11.1-5.8,17.6c3.3,6.5,11.2,9.1,17.6,5.8
			C512.9,649.6,515.4,641.7,512.2,635.3z"/>
		<path class="st2" d="M647.1,498.4c-3.3-6.5-11.1-9.1-17.6-5.8c-6.5,3.3-9.1,11.2-5.8,17.6c3.3,6.5,11.2,9.1,17.6,5.8
			C647.8,512.8,650.4,504.9,647.1,498.4z"/>
		<path class="st2" d="M752.1,558.5c-3.3-6.5-11.1-9.1-17.6-5.8c-6.5,3.3-9.1,11.2-5.8,17.6c3.3,6.5,11.1,9.1,17.6,5.8
			C752.8,572.8,755.4,565,752.1,558.5z"/>
		<path class="st2" d="M781.3,465.9c-3.3-6.5-11.1-9-17.6-5.8c-6.4,3.3-9.1,11.1-5.8,17.6c3.3,6.5,11.2,9.1,17.6,5.8
			C782,480.2,784.6,472.4,781.3,465.9z"/>
		<path class="st2" d="M895.8,549.1c-3.3-6.5-11.1-9.1-17.6-5.8c-6.5,3.3-9.1,11.1-5.8,17.6c3.3,6.5,11.2,9.1,17.6,5.8
			C896.4,563.5,899,555.6,895.8,549.1z"/>
	</g>
</g>
<text transform="matrix(1 0 0 1 160.7915 1139.2892)" class="st9 st10">Take Action</text>
<text transform="matrix(1 0 0 1 551.9263 1139.2892)" class="st9 st10">Performance</text>
</svg>
