<!-- Generator: Adobe Illustrator 19.1.0, SVG Export Plug-In  -->
<svg version="1.1"
	 xmlns="http://www.w3.org/2000/svg" xmlns:xlink="http://www.w3.org/1999/xlink" xmlns:a="http://ns.adobe.com/AdobeSVGViewerExtensions/3.0/"
	 x="0px" y="0px" width="33.8px" height="15.8px" viewBox="0 0 33.8 15.8" style="enable-background:new 0 0 33.8 15.8;"
	 xml:space="preserve">
<style type="text/css">
	.st0{fill:#DB9E8C;}
	.st1{fill:#AA6858;}
	.st2{fill:#F1EFEF;}
</style>
<defs>
</defs>
<path id="XMLID_3_" class="st0" d="M4.1,5.6c0,0,3.9-3.5,6.2-4.9s3.8-0.3,5.3,0.7c1.4,1,2.6,0.4,4.3-0.5c1.6-1,9.2-1.4,11.3,5.2
	c1.8,1.5,1.6,0.4,1.6,0.4s-6.2,10.2-14.8,9.5C9.5,15,4.7,8.3,4.1,5.6z"/>
<path id="XMLID_2_" class="st1" d="M0,8.3c-0.1-0.5,0-3.9,0-3.9s-0.2,0,2.5,0.8s8.1,1.9,17.1,1.2s14.1-2,14.1-2v3.7l-0.9-1.8
	c0,0-20.5,5.6-31.2,0C-0.2,8.3,0,8.3,0,8.3z"/>
<path id="XMLID_1_" class="st2" d="M5,6.6c0,0,18.2-4.3,26.2-0.6C27.6,9.7,9.8,9.8,5,6.6z"/>
</svg>
