<!-- Generator: Adobe Illustrator 19.1.0, SVG Export Plug-In  -->
<svg version="1.1"
	 xmlns="http://www.w3.org/2000/svg" xmlns:xlink="http://www.w3.org/1999/xlink" xmlns:a="http://ns.adobe.com/AdobeSVGViewerExtensions/3.0/"
	 x="0px" y="0px" width="22.3px" height="8.8px" viewBox="0 0 22.3 8.8" style="enable-background:new 0 0 22.3 8.8;"
	 xml:space="preserve">
<style type="text/css">
	.st0{fill:#000100;}
	.st1{fill:#F1EFEF;}
	.st2{clip-path:url(#XMLID_6_);fill:#000100;}
	.st3{clip-path:url(#XMLID_7_);fill:#000100;}
</style>
<defs>
</defs>
<path id="XMLID_5_" class="st0" d="M8.8,8.5l7.4-3.4c0,0,4.1,0.1,6.1-2.7C19.2,1.7,16,0,11.1,0C7.5,0-0.3-0.6,0,5.1
	c0,2.7,0,2.7,0,2.7L8.8,8.5z"/>
<path id="XMLID_4_" class="st1" d="M0,7.8c0,0-0.1-5.3,7.2-5.6S19.5,4,19.5,4s-2.8,2.1-6.9,3.8S0,7.8,0,7.8z"/>
<g id="XMLID_1_">
	<defs>
		<path id="XMLID_2_" d="M0,7.8c0,0,9.2,1.9,19.4-1.6c-3-0.6-4.6-5.7-8.3-5.3C2.6,1.9,0.7,0.4,0,7.8z"/>
	</defs>
	<clipPath id="XMLID_6_">
		<use xlink:href="#XMLID_2_"  style="overflow:visible;"/>
	</clipPath>
	<ellipse id="XMLID_3_" class="st2" cx="7.2" cy="5" rx="3.1" ry="3.8"/>
</g>
</svg>
