<!-- Generator: Adobe Illustrator 19.1.0, SVG Export Plug-In  -->
<svg version="1.1"
	 xmlns="http://www.w3.org/2000/svg" xmlns:xlink="http://www.w3.org/1999/xlink" xmlns:a="http://ns.adobe.com/AdobeSVGViewerExtensions/3.0/"
	 x="0px" y="0px" width="81.8px" height="13.4px" viewBox="0 0 81.8 13.4" style="enable-background:new 0 0 81.8 13.4;"
	 xml:space="preserve">
<style type="text/css">
	.st0{fill:#000100;}
	.st1{fill:#EDE6E2;}
</style>
<defs>
</defs>
<path id="XMLID_6_" class="st0" d="M0,5.5c0,0,1.8,2.7,9.3,4.7c4-3,13.2-10.6,19.7,3.2C29.9,6.1,26.4,1,19.4,0.1S9,3.7,7.5,4.8
	S2.9,6,0,5.5z"/>
<path id="XMLID_5_" class="st1" d="M5.3,8.8c0,0,12.8,5.2,23.8,4.6C27.7,8,26.2,3.2,20,2.5S10.9,8.4,5.3,8.8z"/>
<ellipse id="XMLID_4_" class="st0" cx="20.2" cy="7.7" rx="3.7" ry="3.9"/>
<path id="XMLID_3_" class="st0" d="M81.8,5.5c0,0-1.8,2.7-9.3,4.7c-4-3-13.2-10.6-19.7,3.2C51.9,6.1,55.4,1,62.4,0.1
	s10.4,3.6,12,4.7C75.9,5.9,79,6,81.8,5.5z"/>
<path id="XMLID_2_" class="st1" d="M52.7,13.4c0,0,18.1-0.9,22-4.5c-3.7-0.7-3.8-2.4-7.7-4.5C63.3,2.3,54.7,1.9,52.7,13.4z"/>
<ellipse id="XMLID_1_" class="st0" cx="62.1" cy="7.7" rx="3.7" ry="3.9"/>
</svg>
