<!-- Generator: Adobe Illustrator 19.1.0, SVG Export Plug-In  -->
<svg version="1.1"
	 xmlns="http://www.w3.org/2000/svg" xmlns:xlink="http://www.w3.org/1999/xlink" xmlns:a="http://ns.adobe.com/AdobeSVGViewerExtensions/3.0/"
	 x="0px" y="0px" width="1017.5px" height="1877.5px" viewBox="0 0 1017.5 1877.5"
	 style="enable-background:new 0 0 1017.5 1877.5;" xml:space="preserve">
<style type="text/css">
	.st0{fill:#8FC1BC;}
	.st1{fill:#42A096;}
	.st2{fill:#FAA900;}
	.st3{fill:#FFFFFF;}
	.st4{fill:#E5E8EC;}
	.st5{fill:#6BBED3;}
	.st6{fill:#FFD87E;}
</style>
<defs>
</defs>
<path class="st0" d="M122.7,1877.4L76,1865.9c-1.6-0.4-2.6-2-2.2-3.6l116.4-469.5c0.4-1.6,2-2.6,3.6-2.2l46.6,11.6
	c1.6,0.4,2.6,2,2.2,3.6l-116.4,469.5C125.9,1876.8,124.3,1877.8,122.7,1877.4z"/>
<path class="st0" d="M897.9,1877.4l46.6-11.6c1.6-0.4,2.6-2,2.2-3.6l-116.4-469.5c-0.4-1.6-2-2.6-3.6-2.2l-46.6,11.6
	c-1.6,0.4-2.6,2-2.2,3.6l116.4,469.5C894.6,1876.8,896.3,1877.8,897.9,1877.4z"/>
<path class="st1" d="M524.3,1734.3h-46c-2.2,0-4-1.8-4-4V4c0-2.2,1.8-4,4-4l46,0c2.2,0,4,1.8,4,4v1726.3
	C528.3,1732.5,526.5,1734.3,524.3,1734.3z"/>
<rect x="34.5" y="108.6" class="st2" width="951.5" height="1313.8"/>
<rect x="75" y="108.6" class="st3" width="870.5" height="1275.9"/>
<rect y="50.4" class="st0" width="1017.5" height="102.1"/>
<rect x="460.7" y="1422.3" class="st4" width="81" height="49.3"/>
<polygon class="st4" points="933.7,1777.6 868.3,1794.3 853.8,1737.6 919.2,1720.9 "/>
<polygon class="st4" points="88.4,1777.6 153.8,1794.3 168.3,1737.6 102.9,1720.9 "/>
<rect y="131" class="st4" width="1017.5" height="21.5"/>
<g>
	<g>
		<rect x="188.4" y="878.2" class="st4" width="693.3" height="3.3"/>
	</g>
	<g>
		<rect x="188.4" y="683.4" class="st4" width="693.3" height="3.3"/>
	</g>
	<g>
		<rect x="188.4" y="488.7" class="st4" width="693.3" height="3.3"/>
	</g>
	<g>
		<rect x="136.9" y="873" class="st4" width="32.7" height="13.6"/>
	</g>
	<g>
		<rect x="136.9" y="678.2" class="st4" width="32.7" height="13.6"/>
	</g>
	<g>
		<rect x="136.9" y="483.5" class="st4" width="32.7" height="13.6"/>
	</g>
</g>
<g>
	<rect x="194.6" y="1224.2" class="st4" width="175.8" height="9"/>
	<rect x="194.6" y="1250.6" class="st4" width="175.8" height="9"/>
	<rect x="194.6" y="1277.1" class="st4" width="126.1" height="9"/>
	<rect x="163.8" y="1220.1" class="st2" width="20.6" height="17.1"/>
	<rect x="437.8" y="1224.2" class="st4" width="175.8" height="9"/>
	<rect x="437.8" y="1250.6" class="st4" width="175.8" height="9"/>
	<rect x="437.8" y="1277.1" class="st4" width="126.1" height="9"/>
	<rect x="407" y="1220.1" class="st1" width="20.6" height="17.1"/>
	<rect x="681" y="1224.2" class="st4" width="175.8" height="9"/>
	<rect x="681" y="1250.6" class="st4" width="175.8" height="9"/>
	<rect x="681" y="1277.1" class="st4" width="126.1" height="9"/>
	<rect x="650.1" y="1220.1" class="st5" width="20.6" height="17.1"/>
</g>
<g>
	<g>
		<polygon class="st0" points="303.9,997 228.3,859.7 189.7,921.5 184.8,915 228.6,844.7 303.9,981.4 390.3,822 513.6,891.3 
			557.6,781.4 602.9,848.8 644.2,732.3 650.2,736.7 604.6,865.2 559,797.3 516.4,903.3 392.5,833.6 		"/>
	</g>
	<path class="st1" d="M196.1,918.3c0,7-3.9,12.8-8.8,12.8c-4.9,0-8.8-5.7-8.8-12.8c0-7.1,3.9-12.8,8.8-12.8
		C192.1,905.5,196.1,911.2,196.1,918.3z"/>
	<path class="st1" d="M312.7,989.2c0,7-3.9,12.8-8.8,12.8c-4.9,0-8.8-5.7-8.8-12.8c0-7.1,3.9-12.8,8.8-12.8
		C308.8,976.4,312.7,982.1,312.7,989.2z"/>
	<path class="st1" d="M237.3,852.2c0,7.1-3.9,12.8-8.8,12.8c-4.8,0-8.8-5.7-8.8-12.8c0-7,3.9-12.7,8.8-12.7
		C233.3,839.4,237.3,845.1,237.3,852.2z"/>
	<path class="st1" d="M400.2,827.8c0,7.1-3.9,12.8-8.8,12.8c-4.9,0-8.8-5.7-8.8-12.8c0-7,3.9-12.8,8.8-12.8
		C396.3,815,400.2,820.7,400.2,827.8z"/>
	<path class="st1" d="M523.8,897.3c0,7-3.9,12.7-8.8,12.7c-4.9,0-8.8-5.7-8.8-12.7c0-7.1,3.9-12.8,8.8-12.8
		C519.9,884.6,523.8,890.3,523.8,897.3z"/>
	<path class="st1" d="M567.1,789.3c0,7-3.9,12.8-8.8,12.8c-4.9,0-8.8-5.7-8.8-12.8c0-7.1,3.9-12.8,8.8-12.8
		C563.2,776.6,567.1,782.3,567.1,789.3z"/>
	<path class="st1" d="M612.6,857.1c0,7-3.9,12.7-8.8,12.7c-4.8,0-8.8-5.7-8.8-12.7c0-7.1,3.9-12.8,8.8-12.8
		C608.6,844.3,612.6,850,612.6,857.1z"/>
	<path class="st1" d="M656,734.5c0,7-3.9,12.8-8.8,12.8c-4.9,0-8.8-5.7-8.8-12.8c0-7.1,3.9-12.8,8.8-12.8
		C652.1,721.8,656,727.5,656,734.5z"/>
</g>
<g>
	<g>
		<polygon class="st6" points="388.1,949.1 236.9,841.3 187.7,915.2 178.3,910.6 234.3,826.6 384.8,933.9 490.6,747.8 704.4,772.5 
			752.4,649.7 839.8,699.8 881.9,571.4 892.4,573.7 846,715.2 757.9,664.7 711.6,783.2 496.6,758.4 		"/>
	</g>
	<path class="st2" d="M197.2,909.9c1.5,6.9-3.7,13.9-11.5,15.6c-7.9,1.7-15.4-2.5-16.9-9.4c-1.5-6.9,3.7-13.9,11.5-15.6
		C188.2,898.8,195.7,903,197.2,909.9z"/>
	<path class="st2" d="M400.7,938.4c1.5,6.9-3.7,13.9-11.5,15.6c-7.8,1.7-15.4-2.5-16.9-9.4c-1.5-6.9,3.7-13.9,11.5-15.6
		C391.6,927.3,399.2,931.5,400.7,938.4z"/>
	<path class="st2" d="M249.8,830.9c1.5,6.9-3.7,13.9-11.5,15.6c-7.8,1.7-15.4-2.5-16.9-9.4c-1.5-6.9,3.7-13.8,11.5-15.5
		C240.7,819.8,248.3,824,249.8,830.9z"/>
	<path class="st2" d="M507.8,750c1.5,6.9-3.6,13.9-11.5,15.6c-7.8,1.7-15.4-2.5-16.9-9.4c-1.5-6.9,3.7-13.9,11.5-15.6
		C498.8,738.9,506.3,743.1,507.8,750z"/>
	<path class="st2" d="M722.3,774.8c1.5,6.9-3.7,13.8-11.5,15.5c-7.8,1.7-15.4-2.5-16.9-9.4c-1.5-6.9,3.7-13.9,11.5-15.6
		C713.2,763.7,720.8,767.9,722.3,774.8z"/>
	<path class="st2" d="M769.4,654.1c1.5,6.9-3.7,13.9-11.5,15.6c-7.8,1.7-15.4-2.5-16.9-9.4c-1.5-6.9,3.7-13.9,11.5-15.6
		C760.3,643,767.9,647.2,769.4,654.1z"/>
	<path class="st2" d="M857.2,704.4c1.5,6.9-3.7,13.8-11.5,15.5c-7.8,1.7-15.4-2.5-16.9-9.4c-1.5-6.9,3.7-13.9,11.5-15.6
		C848.1,693.3,855.7,697.5,857.2,704.4z"/>
	<path class="st2" d="M901.4,569.5c1.5,6.9-3.7,13.9-11.5,15.6c-7.8,1.7-15.4-2.5-16.9-9.4c-1.5-6.9,3.7-13.9,11.5-15.6
		C892.3,558.4,899.9,562.6,901.4,569.5z"/>
</g>
</svg>
