<!-- Generator: Adobe Illustrator 19.1.0, SVG Export Plug-In  -->
<svg version="1.1"
	 xmlns="http://www.w3.org/2000/svg" xmlns:xlink="http://www.w3.org/1999/xlink" xmlns:a="http://ns.adobe.com/AdobeSVGViewerExtensions/3.0/"
	 x="0px" y="0px" width="133.1px" height="133.1px" viewBox="0 0 133.1 133.1" style="enable-background:new 0 0 133.1 133.1;"
	 xml:space="preserve">
<style type="text/css">
	.st0{fill:#47A096;}
	.st1{fill:#E2F7F3;}
</style>
<defs>
</defs>
<g>
	<g id="XMLID_1_">
		<circle id="XMLID_5_" class="st0" cx="66.6" cy="66.6" r="66.6"/>
		<circle id="XMLID_4_" class="st1" cx="66.6" cy="66.6" r="56.1"/>
		<g id="XMLID_2_">
			<defs>
				<circle id="XMLID_3_" cx="66.6" cy="66.6" r="56.1"/>
			</defs>
			<clipPath id="XMLID_6_">
				<use xlink:href="#XMLID_3_"  style="overflow:visible;"/>
			</clipPath>
		</g>
	</g>
	<g>
		<path class="st0" d="M104.3,45.5c3.8,6.6,5.8,13.8,5.8,21.6c0,7.8-1.9,15-5.8,21.6c-3.8,6.6-9.1,11.8-15.7,15.7
			c-6.6,3.8-13.8,5.8-21.6,5.8c-7.8,0-15-1.9-21.6-5.8c-6.6-3.8-11.8-9.1-15.7-15.7C26,82.1,24,74.9,24,67.1c0-7.8,1.9-15,5.8-21.6
			c3.8-6.6,9.1-11.8,15.7-15.7C52,26,59.2,24.1,67,24.1c7.8,0,15,1.9,21.6,5.8C95.2,33.7,100.4,38.9,104.3,45.5z M81.4,94v-9
			c0-0.5-0.2-1-0.5-1.3c-0.3-0.3-0.8-0.5-1.3-0.5h-5.4V54.6c0-0.5-0.2-1-0.5-1.3s-0.8-0.5-1.3-0.5H54.5c-0.5,0-1,0.2-1.3,0.5
			s-0.5,0.8-0.5,1.3v9c0,0.5,0.2,1,0.5,1.3c0.3,0.3,0.8,0.5,1.3,0.5h5.4v17.9h-5.4c-0.5,0-1,0.2-1.3,0.5s-0.5,0.8-0.5,1.3v9
			c0,0.5,0.2,1,0.5,1.3s0.8,0.5,1.3,0.5h25.1c0.5,0,1-0.2,1.3-0.5C81.2,95,81.4,94.5,81.4,94z M74.2,43.8v-9c0-0.5-0.2-1-0.5-1.3
			s-0.8-0.5-1.3-0.5H61.7c-0.5,0-1,0.2-1.3,0.5s-0.5,0.8-0.5,1.3v9c0,0.5,0.2,1,0.5,1.3s0.8,0.5,1.3,0.5h10.8c0.5,0,1-0.2,1.3-0.5
			S74.2,44.3,74.2,43.8z"/>
	</g>
</g>
</svg>
