<!-- Generator: Adobe Illustrator 19.1.0, SVG Export Plug-In  -->
<svg version="1.1"
	 xmlns="http://www.w3.org/2000/svg" xmlns:xlink="http://www.w3.org/1999/xlink" xmlns:a="http://ns.adobe.com/AdobeSVGViewerExtensions/3.0/"
	 x="0px" y="0px" width="51.6px" height="62.7px" viewBox="0 0 51.6 62.7" style="enable-background:new 0 0 51.6 62.7;"
	 xml:space="preserve">
<style type="text/css">
	.st0{fill:#F7D3AF;}
</style>
<defs>
</defs>
<g id="XMLID_1_">
	<circle id="XMLID_3_" class="st0" cx="39.8" cy="11.7" r="11.7"/>
	<path id="XMLID_2_" class="st0" d="M35.8,1.4c0,0-9.4,2.4-15.6,6.6s-6.8,7.4-8.9,10.1s-4.8,7.2-6.2,8.8c-1.4,1.6-3.9,14.4-4.7,17.8
		c-0.8,3.5-1.1,8.5,3.6,8c2.5,5.6,2.1,7.4,7.3,4.8c6.1,5.1,7.7,6.9,10.8,2.9c2.2-5.8,2.2-7.2,2.2-5.8c0,1.3-1.1,6.7,1.4,8
		s5.4-2.7,6.6-8c6.8-8.2,7.6-21.3,10.7-25.5c3.1-4.3,5.6-9.6,5.6-9.6L35.8,1.4z"/>
</g>
</svg>
