<!-- Generator: Adobe Illustrator 19.1.0, SVG Export Plug-In  -->
<svg version="1.1"
	 xmlns="http://www.w3.org/2000/svg" xmlns:xlink="http://www.w3.org/1999/xlink" xmlns:a="http://ns.adobe.com/AdobeSVGViewerExtensions/3.0/"
	 x="0px" y="0px" width="90px" height="68px" viewBox="0 0 90 68" style="enable-background:new 0 0 90 68;" xml:space="preserve">
<style type="text/css">
	.st0{fill:#F7D3AF;}
</style>
<defs>
</defs>
<path id="XMLID_1_" class="st0" d="M89.4,17.9c0.4-1.2,0.6-2.5,0.6-3.9C90,6.3,83.7,0,75.9,0c-2.9,0-5.5,0.9-7.7,2.3l0,0
	c0,0,0,0-0.1,0.1c0,0-0.1,0-0.1,0.1C65.2,4.3,28.4,28.9,4.4,51c-9.5,8-3,23.5,15,14c19.5-11.5,45-19,52.5-27
	c4.2-4.4,8.9-8.9,12.5-12.7c2-1.5,3.7-3.6,4.6-6C89.2,18.8,89.4,18.3,89.4,17.9C89.4,17.9,89.4,17.9,89.4,17.9z"/>
</svg>
