<!-- Generator: Adobe Illustrator 19.1.0, SVG Export Plug-In  -->
<svg version="1.1"
	 xmlns="http://www.w3.org/2000/svg" xmlns:xlink="http://www.w3.org/1999/xlink" xmlns:a="http://ns.adobe.com/AdobeSVGViewerExtensions/3.0/"
	 x="0px" y="0px" width="81.9px" height="169.6px" viewBox="0 0 81.9 169.6" style="enable-background:new 0 0 81.9 169.6;"
	 xml:space="preserve">
<style type="text/css">
	.st0{fill:#DEB590;}
</style>
<defs>
</defs>
<path id="XMLID_1_" class="st0" d="M58.8,90L41.9,44c0,0-3.7-10.1-2.9-24.5C39,8.7,30.3,0,19.5,0C8.7,0,0,8.7,0,19.5
	c0,6.6,3.3,12.5,8.4,16c0,0,0,0,0,0s5.4,4.6,12.9,22.6l34,90.3c0,0,3.5,18.9,12.5,20.9s12.6-4,14-10C83.3,153.2,58.8,90,58.8,90z"/>
</svg>
