<!-- Generator: Adobe Illustrator 19.1.0, SVG Export Plug-In  -->
<svg version="1.1"
	 xmlns="http://www.w3.org/2000/svg" xmlns:xlink="http://www.w3.org/1999/xlink" xmlns:a="http://ns.adobe.com/AdobeSVGViewerExtensions/3.0/"
	 x="0px" y="0px" width="33.8px" height="11.7px" viewBox="0 0 33.8 11.7" style="enable-background:new 0 0 33.8 11.7;"
	 xml:space="preserve">
<style type="text/css">
	.st0{fill:#DB9E8C;}
	.st1{fill:#AA6858;}
</style>
<defs>
</defs>
<path id="XMLID_2_" class="st0" d="M6.5,4.6c0,0,1.5-2.5,3.8-3.9s3.8-0.3,5.3,0.7c1.4,1,2.6,0.4,4.3-0.5c1.6-1,5-2,9.3,2.6
	C31,4.9,31,4.9,31,4.9s-4.3,7.5-12.9,6.7S7.1,7.3,6.5,4.6z"/>
<path id="XMLID_1_" class="st1" d="M0,6.3c-0.1-0.5,0-3.9,0-3.9s-0.2,0,2.5,0.8s8.1,1.9,17.1,1.2s14.1-2,14.1-2v3.7l-0.9-1.8
	c0,0-20.5,5.6-31.2,0C-0.2,6.3,0,6.3,0,6.3z"/>
</svg>
