<!-- Generator: Adobe Illustrator 19.1.0, SVG Export Plug-In  -->
<svg version="1.1"
	 xmlns="http://www.w3.org/2000/svg" xmlns:xlink="http://www.w3.org/1999/xlink" xmlns:a="http://ns.adobe.com/AdobeSVGViewerExtensions/3.0/"
	 x="0px" y="0px" width="44.6px" height="71.4px" viewBox="0 0 44.6 71.4" style="enable-background:new 0 0 44.6 71.4;"
	 xml:space="preserve">
<style type="text/css">
	.st0{fill:#F7D3AF;}
</style>
<defs>
</defs>
<path id="XMLID_1_" class="st0" d="M42.8,67.2c-4.3-3.2-10.9-2.5-10.9-2.5s4.6-0.9,4.3-2.1c-0.2-1.1-2.3-3.9-4.6-4.3
	s-2.3-0.5-2.3-0.5s2.7-2.5,0.5-4.1c-2.3-1.6-4.6-2.7-4.6-2.7s-1.6-13.6-2.6-20.2c0.4-0.7,0.9-1.3,1.7-1.2c0,0,1.8-0.9,3.2,1.6
	s1.4,7.5,3.4,10.7c2.1,3.2,3.9,3.6,5,3.2c1.1-0.5,2.7-1.6,0.9-7.8s-3.4-9.3-3-14.1s-1.8-9.1-3.9-10.9C28,10.4,20.4,0,20.4,0L0.3,7.7
	c0,0-0.6,20.5,0,26.9c0.6,6.4,2,7.3,5.2,14.4S7.9,61.3,11,63.3s4.5,2.5,4.5,2.5s0.2,5,4,5.5s15.9-0.7,19.7,0
	C43,72,47.1,70.4,42.8,67.2z"/>
</svg>
