<!-- Generator: Adobe Illustrator 19.1.0, SVG Export Plug-In  -->
<svg version="1.1"
	 xmlns="http://www.w3.org/2000/svg" xmlns:xlink="http://www.w3.org/1999/xlink" xmlns:a="http://ns.adobe.com/AdobeSVGViewerExtensions/3.0/"
	 x="0px" y="0px" width="140.7px" height="234.9px" viewBox="0 0 140.7 234.9" style="enable-background:new 0 0 140.7 234.9;"
	 xml:space="preserve">
<style type="text/css">
	.st0{fill:#3C424B;}
</style>
<defs>
</defs>
<path id="XMLID_1_" class="st0" d="M94.5,10.7c0,0-9.2-8.6-14.9-9.9s-36.2-3.8-54.8,21s-12.1,30-19.4,50.8s-6.7,30.3-1.5,45.1
	c0,0,4.3,8,13.5,16.9s6.9,18.6,0,30.3s-20.6,47.4,9.9,62.9c5.4,2,6.9,2,6.9,2s-13-12.5-4.3-31.1c-3.5,17.8,6.8,33.8,23.2,36
	c-1-6.8-1.8-17.3-1.8-17.3s6.9,5.7,6.5,17.3c7.8,0.7,15,1.1,19.7-7c1.3,6.8,1.7,7.3,1.7,7.3s8.8-4.3,10.3-11.1
	c-2.1,7.7-4,11.1-4,11.1s15.5-2.1,15.7-20.7c-0.8,9.6-1.5,19.3-2.2,20.7c5.5-3.4,15.9-6.5,17.6-15c-0.9,8.1-0.9,8.1-0.9,8.1
	s13.5-3.1,13.1-22.2c1.4,6.8,1.2,12.9,0,15.6c5.9-6.6,12.4-13.6,8-25c-4.5-11.4-12.9-13.2-10.8-23.5c2-10.3,9.3-14.5,12.3-24.6
	c3-10.1,3.6-18.5-0.7-29.4s-2-41.4-1.8-49.1s5-42.1-14.7-58.1S94.5,10.7,94.5,10.7z"/>
</svg>
