<!-- Generator: Adobe Illustrator 19.1.0, SVG Export Plug-In  -->
<svg version="1.1"
	 xmlns="http://www.w3.org/2000/svg" xmlns:xlink="http://www.w3.org/1999/xlink" xmlns:a="http://ns.adobe.com/AdobeSVGViewerExtensions/3.0/"
	 x="0px" y="0px" width="99.7px" height="147.5px" viewBox="0 0 99.7 147.5" style="enable-background:new 0 0 99.7 147.5;"
	 xml:space="preserve">
<style type="text/css">
	.st0{fill:#242628;}
</style>
<defs>
</defs>
<path id="XMLID_1_" class="st0" d="M58,23.5c3.3,12.9,7.4,32.9,7.1,45.4c-0.3,12.5-0.8,40.2-2,51.2c-1.2,11,11.7,42.2,36.5,19
	c-6,0.4-20.2-5.2-20.4-20.3c-0.2-15.1,5.5-58.1,4.9-69.5s0-47.3-24.7-49.3C42.3-1.3,35.7,16.3,35.7,16.3s-5-9.9-18.3-5.9
	c0,0-12.1,3.7-17.5,13.4C8.7,20.5,34.2,16.9,58,23.5z"/>
</svg>
