<!-- Generator: Adobe Illustrator 19.1.0, SVG Export Plug-In  -->
<svg version="1.1"
	 xmlns="http://www.w3.org/2000/svg" xmlns:xlink="http://www.w3.org/1999/xlink" xmlns:a="http://ns.adobe.com/AdobeSVGViewerExtensions/3.0/"
	 x="0px" y="0px" width="157.4px" height="264.5px" viewBox="0 0 157.4 264.5" style="enable-background:new 0 0 157.4 264.5;"
	 xml:space="preserve">
<style type="text/css">
	.st0{fill:#E46C61;}
	.st1{fill:#C65A55;}
	.st2{fill:#DDB492;}
	.st3{fill:#EF7F7B;}
	.st4{fill:#F1EFEF;}
</style>
<defs>
</defs>
<g id="XMLID_1_">
	<g id="XMLID_7_">
		<path id="XMLID_14_" class="st0" d="M2.9,242.9c0,0,10.5-36,25-75.5c4-11,0-17-4-21s2.5-6,3.5-12s-8.3-19.5-11.2-34.8
			s-3.8-29.7-3.8-29.7L2.9,48.3c0,0-8-20,2.5-26s70.5-22,110.5-3.5c15.5,7,13.5,20.5,10.5,38c5.5,14.5,14,23.6,8.5,37.3
			s-11.5,18.1-11.5,18.1s1,24.6,2.5,33.1s13.9,20,13.2,25c-0.7,5-6.7,8.1-4.2,11.5c2.5,3.5,21.5,54,22.5,64.5
			C136.4,256.9,45.4,276.9,2.9,242.9z"/>
		<path id="XMLID_13_" class="st1" d="M90.7,186.8c-2.7-0.3,42.7-9,47.5-16.5c-3.2,6.2-4.8,7.5-4.8,7.5l3.4,10
			C136.7,187.9,112.9,189.3,90.7,186.8z"/>
		<path id="XMLID_12_" class="st1" d="M134.6,78.2c0,0,0.1,14.1-15.6,17.6s-50.5,9.5-68.1,3.5s-14.7,0.5-10.9,8.5
			s42.4,18.8,82.3,4.4C133.5,102.9,141.8,85.1,134.6,78.2z"/>
		<path id="XMLID_11_" class="st1" d="M22.5,141.6c0,0,2.7,5.3,12.1,7.8s12.4,4.6,3.1,9s-0.9,9.5,6.7,12s15.6,2.4,15.6,2.4
			s-15.4,3.6-33-5.4C28.6,157.9,22.5,141.6,22.5,141.6z"/>
		<path id="XMLID_10_" class="st1" d="M4.3,234.9c0,0,65.4,42.5,148.2,3.5c2,8.9,2,8.9,2,8.9s-98.2,41.6-152.7-4.4
			C4.3,234.9,4.3,234.9,4.3,234.9z"/>
		<path id="XMLID_9_" class="st1" d="M16.4,197.4c0.4-1.1,15.9,9.6,23.7,8.5c-5.7,13.4-5.7,13.4-5.7,13.4l-22.1-9.6l-5.7-3.9
			L16.4,197.4z"/>
		<polygon id="XMLID_8_" class="st1" points="133.5,190.5 137.8,204.6 145.6,200.6 135.5,186.9 		"/>
	</g>
	<path id="XMLID_6_" class="st2" d="M77.8,12.1c0,0-4.7-12.8-16.9-12.1C48.7,0.7,45.3,12.1,45.3,12.1s2.1,14.9,14,22.9
		C80.1,49,77.8,12.1,77.8,12.1z"/>
	<path id="XMLID_5_" class="st3" d="M47.9,16.4c-4.7-5.3-2.2-6.7-3.7-10.1C42,1.5,11.3,17.7,11.3,17.7L38.7,21l-8.1,5.4
		c0,0,31.6,11.7,34.4,13.4c2.8,1.7,13,42,13,42l15-3.6c0,0-16.1-38.1-16.2-39c-0.1-0.8,14.4-16,21.4-17.4
		c-8.8-3.2-17.6-3.2-17.6-3.2s11.3-6.8,19.3-8.4c-8.5-3-23.2-3.8-23.2-3.8S74,29.7,71.4,33C63.3,25,47.9,16.4,47.9,16.4z"/>
	<ellipse id="XMLID_4_" class="st4" cx="78.9" cy="57.7" rx="2.3" ry="2.1"/>
	<ellipse id="XMLID_3_" class="st4" cx="85.1" cy="72.3" rx="2.3" ry="2.1"/>
	<ellipse id="XMLID_2_" class="st4" cx="72.3" cy="43.7" rx="2.3" ry="2.1"/>
</g>
</svg>
