<?xml version="1.0" encoding="utf-8"?>
<!-- Generator: Adobe Illustrator 19.1.0, SVG Export Plug-In . SVG Version: 6.00 Build 0)  -->
<svg version="1.1" id="Layer_1" xmlns="http://www.w3.org/2000/svg" xmlns:xlink="http://www.w3.org/1999/xlink" x="0px" y="0px"
	 viewBox="0 0 252 963" style="enable-background:new 0 0 252 963;" xml:space="preserve">
<style type="text/css">
	.st0{fill:#3D434C;}
	.st1{fill:#F6D3B0;}
	.st2{fill:#DDB492;}
	.st3{fill:#F6D2B2;}
	.st4{fill:#738F76;}
	.st5{fill:#607862;}
	.st6{fill:#6B6D87;}
	.st7{fill:#E46C61;}
	.st8{fill:#C75A56;}
	.st9{fill:#EE7F7B;}
	.st10{fill:#DEB590;}
	.st11{fill:#F1EFEF;}
	.st12{fill:#DF6C63;}
	.st13{fill:#242628;}
	.st14{fill:#4D535D;}
</style>
<path id="XMLID_1201_" class="st0" d="M138.8,29.1c0,0,0-7.7-6.1-9.1c-6.1-1.3-40.8-5.9-60.7,18.9S59.9,69.2,52,90s-16,31.3-10.5,46
	c0,0,4.6,8,14.5,16.9s7.5,18.6,0,30.3s-22.2,47.4,10.6,62.9c5.8,2,7.4,2,7.4,2s-14-12.5-4.6-31.1c-3.8,17.8,7.3,33.8,24.9,36
	c-1.1-6.8-1.9-17.3-1.9-17.3s7.5,5.7,7,17.3c8.3,0.7,16.1,1.1,21.2-7c1.4,6.8,1.8,7.3,1.8,7.3s9.4-4.3,11.1-11.1
	c-2.3,7.7-4.3,11.1-4.3,11.1s16.6-2.1,16.9-20.7c-0.9,9.6-1.6,19.3-2.3,20.7c5.9-3.4,17.1-6.5,18.9-15c-1,8.1-1,8.1-1,8.1
	s14.5-3.1,14-22.2c1.5,6.8,1.3,12.9,0,15.6c6.4-6.6,13.4-13.6,8.5-25c-4.8-11.4-13.8-13.2-11.6-23.5c2.2-10.3,10-14.5,13.2-24.6
	c3.2-10.1,3.9-18.5-0.7-29.4s-2.2-41.4-2-49.1s0.7-40.6-20.5-56.6S138.8,29.1,138.8,29.1z"/>
<ellipse id="XMLID_1055_" class="st1" cx="125" cy="425" rx="68.6" ry="43.5"/>
<path id="XMLID_1057_" class="st1" d="M197.7,433.5C197.7,433.5,197.7,433.5,197.7,433.5c0-16.9-13.7-30.7-30.7-30.7
	c-16.9,0-30.7,13.7-30.7,30.7c0,2.1,0.2,4.1,0.6,6.1c-7.8,44-8.1,155.3-0.6,201.8c29.2,27.8,39.7,0,39.7,0s1.8-10,4-20.2
	C201.8,523.8,200.1,417.9,197.7,433.5z"/>
<path id="XMLID_1038_" class="st1" d="M52.2,435.1C52.2,435.1,52.2,435.1,52.2,435.1c-0.9-16.9,12.1-31.3,29.1-32.2
	c16.9-0.9,31.3,12.1,32.2,29c0.1,2.1,0,4.1-0.3,6.1c10.1,43.5,16.1,154.7,11,201.5c-27.8,29.3-39.6,2-39.6,2s-2.3-9.9-5.1-19.9
	C52.7,525.5,49,419.6,52.2,435.1z"/>
<path id="XMLID_1059_" class="st1" d="M124,645.8C124,645.8,124,645.8,124,645.8c1.3-2.6,2-5.6,2-8.7c0-11-8.9-19.8-19.8-19.8
	c-11,0-19.8,8.9-19.8,19.8c0,0-22.5,77.9-11,135.9c11.5,58,10,77.8,11,92.3c7,23,16,6.7,18.8,1.6c0,0-0.5-19.3,0-36.6
	c0.5-17.3,11.1-75.3,12.6-94C120.4,704.3,130.4,663.4,124,645.8z"/>
<path id="XMLID_1058_" class="st1" d="M109.8,906.5c-2.8-3.5-3.9-12.8-3.5-16.2c0.5-3.5-1.3-12.9-1.3-12.9c0.9-1.6,1.3-3.4,1.3-5.3
	c0-6.1-5-11.1-11.1-11.1c-6.1,0-11.1,5-11.1,11.1c0,2.3,0.7,4.5,1.9,6.3h0c0,0,0.3,5.4-1.9,11.4s-5,9.2-6,15s-0.2,25.8,10.8,36.5
	s17-5,19.8-10.2S112.6,910,109.8,906.5z"/>
<path id="XMLID_1061_" class="st1" d="M137,645.2C137,645.2,137,645.2,137,645.2c-1.2-2.7-1.8-5.7-1.7-8.8
	c0.4-10.9,9.6-19.5,20.6-19.1c10.9,0.4,19.5,9.6,19.1,20.6c0,0,19.6,78.6,5.9,136.2c-13.7,57.5-12.9,77.3-14.5,91.9
	c-7.9,22.8-16.2,6.1-18.8,0.9c0,0,1.2-19.2,1.4-36.6c0.2-17.3-8.2-75.6-9.1-94.4C138.4,703.7,129.9,662.5,137,645.2z"/>
<path id="XMLID_1060_" class="st1" d="M141.4,906.1c2.9-3.4,4.4-12.6,4.1-16.1c-0.3-3.5,1.8-12.9,1.8-12.9c-0.8-1.6-1.2-3.4-1.1-5.3
	c0.2-6.1,5.4-10.9,11.5-10.7c6.1,0.2,10.9,5.4,10.7,11.5c-0.1,2.3-0.9,4.5-2.2,6.2h0c0,0-0.5,5.4,1.5,11.5c2.1,6.1,4.7,9.4,5.5,15.2
	c0.8,5.8-0.7,25.7-12.1,36.1c-11.4,10.3-16.8-5.6-19.4-11C139.2,925.3,138.5,909.5,141.4,906.1z"/>
<path id="XMLID_1153_" class="st2" d="M161.3,217.5c-0.7-10.7,8.2-22.1,18.9-22.8c10.7-0.7,20,7.5,20.7,18.2c0,0,18.6,72,21.4,84.9
	s12.2,68.6,11.8,78.7c-0.4,10-24,17-28.4-4.7c-4.4-21.8-25.5-125.6-25.5-125.6s-1.6-9.4-8.5-13.5C171,232.3,161.8,224.4,161.3,217.5
	z"/>
<path id="XMLID_1151_" class="st2" d="M81,213.2c0.1-10.8-9.6-21.5-20.3-21.5c-10.8,0-19.5,8.7-19.5,19.5c0,0-14,73-16,86
	s-7.8,69.3-6.8,79.3s25,15.5,28-6.5s17.5-127,17.5-127s1-9.5,7.6-14C72.3,228.6,81,220.1,81,213.2z"/>
<path id="XMLID_1168_" class="st3" d="M184.3,191.5c0.1-0.5-6.8-0.9-6.7-1.4c-99.9-16.4-121.9,3.2-121.9,3.2l0,0
	c-7.7,3-13,9.4-13,16.8c0,10.3,10.2,18.6,22.8,18.6l110-1.4c12.6,0,22.8-8.3,22.8-18.6C198.4,201,192.6,194.3,184.3,191.5z"/>
<g id="XMLID_1140_">
	<ellipse id="XMLID_1037_" class="st4" cx="126.1" cy="430.4" rx="77.8" ry="48.9"/>
	<path id="XMLID_1063_" class="st4" d="M49.7,425.7c0,0,2.6,117.3,25.2,196.6c4,15.3,2,19.3,0,35.3s-7.3,42.7-8,63.3
		c25.3,10.7,93.9,17.3,126.6,0c-2.6-19.3-8.6-64.6-10.6-71.9c4.7-6.7,1.5-3.1-0.7-15.4c9.3-8,5.7-4.4,3.5-16.4
		c4.5-22.3,24.9-167,18.2-186.8C165.6,435.6,49.7,425.7,49.7,425.7z"/>
	<path id="XMLID_1062_" class="st5" d="M61.7,402.8c0,0-19.2,40-2.7,72.8C61.6,506,70.3,602,79.4,621.7c3.1,15.7-4.9,38.6-4.5,35.9
		s3.3-24.4,0-35.3s-32-154.7-26.7-188.8C52.1,405.5,61.7,402.8,61.7,402.8z"/>
	<path id="XMLID_1065_" class="st5" d="M188.3,627c0,0-17.2,9-30.7,6.5c11.5,2.5,24.7,0.2,24.7,0.2S188.8,629.2,188.3,627z"/>
	<path id="XMLID_1064_" class="st5" d="M184.5,641.8c0,0-5.6,8.5-19.5,11.1C177.6,654,186.7,649.9,184.5,641.8z"/>
	<path id="XMLID_1066_" class="st6" d="M157.6,443.6c3.5,1.3,29.3-3.1,40.1-10.1c-0.1,10.4-0.1,10.4-0.1,10.4s-21.2,8-37.6,8
		C157.6,443.6,157.6,443.6,157.6,443.6z"/>
	<path id="XMLID_1067_" class="st6" d="M167.1,462.2c0,0,21.9-0.9,26.5-5.1c0,8.9,0,8.9,0,8.9s-18,1.5-26.5,2.5
		C166.6,464.5,167.1,462.2,167.1,462.2z"/>
	<path id="XMLID_1069_" class="st6" d="M97.7,443.6c-3.5,1.3-29.3-3.1-40.1-10.1c0.1,10.4,0.1,10.4,0.1,10.4s21.2,8,37.6,8
		C97.7,443.6,97.7,443.6,97.7,443.6z"/>
	<path id="XMLID_1070_" class="st6" d="M61.7,457.1c4.5,4.1,26.5,5.1,26.5,5.1s0.5,2.3,0,6.3c0,0-21.8-0.5-26.5-4.2
		C61.7,457.1,61.7,457.1,61.7,457.1z"/>
	<path id="XMLID_1068_" class="st6" d="M86.2,467.1c0,0-8.6,9.8-5.3,14.1C87,488.9,94.8,481,86.2,467.1z M85.1,480.8
		c-1.5,0-2.8-1.3-2.8-3s1.2-3,2.8-3c1.5,0,2.8,1.3,2.8,3S86.6,480.8,85.1,480.8z"/>
	<path id="XMLID_1073_" class="st6" d="M161.1,449.8c0,0-8.6,9.8-5.3,14.1C161.9,471.5,169.6,463.7,161.1,449.8z M160,463.5
		c-1.5,0-2.8-1.3-2.8-3s1.2-3,2.8-3c1.5,0,2.8,1.3,2.8,3C162.7,462.1,161.5,463.5,160,463.5z"/>
	<path id="XMLID_1076_" class="st6" d="M96.1,449.8c0,0-8.6,9.8-5.3,14.1C96.9,471.5,104.6,463.7,96.1,449.8z M94.9,463.5
		c-1.5,0-2.8-1.3-2.8-3s1.2-3,2.8-3c1.5,0,2.8,1.3,2.8,3C97.7,462.1,96.5,463.5,94.9,463.5z"/>
	<path id="XMLID_1079_" class="st6" d="M168,464.5c0,0-8.6,9.8-5.3,14.1C168.8,486.3,176.5,478.4,168,464.5z M166.8,478.2
		c-1.5,0-2.8-1.3-2.8-3c0-1.7,1.2-3,2.8-3c1.5,0,2.8,1.3,2.8,3C169.6,476.9,168.4,478.2,166.8,478.2z"/>
</g>
<g id="XMLID_1473_">
	<g id="XMLID_1193_">
		<path id="XMLID_1056_" class="st7" d="M185.8,352.8c-3.3-8.1,7.6-10.8,1.3-16.1c-8.7-7.3-9.9-11.6-12-20.1
			c-2-20.6-2.7-30.6-2.7-30.6s6.3-11.7,9-24.1c2.2-10.4-5.2-33.8-7.6-41c-2-4-5.3-8.9-5.3-14.5c0-9.3,4.3-14.8-3.7-18.7
			c-11.9-5.8-81.1-7.6-94.7,0.5c-7.7,2.6,0.9,7.1,0.9,15.7c0,6.1-4.9,9.7-6.8,18c-1.6,5.5-8.4,29.9-6,40.9c2.7,12.4,9,24.1,9,24.1
			l4.7,11.9c1.3,10.7,1.9,21.3-4.1,26.7c0,7.5,7.1,10,7.1,10S43.4,401,44.6,420.8c33.2,9.8,123.3,11,158.5-5.2
			C203.1,415.6,189.1,358.9,185.8,352.8z"/>
		<g id="XMLID_1149_">
			<path id="XMLID_1167_" class="st8" d="M180.2,249.3c0,0,0.3,23.5-29.7,28.5s-82.2,3.7-93.3-15.2c3.4,11.3,11.3,30,11.3,30
				s7.6,4.1,21.6,6.6s65.4,6.2,81.4-13.4S180.2,249.3,180.2,249.3z"/>
			<path id="XMLID_1159_" class="st9" d="M75.8,180.1c0,0,27.7-15.1,61.4-2.2c11.2,4.2,18.7,4.7,18.7,4.7s-19,7-20.3,8.9
				c14,2.6,16.3,7,16.3,7s-25.2,6.2-28.8,10.2c-0.9,8.3,2.3,34.9,2.3,34.9h-20.9c0,0,6.7-28.6,5.4-34.6c-10.3-4.7-28.3-4.7-28.3-4.7
				s7.3-8.8,19-12.9C86.5,186.4,75.8,180.1,75.8,180.1z"/>
			<path id="XMLID_1152_" class="st10" d="M96.5,180.4c0,0,4.3,7.6,13.7,15.2c9.3,7.7,7,7.7,7,7.7s8.4-9.1,12.7-13.2
				c4.3-4.1,7.3-7.4,7.3-7.4S117.5,169.9,96.5,180.4z"/>
			<ellipse id="XMLID_1150_" class="st11" cx="117.1" cy="211.7" rx="2.3" ry="2.1"/>
			<ellipse id="XMLID_1154_" class="st11" cx="117.1" cy="225" rx="2.3" ry="2.1"/>
			<ellipse id="XMLID_1155_" class="st11" cx="116.8" cy="238.2" rx="2.3" ry="2.1"/>
			<path id="XMLID_1141_" class="st8" d="M67.7,325.3c0,0,13.4,3.5,19.1,4s-13.1,9.5-7.7,11.5c5.4,2,19.7,7.6,19.7,7.6
				s-21.4,3.4-28.6-3.1c4.6-10,4.6-10,4.6-10s-8.9-2.1-6.8-7.5C70.1,322.5,67.7,325.3,67.7,325.3z"/>
			<path id="XMLID_1029_" class="st8" d="M187.1,336.7c0,0-3.7,7-13.2,11.1s-26,5.5-24,6.6s17.3,1.5,26.6,0s5.9,8.4,10.6,13
				c4.7,4.6,5.3,6.9,5.3,6.9s-7-21.9-5.5-24.9C188.5,346.3,190.5,339.8,187.1,336.7z"/>
			<path id="XMLID_1146_" class="st8" d="M56.5,377.6L42,390.8c0,0,11.8,9.5,18.7,10.5c2.8-9.5,7-16.6,7-16.6L56.5,377.6z"/>
			<path id="XMLID_1147_" class="st8" d="M181.9,377.6c0.6,2.7,4.1,16.7,4.1,16.7l16.8-4.3l-10.4-15.9L181.9,377.6z"/>
			<path id="XMLID_1148_" class="st8" d="M44.6,409.8c0,0,76,24.6,156.2-3.7c4.7,9.7,4.7,9.7,4.7,9.7s-78.5,30-163.5,7
				C45.1,413.9,44.6,409.8,44.6,409.8z"/>
		</g>
	</g>
</g>
<g id="XMLID_1156_">
	<circle id="XMLID_1046_" class="st1" cx="30.9" cy="383.4" r="14.1"/>
	<path id="XMLID_1047_" class="st1" d="M16.8,381.8c0,0-8.2,25.7-1.5,56.3s8.3,49.1,8.3,49.1s-1.7,12.6,8,13.3
		c9.7,0.7,12.5-5.9,12.5-14.6c0-8.7-0.6-31.7,0.3-47.7s2.8-41.9-2.1-53.5C29.5,383.2,16.8,381.8,16.8,381.8z"/>
</g>
<g id="XMLID_1158_">
	<circle id="XMLID_1157_" class="st1" cx="219.9" cy="374.7" r="14.1"/>
	<path id="XMLID_1048_" class="st1" d="M228.4,386c0,0-17.9,20.2-47.7,30c-29.8,9.8-46.5,17.9-46.5,17.9s-10,7.9-15.5-0.1
		c-5.5-8-1.3-13.7,6.2-18.2c7.5-4.4,27.6-15.7,40.9-24.6c13.3-8.9,34.6-23.7,47.1-25.4C220.7,375.7,228.4,386,228.4,386z"/>
</g>
<g id="XMLID_1169_">
	<circle id="XMLID_1171_" class="st1" cx="129.9" cy="428.2" r="11.7"/>
	<path id="XMLID_1170_" class="st1" d="M130.5,417.8c0,0-10.6,2.4-17.5,6.6c-6.9,4.3-7.7,7.4-10,10.1c-2.3,2.7-5.4,7.2-7,8.8
		c-1.6,1.6-4.4,14.4-5.3,17.8c-0.9,3.5-1.3,8.5,4.1,8c2.8,5.6,2.3,7.4,8.2,4.8c6.8,5.1,8.7,6.9,12.2,2.9c2.5-5.8,2.5-7.2,2.5-5.8
		c0,1.3-1.2,6.7,1.6,8c2.8,1.3,6.1-2.7,7.4-8c7.7-8.2,8.6-21.3,12-25.5s3-14.7,3-14.7L130.5,417.8z"/>
</g>
<path id="XMLID_1172_" class="st1" d="M66.1,553.8c-4.3-3.2-10.9-2.5-10.9-2.5s4.6-0.9,4.3-2.1c-0.2-1.1-2.3-3.9-4.6-4.3
	c-2.3-0.5-2.3-0.5-2.3-0.5s2.7-2.5,0.5-4.1s-4.6-2.7-4.6-2.7S47,524,46,517.4c0.4-0.7,0.9-1.3,1.7-1.2c0,0-1.2,0.1,0.2,2.6
	c1.4,2.5,1.4,7.5,3.4,10.7s3.9,3.6,5,3.2c1.1-0.5,2.7-1.6,0.9-7.8c-1.8-6.1-3.4-9.3-3-14.1s1.2-10.1-0.9-11.9
	c-2.1-1.8-9.7-12.3-9.7-12.3l-20.1,7.7c0,0-0.6,20.5,0,26.9c0.6,6.4,2,7.3,5.2,14.4s2.4,12.3,5.6,14.4c3.1,2.1,9.5,2.5,9.5,2.5
	s0.2,5,4,5.5c3.8,0.5,10.9-0.7,14.7,0C66.4,558.6,70.5,557,66.1,553.8z"/>
<path id="XMLID_1173_" class="st7" d="M85,889.8c0,0-3.5,15.6,2.9,23.6c6.4,8,18.7,2.9,20-14.9c-0.6-8.2-0.6-8.2-0.6-8.2l0,0
	l1.9-0.5c0,0-1,2.9,0,6.9c1,4,1.6,9.7,3.2,12.3c1.6,2.7,3.3,15.3-3,27.7c-6.3,12.4-13.6,13.2-20,8.3c-6.3-4.9-13.4-25.2-13.1-30.9
	C76.5,908.4,82.5,891.9,85,889.8z"/>
<path id="XMLID_1174_" class="st7" d="M165.9,889.8c0,0,3.5,15.6-2.9,23.6c-6.4,8-18.7,2.9-20-14.9c0.6-8.2,0.6-8.2,0.6-8.2l0,0
	l-1.9-0.5c0,0,1,2.9,0,6.9c-1,4-1.6,9.7-3.2,12.3c-1.6,2.7-3.3,15.3,3,27.7c6.3,12.4,13.6,13.2,20,8.3c6.3-4.9,13.4-25.2,13.1-30.9
	S168.4,891.9,165.9,889.8z"/>
<path id="XMLID_1251_" class="st2" d="M101.4,155.1v12.3c0,0-1.1,24.3,16.7,24.3s16.3-24.1,16.3-24.1v-11.2V142
	c0,0,1.4-7.8-14.3-8.1c-20.3-0.4-18.4,9.7-18.4,9.7L101.4,155.1z"/>
<g id="XMLID_1234_">
	<g>
		<path class="st3" d="M176.5,98.7c0.1,2.4-1.7,7.5-4.9,10.2c-5.4,4.5-2.2,5.7-4.1,8.3c-1.6,2.2-4.7,3.6-7.6,2.9
			c-3.5,13.1-17,28.3-30.1,37.8c-15,10.9-23.7,1-23.7,1S78.2,142,72.9,120.1c-2.9,0.6-6-0.8-7.5-2.9c-1.9-2.7,1.3-3.8-4.1-8.3
			c-3.2-2.7-5-7.8-4.9-10.2c0.1-2.6-0.1-8.3,6.6-7.3c2.2,0.3,4.1,1.4,5.6,2.6c2.3,8.2,6.2,20.1,10,21.5c-6.4-35.6,2-54.7,2-54.7
			s10.3-11.4,35.3-13.1c23.1-1.6,37.8,5.4,46.1,11.7c3,11.5,2.1,21.8,2.1,21.8s-0.7,6.5-1.5,14.7c1.7-1.9,4.2-3.9,7.4-4.4
			C176.6,90.3,176.4,96,176.5,98.7z"/>
		<path class="st0" d="M136.1,29.4c15.9,4.9,22.9,18.1,25.9,29.8c-8.2-6.3-23-13.3-46.1-11.7c-25,1.7-35.3,13.1-35.3,13.1
			s-8.3,19.1-2,54.7c-3.9-1.4-7.8-13.3-10-21.5c0.4,0.3,0.8,0.7,1.1,1c-0.9-6.3-1.8-11.5-1.8-11.7C62.5,35.3,100.2,18.3,136.1,29.4z
			"/>
	</g>
	<g>
	</g>
</g>
<path id="XMLID_1233_" class="st2" d="M112.9,122.7c0,0,6.1,1.2,8.8-2.6c2.6-3.8,1.2-4.7,0-7c-1.2-2.3-1.8-9.3-0.5-15.1
	c0.4,6.1,0.4,11.5,2.6,14.7c2.3,3.2,3.4,5.3,2.8,7.8s-4.1,6.6-7.9,6.8c-3.8,0.2-8.8-0.5-9.7-7.1
	C110.7,122.1,112.9,122.7,112.9,122.7z"/>
<path id="XMLID_1232_" class="st2" d="M161.8,101.1l-0.8,11.4c0,0,2.2,1.4,3.5-2.5c1.3-3.9,4.9-5.3,5.7-7.8
	C171,99.7,169.1,94.5,161.8,101.1z"/>
<path id="XMLID_1231_" class="st2" d="M70.3,101.6l2.1,13.9c0,0-4.3-1.6-5.6-5.5c-1.3-3.9-4.9-5.3-5.7-7.8
	C60.3,99.7,63,95,70.3,101.6z"/>
<circle id="XMLID_1230_" class="st12" cx="66.9" cy="119.1" r="3.7"/>
<circle id="XMLID_1229_" class="st12" cx="161.6" cy="119.1" r="3.7"/>
<path id="XMLID_1228_" class="st13" d="M149.7,53.1c3.6,12.9,8.2,32.9,7.9,45.4c-0.3,12.5-3.6,42.1-4.9,53.1
	c-1.3,11,9.9,40.4,37.3,17.1c-6.6,0.4-19.7-4.6-20-19.7s3.1-58.7,2.4-70s-2.1-47.1-21.1-49.3S125,45.8,125,45.8s-5.5-9.9-20.2-5.9
	c0,0-13.4,3.7-19.3,13.4C95.2,50,123.4,46.4,149.7,53.1z"/>
<path id="XMLID_1227_" class="st14" d="M127.6,38.7c0,0-3.4-8.2-14.6-12s-34.8,4.1-40.6,13.5c-5.9,9.4-9.4,19.6-10.5,26.1
	C60.8,72.8,60.6,88,57.7,93s-11.1,25.3-8.3,34.9c2.8,9.6,11.4,16.4,17,20.3s14.8,12,11.3,24.6c-3.5,12.6-8.6,22.8-8.5,30.3
	c0,7.1,3.5,16.4,3.5,16.4s-1.8-12.1,0.9-20c2.7-7.9,12.5-23.5,10.7-33.4s-0.7-15.2-14.5-26c-13.8-10.8-9.4-21.3-7.9-26.4
	c1.6-5.1,10.3-28.2,14.3-37.6c4.1-9.4,14.7-29.4,22.6-32.7c7.9-3.2,26.5-1.9,26.9-2.2S127.6,38.7,127.6,38.7z"/>
<path id="XMLID_1224_" class="st0" d="M156.1,82.1c0,0-3.5-8-15.1-5.7c-11.6,2.3-11.3,8.3-9.4,8.9c2,0.5,4.4-1.3,7.5-3.3
	C142.2,80,148.4,76.9,156.1,82.1z"/>
<path id="XMLID_1223_" class="st0" d="M78.3,78.3c0,0,6.3-5.4,13.6-4.8c7.3,0.5,12.2,5.9,12.7,7.1c0.5,1.2-0.4,5-3.8,3
	s-4.8-5.7-8.8-6.5C88.1,76.4,78.3,78.3,78.3,78.3z"/>
<path id="XMLID_1216_" class="st2" d="M138.8,88.2c-0.6,0.2,10.5,1.6,12.3,2.8C148.5,87.7,143.2,87,138.8,88.2z"/>
<path id="XMLID_1215_" class="st2" d="M85.4,92.3c-0.2,0.3,8.9-3.8,14.1-2.5C95.5,87.7,88.3,87.1,85.4,92.3z"/>
</svg>
