<?xml version="1.0" encoding="utf-8"?>
<!-- Generator: Adobe Illustrator 19.1.0, SVG Export Plug-In . SVG Version: 6.00 Build 0)  -->
<svg version="1.1" id="Layer_1" xmlns="http://www.w3.org/2000/svg" xmlns:xlink="http://www.w3.org/1999/xlink" x="0px" y="0px"
	 viewBox="0 0 292 552" style="enable-background:new 0 0 292 552;" xml:space="preserve">
<style type="text/css">
	.st0{fill:#3E444D;}
	.st1{fill:#B4E1E6;}
	.st2{fill:#273449;}
	.st3{fill:#1F2A3F;}
	.st4{fill:#9C6D4A;}
	.st5{fill:#84593B;}
	.st6{fill:#BA813F;}
	.st7{fill:#B3E1E6;}
	.st8{opacity:0.65;fill:#FFFFFF;}
	.st9{opacity:0.1;fill:#010101;}
	.st10{fill:#D1A992;}
	.st11{fill:#B48E78;}
	.st12{fill:#DDB492;}
</style>
<path id="XMLID_1201_" class="st0" d="M173.8,26.9c0,0,0-7.7-6.1-9.1c-6.1-1.3-40.8-5.9-60.7,18.9S94.9,67,87,87.8s-16,31.3-10.5,46
	c0,0,4.6,8,14.5,16.9s7.5,18.6,0,30.3c-7.5,11.7-22.2,47.4,10.6,62.9c5.8,2,7.4,2,7.4,2s-14-12.5-4.6-31.1
	c-3.8,17.8,7.3,33.8,24.9,36c-1.1-6.8-1.9-17.3-1.9-17.3s7.5,5.7,7,17.3c8.3,0.7,16.1,1.1,21.2-7c1.4,6.8,1.8,7.3,1.8,7.3
	s9.4-4.3,11.1-11.1c-2.3,7.7-4.3,11.1-4.3,11.1s16.6-2.1,16.9-20.7c-0.9,9.6-1.6,19.3-2.3,20.7c5.9-3.4,17.1-6.5,18.9-15
	c-1,8.1-1,8.1-1,8.1s14.5-3.1,14-22.2c1.5,6.8,1.3,12.9,0,15.6c6.4-6.6,13.4-13.6,8.5-25c-4.8-11.4-13.8-13.2-11.6-23.5
	c2.2-10.3,10-14.5,13.2-24.6s3.9-18.5-0.7-29.4s-2.2-41.4-2-49.1s0.7-40.6-20.5-56.6S173.8,26.9,173.8,26.9z"/>
<path class="st1" d="M202.8,197.4c-2.1-11-7.2-17.5-10.9-21c-5.8-5.4-14.7-2.7-45.5-3c0,0-24.1-1.6-36.7,3.4
	c-7.9,3.1-10.3,13.2-10.1,25.1c-2.9,9-8.3,28.6-6.3,44.4c0.7,5.7,5.5,15.2,11.8,21c0.5,35.1-7.6,77.1-7.6,77.1l100-0.1
	c0,0-0.4-40.4,1.1-77c5.7-5.8,12.3-16.9,12.9-20.4C213,237.7,207.8,208.4,202.8,197.4z"/>
<path class="st2" d="M191.1,214.3c0-14.1,11-25.6,24.7-25.6s24.7,11.4,24.7,25.6c0,1.9,4.1,36.4,8.5,44.4
	c7.3,13.4,25,65.1,26.8,72.4c1.8,7.3,4.3,23.1-9.1,29.2c-13.4,6.1-25-7.9-29.2-21.9c-4.3-14-30.4-91.9-30.4-91.9
	S191.1,222.8,191.1,214.3z"/>
<path class="st2" d="M120.1,217.8c2.1-14-7.1-26.9-20.5-29c-13.5-2-26.1,7.6-28.2,21.6c-0.3,1.9-9.6,35.4-15.1,42.7
	c-9.2,12.1-34.5,60.6-37.4,67.6s-7.7,22.2,4.6,30.3c12.3,8,25.9-4.1,32.2-17.3c6.3-13.2,43.9-86.3,43.9-86.3
	S118.8,226.1,120.1,217.8z"/>
<g>
	<path id="XMLID_673_" class="st3" d="M150.3,437.8L150.3,437.8c-0.8-19.1-16.6-33.2-35.1-31.1c-18.3,2.1-39.4,20.3-37.6,38.9
		c0.2,2.3,1.3,5.6,1.9,7.6C76.3,499,91.2,596.7,93.8,634.6c29.4,37.3,52.5,2.6,52.5,2.6s2.7-7.8,2.9-16.2
		C151.7,520.9,152.3,420,150.3,437.8z"/>
	<path class="st2" d="M146.5,634.5c-12.8,11-24.3,11.6-24.3,11.6l-9.5-238.9C95,410.6,76,428,77.7,445.6c0.2,2.3,1.3,5.6,1.9,7.6
		C76.3,499,91.2,596.7,93.8,634.6c29.4,37.3,52.5,2.6,52.5,2.6s0.4-1.3,1-3.4C147.1,634,146.8,634.3,146.5,634.5z"/>
</g>
<g>
	<path id="XMLID_672_" class="st3" d="M155.2,439.6C155.2,439.6,155.2,439.6,155.2,439.6c0.8-19.1,16.6-33.2,35.1-31.1
		c18.3,2.1,39.4,20.3,37.6,38.9c-0.2,2.3-1.3,5.6-1.9,7.6c3.3,45.8-11.6,143.5-14.2,181.3c-29.4,37.3-52.5,2.6-52.5,2.6
		s-2.7-7.8-2.9-16.2C153.9,522.7,153.3,421.8,155.2,439.6z"/>
	<path class="st2" d="M159.1,636.4c12.8,11,24.3,11.6,24.3,11.6l9.5-238.9c17.6,3.4,36.7,20.8,34.9,38.4c-0.2,2.3-1.3,5.6-1.9,7.6
		c3.3,45.8-11.6,143.5-14.2,181.3c-29.4,37.3-52.5,2.6-52.5,2.6s-0.4-1.3-1-3.4C158.5,635.9,158.7,636.1,159.1,636.4z"/>
</g>
<path id="XMLID_579_" class="st3" d="M224.9,414.5c-2.5,24.2-26,46.1-57.9,51.3c-39.8,6.4-82.9-14-86.9-50.5
	c-4.5-41,41.5-69,88.9-60.4C205.6,361.5,227.5,388.4,224.9,414.5z"/>
<g>
	<polygon class="st3" points="110.9,351.8 112.4,347.5 187.3,347.5 190,353 	"/>
	<path class="st4" d="M100.7,350.3c0,0-4.2,23.7-3.5,24c0.7,0.2,110.8,1.1,110.8,1.1l-1.3-24.6L100.7,350.3z"/>
	<path class="st3" d="M116.9,348.4c0,0-2.4,24.4-0.3,29.8c3-0.3,3-0.3,3-0.3s0-25.6,1.8-29.5C116.9,348.4,116.9,348.4,116.9,348.4z"
		/>
	<path class="st3" d="M179,349.3c0,0,1.8,16.7,0.3,28.6c4.6,0.3,4.6,0.3,4.6,0.3s0-25-1.2-29.8C179.3,348.4,179,349.3,179,349.3z"/>
	<circle class="st5" cx="149.8" cy="363.7" r="1.8"/>
	<circle class="st5" cx="167.5" cy="363.7" r="1.8"/>
	<circle class="st5" cx="186" cy="363.7" r="1.8"/>
	<circle class="st5" cx="203.4" cy="364" r="1.8"/>
	<path class="st6" d="M165.4,349H140c-3.8,0-6.9,3.2-6.9,7v13.2c0,3.9,3.1,7,6.9,7h25.4c3.8,0,6.9-3.2,6.9-7V356
		C172.4,352.2,169.3,349,165.4,349z M167.6,368.3c0,2.6-2.1,4.7-4.6,4.7h-20.4c-2.5,0-4.6-2.1-4.6-4.7v-11.2c0-2.6,2.1-4.7,4.6-4.7
		h20.4c2.5,0,4.6,2.1,4.6,4.7V368.3z"/>
	<path class="st6" d="M168.1,365.8h-15.8c-1.2,0-2.1-1-2.1-2.1l0,0c0-1.2,1-2.1,2.1-2.1h15.8c1.2,0,2.1,1,2.1,2.1l0,0
		C170.2,364.8,169.3,365.8,168.1,365.8z"/>
</g>
<path class="st7" d="M106.3,299.7l-1,1.9l-8.8,17.5l4.9,8.5l-4.3,7.9l1.2,6.1l-15.8,42c0,0,29.2,0.6,46.3-1.2
	c13.7-9.6,25.6-35.3,25.6-35.3s12.2,33.5,26.8,36.5c14.6,3,34.7-0.6,34.7-0.6l-7.3-37.1l2.4-7.3l-5.5-5.5l0.6-6.7l-7.9-1.2
	L106.3,299.7z"/>
<path class="st8" d="M118.6,188c0,0-13.3,22.2,4.5,27.1c17.8,4.9,16.2,6.7,9.7,13.1c-6.5,6.4-5.2,9.7,4.9,13.4
	c10,3.7,20.4,18.9,17.5,32c1.6-21.9,2.3-28,15.2-31.7c13-3.7,25.6-5.5,14.3-12.5c-11.3-7-13.6-10.3-2.3-13.7
	c11.3-3.3,4.2-4.9,2.9-13.1c-1.3-8.2,13.6,4.6,14.6-9.4c1-14-21.1-20.7-21.1-20.7s-20.7,51.4-50.2,0.6
	C119.9,185.2,118.6,188,118.6,188z"/>
<path class="st2" d="M174.1,165.6l1.9,12.8l13.3,46.3l1.9,178.4c0,0,26.7,1.8,40.6-7.9c14-9.7-2.5-1.2-12.7-54.8s-14-59-9.5-76.1
	s0-45.7,1.3-54.8c1.3-9.1,7-23.7-4.4-28.6C195,176,174.1,165.6,174.1,165.6z"/>
<path class="st9" d="M94.3,255.1c0,0,12.4,15.7,28.4,17.3c16,1.6,44.6,3.6,56.1,1.6s28.4-5.1,35.9-15.9c-1.1,8.8,4.7,38.4-63.8,38.4
	C99.3,296.5,92.6,264.3,94.3,255.1z"/>
<g>
	<g id="XMLID_191_">
		<path id="XMLID_427_" class="st10" d="M243.1,346.3c-0.6,6.8,4.7,13.2,11.9,14.3c7.2,1.1,13.5-3.6,14.2-10.4s-4.7-13.2-11.9-14.3
			C250.1,334.8,243.7,339.4,243.1,346.3z"/>
		<path id="XMLID_392_" class="st10" d="M269.3,350.1c0,0-0.1,22.8-9.1,48.7c-9,26.1-14.1,41.5-14.1,41.5s-0.7,11.3-9.7,9.5
			c-9-1.7-10.3-8-8.7-15.5c1.6-7.5,3.8-28.4,5.9-42.3c2.1-13.9,4.4-40.6,11-49.4C256.6,344.4,269.3,350.1,269.3,350.1z"/>
	</g>
</g>
<path id="XMLID_190_" class="st10" d="M201,497.3c4.3-2.5,10.5-1.4,10.5-1.4s-4.3-1.1-4-2.1c0.3-1,2.4-3.3,4.6-3.5
	c2.2-0.2,2.2-0.2,2.2-0.2s-2.4-2.4-0.1-3.7c2.3-1.2,4.5-2.1,4.5-2.1s2.4-11.9,3.9-17.7c-0.3-0.7-0.8-1.2-1.5-1.2
	c0,0-1.7-0.9-3.1,1.2c-1.5,2.1-1.8,6.5-4,9.2s-3.9,2.9-5,2.4c-1-0.5-2.5-1.6-0.3-6.9c2.2-5.3,3.9-8,3.8-12.3
	c-0.1-4.3,2.4-7.9,4.4-9.4c2.1-1.5,10-10.1,10-10.1l18.5,8.3c0,0-0.9,18.2-1.9,23.8c-1,5.6-2.4,6.3-5.9,12.3
	c-3.5,6-3.2,10.7-6.3,12.3c-3.1,1.6-4.4,1.9-4.4,1.9s-0.5,4.4-4.1,4.5s-15-1.8-18.7-1.5S196.7,499.8,201,497.3z"/>
<path class="st2" d="M134.8,164.6l-1.8,12.8l-12.8,46.3L118.3,402c0,0-25.6,1.8-39-7.9s2.4-1.2,12.2-54.8s13.4-59,9.1-76.1
	c-4.3-17,0-45.7-1.2-54.8s-6.7-23.7,4.3-28.6C114.7,175,134.8,164.6,134.8,164.6z"/>
<g>
	<g id="XMLID_1021_">
		<path id="XMLID_1040_" class="st11" d="M37.1,322.8c4.6,2.2,6.9,10.6,4.9,18.7c-1.9,8.1-7.2,12.9-11.9,10.7s-6.9-10.6-4.9-18.7
			C27.1,325.3,32.4,320.6,37.1,322.8z"/>
		<path id="XMLID_1037_" class="st11" d="M30.1,352.3c0,0,14.8,9.5,34.8,10.8c20.2,1.4,32,2.5,32,2.5s7.6,3.9,9.7-6.3
			c2.1-10.3-1.5-14.3-6.9-15.7S80,335.6,70.2,332c-9.8-3.6-27.9-12.4-36-9C31,336.4,30.1,352.3,30.1,352.3z"/>
	</g>
</g>
<path id="XMLID_399_" class="st10" d="M90.3,363.2c1.4,0.6,8.3,7.7,13.3,4.6c5.1-3.1,10.8-10.7,14.8-10.5c4,0.2,11.2-1.5,12.4-4.1
	c1.2-2.7,16.1-7.9,21.9-8.9c5.8-1-0.2-6.3-2.9-6.9c-2.7-0.6-13,3.6-15.3,4.3s-6.6,1.6-6.5-1.4c0.1-3.1-3.7-19.9-2.3-24.9
	c1.4-4.9,5.2-9.3,3.4-14c-1.8-4.7-6.2-1.4-6.2-1.4l-6.7,11.9l-1.3,2.9c0,0-4.3-3.1-5.8-3.4s-6.4,6.4-5.9,7c-4.4-1.1-8.6,3.9-7.5,7.1
	c-4.1,1.7-6.3,4.5-5.5,7.8c0.8,3.3,1.6,12.6,0,15.5S90.3,363.2,90.3,363.2z"/>
<path id="XMLID_7_" class="st12" d="M134.8,157.9v12.3c0,0-1.1,24.3,16.7,24.3s16.3-24.1,16.3-24.1v-11.2v-14.4
	c0,0,1.4-7.8-14.3-8.1c-20.3-0.4-18.4,9.7-18.4,9.7L134.8,157.9z"/>
<path id="XMLID_2_" class="st0" d="M191,80.3c0,0-3.5-8-15.1-5.7s-11.3,8.3-9.4,8.9c2,0.5,4.4-1.3,7.5-3.3
	C177.1,78.2,183.3,75.1,191,80.3z"/>
<path id="XMLID_1_" class="st0" d="M113.2,76.5c0,0,6.3-5.4,13.6-4.8c7.3,0.5,12.2,5.9,12.7,7.1s-0.4,5-3.8,3
	c-3.4-2-4.8-5.7-8.8-6.5C123,74.6,113.2,76.5,113.2,76.5z"/>
</svg>
