<?xml version="1.0" encoding="utf-8"?>
<!-- Generator: Adobe Illustrator 19.0.0, SVG Export Plug-In . SVG Version: 6.00 Build 0)  -->
<svg version="1.1" id="Layer_1" xmlns="http://www.w3.org/2000/svg" xmlns:xlink="http://www.w3.org/1999/xlink" x="0px" y="0px"
	 viewBox="-424 201.4 174.6 174.6" style="enable-background:new -424 201.4 174.6 174.6;" xml:space="preserve">
<style type="text/css">
	.st0{fill:#679B31;}
	.st1{fill:#FFFFFF;}
</style>
<rect id="XMLID_16_" x="-424" y="201.4" class="st0" width="174.6" height="174.6"/>
<path id="XMLID_15_" class="st1" d="M-342.5,297.9c4-4,7.8-7.8,11.6-11.6c8.9-9,17.9-17.9,26.8-26.9c2.9-2.9,6.1-2.9,9,0
	c2.4,2.4,4.8,4.8,7.2,7.2c2.8,2.8,2.8,6,0,8.8c-16.7,16.7-33.4,33.4-50.1,50.1c-2.7,2.7-6,2.7-8.7,0c-9.7-9.5-19.3-19.1-28.8-28.6
	c-2.8-2.8-2.8-6,0-8.8c2.4-2.4,4.9-4.9,7.3-7.3c2.7-2.7,6-2.7,8.8,0c5.6,5.6,11.1,11.1,16.6,16.7
	C-342.7,297.5-342.7,297.7-342.5,297.9z"/>
</svg>
