<!-- Generator: Adobe Illustrator 19.1.0, SVG Export Plug-In  -->
<svg version="1.1"
	 xmlns="http://www.w3.org/2000/svg" xmlns:xlink="http://www.w3.org/1999/xlink" xmlns:a="http://ns.adobe.com/AdobeSVGViewerExtensions/3.0/"
	 x="0px" y="0px" width="52.1px" height="52.1px" viewBox="0 0 52.1 52.1" style="enable-background:new 0 0 52.1 52.1;"
	 xml:space="preserve">
<style type="text/css">
	.st0{fill:#AFD092;}
	.st1{fill:#FFFFFF;}
</style>
<defs>
</defs>
<circle id="XMLID_2_" class="st0" cx="26" cy="26" r="26"/>
<path id="XMLID_1_" class="st1" d="M24.2,28.1c3.5-3.6,6.6-6.6,9.6-9.7c1.6-1.7,2.7-1.2,4.1,0.2c1.5,1.5,1.8,2.5,0.1,4.1
	c-4,3.8-7.8,7.7-11.6,11.6c-1.4,1.4-2.5,1.6-3.9,0c-2-2.2-4.2-4.3-6.3-6.4c-1.6-1.5-0.7-2.6,0.5-3.7c1.1-1.1,2.2-2.2,3.7-0.6
	C21.6,25,22.8,26.4,24.2,28.1z"/>
</svg>
