<!-- Generator: Adobe Illustrator 19.0.0, SVG Export Plug-In  -->
<svg version="1.1"
	 xmlns="http://www.w3.org/2000/svg" xmlns:xlink="http://www.w3.org/1999/xlink" xmlns:a="http://ns.adobe.com/AdobeSVGViewerExtensions/3.0/"
	 x="0px" y="0px" width="174.6px" height="174.6px" viewBox="0 0 174.6 174.6" style="enable-background:new 0 0 174.6 174.6;"
	 xml:space="preserve">
<style type="text/css">
	.st0{fill:#DC6A46;}
	.st1{fill:#FFFFFF;}
</style>
<defs>
</defs>
<rect id="XMLID_16_" y="0" class="st0" width="174.6" height="174.6"/>
<path id="XMLID_15_" class="st1" d="M86.7,105.4c-0.2,0.3-0.4,0.7-0.6,1c-5.4,5.4-10.8,10.7-16.1,16.1c-1.8,1.8-3.8,2.6-6.3,1.8
	c-0.9-0.3-1.7-0.9-2.4-1.6c-2.6-2.5-5.2-5.1-7.7-7.7c-2.4-2.5-2.4-5.9,0-8.3c5.5-5.5,11-11,16.5-16.5c0.2-0.2,0.5-0.4,0.8-0.6
	c-0.4-0.4-0.6-0.6-0.8-0.9c-5.5-5.5-11-11-16.5-16.5c-2.6-2.6-2.6-5.9,0-8.5c2.5-2.6,5.1-5.1,7.6-7.6c2.4-2.4,5.5-2.5,8.1-0.3
	c0.7,0.6,1.4,1.3,2,2c4.9,4.9,9.8,9.8,14.7,14.7c0.3,0.3,0.4,0.6,0.6,1c0.5-0.4,0.7-0.6,0.9-0.8c5.5-5.5,11-11,16.5-16.5
	c2.4-2.4,5.6-2.7,8.1-0.4c3,2.8,5.8,5.7,8.6,8.7c1.8,2,1.7,5.1-0.1,7.1c-0.4,0.4-0.7,0.9-1.1,1.3c-5.2,5.2-10.4,10.4-15.7,15.7
	c-0.3,0.3-0.6,0.5-0.9,0.7c0,0.2-0.1,0.3-0.1,0.5c0.3,0.2,0.7,0.3,0.9,0.5c5.4,5.4,10.7,10.8,16.1,16.1c1.8,1.8,2.6,3.9,1.8,6.3
	c-0.2,0.6-0.5,1.2-0.9,1.6c-3,3-5.9,6.1-9,9c-2,1.8-5.2,1.7-7.2-0.2c-1.9-1.8-3.7-3.7-5.6-5.5c-3.8-3.8-7.6-7.6-11.4-11.4
	c-0.2-0.2-0.4-0.5-0.6-0.8C87,105.4,86.9,105.4,86.7,105.4z"/>
</svg>
