<!-- Generator: Adobe Illustrator 19.1.0, SVG Export Plug-In  -->
<svg version="1.1"
	 xmlns="http://www.w3.org/2000/svg" xmlns:xlink="http://www.w3.org/1999/xlink" xmlns:a="http://ns.adobe.com/AdobeSVGViewerExtensions/3.0/"
	 x="0px" y="0px" width="52.1px" height="52.1px" viewBox="0 0 52.1 52.1" style="enable-background:new 0 0 52.1 52.1;"
	 xml:space="preserve">
<style type="text/css">
	.st0{fill:#DC6A46;}
	.st1{fill:#FFFFFF;}
</style>
<defs>
</defs>
<circle id="XMLID_2_" class="st0" cx="26" cy="26" r="26"/>
<path id="XMLID_1_" class="st1" d="M26.4,30.6c-0.1,0.1-0.1,0.2-0.2,0.3c-1.4,1.4-2.8,2.8-4.2,4.2c-0.5,0.5-1,0.7-1.6,0.5
	c-0.2-0.1-0.5-0.2-0.6-0.4c-0.7-0.7-1.3-1.3-2-2c-0.6-0.6-0.6-1.5,0-2.2c1.4-1.4,2.9-2.9,4.3-4.3c0.1-0.1,0.1-0.1,0.2-0.1
	c-0.1-0.1-0.2-0.2-0.2-0.2c-1.4-1.4-2.9-2.9-4.3-4.3c-0.7-0.7-0.7-1.5,0-2.2c0.7-0.7,1.3-1.3,2-2c0.6-0.6,1.4-0.7,2.1-0.1
	c0.2,0.2,0.4,0.3,0.5,0.5c1.3,1.3,2.6,2.6,3.8,3.8c0.1,0.1,0.1,0.2,0.2,0.3c0.1-0.1,0.2-0.2,0.2-0.2c1.4-1.4,2.9-2.9,4.3-4.3
	c0.6-0.6,1.5-0.7,2.1-0.1c0.8,0.7,1.5,1.5,2.2,2.3c0.5,0.5,0.4,1.3,0,1.9c-0.1,0.1-0.2,0.2-0.3,0.3c-1.4,1.4-2.7,2.7-4.1,4.1
	c-0.1,0.1-0.2,0.1-0.2,0.2c0,0,0,0.1,0,0.1c0.1,0,0.2,0.1,0.2,0.1c1.4,1.4,2.8,2.8,4.2,4.2c0.5,0.5,0.7,1,0.5,1.7
	c0,0.2-0.1,0.3-0.2,0.4c-0.8,0.8-1.5,1.6-2.4,2.4c-0.5,0.5-1.4,0.4-1.9,0c-0.5-0.5-1-1-1.5-1.4c-1-1-2-2-3-3
	c-0.1-0.1-0.1-0.1-0.1-0.2C26.4,30.6,26.4,30.6,26.4,30.6z"/>
</svg>
