<!-- Generator: Adobe Illustrator 19.1.0, SVG Export Plug-In  -->
<svg version="1.1"
	 xmlns="http://www.w3.org/2000/svg" xmlns:xlink="http://www.w3.org/1999/xlink" xmlns:a="http://ns.adobe.com/AdobeSVGViewerExtensions/3.0/"
	 x="0px" y="0px" width="33.8px" height="18.5px" viewBox="0 0 33.8 18.5" style="enable-background:new 0 0 33.8 18.5;"
	 xml:space="preserve">
<style type="text/css">
	.st0{fill:#DB9E8C;}
	.st1{fill:#AA6858;}
	.st2{fill:#F1EFEF;}
</style>
<defs>
</defs>
<path id="XMLID_3_" class="st0" d="M4.2,7.7C4,7.3,11.5-0.9,15.1,0.1s3.4,4,5.9,3.8c2.5-0.2,1.9-3.8,5.1-3.9s4.4,5.5,4.4,5.5
	s0.3,7.6-5.9,10.9S11.4,20.8,4.2,7.7z"/>
<path id="XMLID_2_" class="st1" d="M0,11.7c-0.1-0.5,0-3.9,0-3.9s-0.2-1,2.5-0.2s7.5-0.1,16.5-0.7s14.7,0,14.7,0l-1.3,4l-1.6-2.8
	c0,0-15.6,3.1-29.2,0.7C-0.2,10.7,0,11.7,0,11.7z"/>
<path id="XMLID_1_" class="st2" d="M4.7,8.6c0,0,12.2,5.9,23.3-0.9C20.3,3.8,4.7,8.6,4.7,8.6z"/>
</svg>
