<!-- Generator: Adobe Illustrator 19.1.0, SVG Export Plug-In  -->
<svg version="1.1"
	 xmlns="http://www.w3.org/2000/svg" xmlns:xlink="http://www.w3.org/1999/xlink" xmlns:a="http://ns.adobe.com/AdobeSVGViewerExtensions/3.0/"
	 x="0px" y="0px" width="28.2px" height="13.2px" viewBox="0 0 28.2 13.2" style="enable-background:new 0 0 28.2 13.2;"
	 xml:space="preserve">
<style type="text/css">
	.st0{fill:#000100;}
	.st1{fill:#EDE6E2;}
	.st2{clip-path:url(#XMLID_6_);fill:#000100;}
	.st3{clip-path:url(#XMLID_7_);fill:#000100;}
</style>
<defs>
</defs>
<path id="XMLID_5_" class="st0" d="M0,3.7c0,0-0.4,3.7,9.6,4.3c4-2.9,12-8.1,18.4,5.3c0.9-7-1.4-12.2-8.4-13.1S9,2,7.5,3
	S2.9,4.2,0,3.7z"/>
<path id="XMLID_4_" class="st1" d="M4.6,7.4c0,0,12.2,1.3,23.4,5.9C26.7,8,25.2,3.4,19,2.7S10.2,7,4.6,7.4z"/>
<g id="XMLID_1_">
	<defs>
		<path id="XMLID_2_" d="M4.6,7.4c0,0,12.2,1.3,23.4,5.9C26.7,8,25.2,3.4,19,2.7S10.2,7,4.6,7.4z"/>
	</defs>
	<clipPath id="XMLID_6_">
		<use xlink:href="#XMLID_2_"  style="overflow:visible;"/>
	</clipPath>
	<ellipse id="XMLID_3_" class="st2" cx="16.4" cy="7.7" rx="3.3" ry="3.8"/>
</g>
</svg>
