<!-- Generator: Adobe Illustrator 19.1.0, SVG Export Plug-In  -->
<svg version="1.1"
	 xmlns="http://www.w3.org/2000/svg" xmlns:xlink="http://www.w3.org/1999/xlink" xmlns:a="http://ns.adobe.com/AdobeSVGViewerExtensions/3.0/"
	 x="0px" y="0px" width="38.4px" height="18.1px" viewBox="0 0 38.4 18.1" style="enable-background:new 0 0 38.4 18.1;"
	 xml:space="preserve">
<style type="text/css">
	.st0{fill:#DC9E8D;}
	.st1{fill:#AA6959;}
	.st2{fill:#AA695A;}
	.st3{fill:#F1EFEF;}
</style>
<defs>
</defs>
<path id="XMLID_9_" class="st0" d="M3,4.2c0,0,0.4-0.1,1-0.4c3.1-1.1,12.2-4.3,15.4-3.8c3.8,0.7,3.6,2.6,6.4,2.4
	c2.7-0.1,2.1-2.4,5.5-2.5S36,3.6,36,3.6s-1.7,10.2-6.7,12.5C22.9,19,13.2,21.1,3,4.2z"/>
<path id="XMLID_8_" class="st1" d="M0.1,6.8c-0.1-0.5,0-3.9,0-3.9s-0.2,0,2.8,0.8s9.3,1.9,19.5,1.2s16-2,16-2v3.7l-1.1-1.8
	c0,0-23.2,5.6-35.3,0C-0.2,6.8,0.1,6.8,0.1,6.8z"/>
<path id="XMLID_7_" class="st2" d="M3.2,3.4c0,0,24.2,4.1,33.6-1.1c-5.7,8.5-10.4,9.5-14,9.5S4.7,8.7,3.2,3.4z"/>
<path id="XMLID_6_" class="st2" d="M3,5.3c0,0,23.8,4.2,33.1-1c-5.7,8.5-9.7,9.5-13.4,9.5S12.6,14,3,5.3z"/>
<path id="XMLID_2_" class="st3" d="M4,3.8c0,0,22.6,4,31.9-1.2c-5.7,8.5-9.7,9.5-13.4,9.5S13.7,12.5,4,3.8z"/>
<path id="XMLID_1_" d="M8.2,7.5c0,0,17.5,2.2,24.8-0.7c-4.4,4.7-7.5,5.3-10.4,5.3S15.7,12.4,8.2,7.5z"/>
</svg>
