<!-- Generator: Adobe Illustrator 19.1.0, SVG Export Plug-In  -->
<svg version="1.1"
	 xmlns="http://www.w3.org/2000/svg" xmlns:xlink="http://www.w3.org/1999/xlink" xmlns:a="http://ns.adobe.com/AdobeSVGViewerExtensions/3.0/"
	 x="0px" y="0px" width="33.9px" height="12px" viewBox="0 0 33.9 12" style="enable-background:new 0 0 33.9 12;"
	 xml:space="preserve">
<style type="text/css">
	.st0{fill:#DB9E8C;}
	.st1{fill:#AA6858;}
</style>
<defs>
</defs>
<path id="XMLID_2_" class="st0" d="M4.3,5c-0.2-0.3,7.9-5.6,11.7-4.9s3.6,2.6,6.4,2.4c2.7-0.1,2.1-2.4,5.5-2.5s4.7,3.6,4.7,3.6
	s0.3,4.9-6.4,7S12.1,13.4,4.3,5z"/>
<path id="XMLID_1_" class="st1" d="M0,6.7c-0.1-0.5,0-3.9,0-3.9s-0.2,0,2.5,0.8s8.2,1.9,17.2,1.2s14.1-2,14.1-2v3.7l-1-1.8
	c0,0-20.5,5.6-31.2,0C-0.2,6.7,0,6.7,0,6.7z"/>
</svg>
