<!-- Generator: Adobe Illustrator 19.1.0, SVG Export Plug-In  -->
<svg version="1.1"
	 xmlns="http://www.w3.org/2000/svg" xmlns:xlink="http://www.w3.org/1999/xlink" xmlns:a="http://ns.adobe.com/AdobeSVGViewerExtensions/3.0/"
	 x="0px" y="0px" width="33.6px" height="12.8px" viewBox="0 0 33.6 12.8" style="enable-background:new 0 0 33.6 12.8;"
	 xml:space="preserve">
<style type="text/css">
	.st0{fill:#DB9E8C;}
	.st1{fill:#AA6858;}
</style>
<defs>
</defs>
<path id="XMLID_2_" class="st0" d="M3.7,6.8c0,0,3.3-4.2,7.2-6s5,0.4,6.1,1.2s2.2-0.9,5.4-1.9S32,5.8,32,5.8S30.6,7,28.5,9.6
	s-7.1,2.8-11.5,3.1S10.1,13.2,3.7,6.8z"/>
<path id="XMLID_1_" class="st1" d="M0,4.7l1,4.4c0,0,0.7-3.1,15.8-3.4s15.9,3.4,15.9,3.4l0.9-4.4h-2.6c0,0-6.4-1-14.3-1
	S1.9,6.4,1.9,6.4L0,4.7z"/>
</svg>
