<!-- Generator: Adobe Illustrator 19.1.0, SVG Export Plug-In  -->
<svg version="1.1"
	 xmlns="http://www.w3.org/2000/svg" xmlns:xlink="http://www.w3.org/1999/xlink" xmlns:a="http://ns.adobe.com/AdobeSVGViewerExtensions/3.0/"
	 x="0px" y="0px" width="29px" height="10.2px" viewBox="0 0 29 10.2" style="enable-background:new 0 0 29 10.2;"
	 xml:space="preserve">
<style type="text/css">
	.st0{fill:#000100;}
	.st1{fill:#F1EFEF;}
	.st2{clip-path:url(#XMLID_6_);fill:#000100;}
	.st3{clip-path:url(#XMLID_7_);fill:#000100;}
</style>
<defs>
</defs>
<path id="XMLID_5_" class="st0" d="M9.4,7.4C9.4,7.4,2,5.7,0,3c2.5-0.5,7.6-2.4,12.8-2.9c7.5-0.6,15.1,0.8,15.9,4
	c0.8,3.2,0,4.9,0,4.9L13.5,5.7L9.4,7.4z"/>
<path id="XMLID_4_" class="st1" d="M4.5,4c0,0,4,4.2,8.5,4.3c4.5,0.2,14.1-0.1,15.7,1.9C27.8,5.5,27.8,3,21.1,3S4.5,4,4.5,4z"/>
<g id="XMLID_1_">
	<defs>
		<path id="XMLID_2_" d="M5,6.8c0,0,11,1.9,22.9,2.4c-1.3-5.2-1.6-8-7.9-8.6S11.5,6.6,5,6.8z"/>
	</defs>
	<clipPath id="XMLID_6_">
		<use xlink:href="#XMLID_2_"  style="overflow:visible;"/>
	</clipPath>
	<ellipse id="XMLID_3_" class="st2" cx="17.5" cy="5.6" rx="3.3" ry="3.8"/>
</g>
</svg>
