<!-- Generator: Adobe Illustrator 19.1.0, SVG Export Plug-In  -->
<svg version="1.1"
	 xmlns="http://www.w3.org/2000/svg" xmlns:xlink="http://www.w3.org/1999/xlink" xmlns:a="http://ns.adobe.com/AdobeSVGViewerExtensions/3.0/"
	 x="0px" y="0px" width="40.9px" height="18.1px" viewBox="0 0 40.9 18.1" style="enable-background:new 0 0 40.9 18.1;"
	 xml:space="preserve">
<style type="text/css">
	.st0{fill:#DB9E8C;}
	.st1{fill:#AA6858;}
	.st2{fill:#F1EFEF;}
</style>
<defs>
</defs>
<path id="XMLID_3_" class="st0" d="M4.7,4.2c0,0,0.4-0.1,1-0.4c3.1-1.1,12.2-4.3,15.4-3.8c3.8,0.7,3.6,2.6,6.4,2.4
	c2.7-0.1,2.1-2.4,5.5-2.5s4.7,3.6,4.7,3.6s-1.7,10.2-6.7,12.5C24.6,19,14.9,21.1,4.7,4.2z"/>
<path id="XMLID_2_" class="st1" d="M0,6c-0.1-0.5,0.9-6,0.9-6s4.2,2.9,6.7,3.6c2.7,0.9,9.8,3.7,18.8,3.1S40.9,0,40.9,0l-2,6.6
	l-1.3-3.1c0,0-14.1,7.7-34.5,0.1C1.3,5.6,0,6,0,6z"/>
<path id="XMLID_1_" class="st2" d="M5.7,3.8c0,0,22.6,4,31.9-1.2c-5.7,8.5-9.7,9.5-13.4,9.5S15.3,12.5,5.7,3.8z"/>
</svg>
