<!-- Generator: Adobe Illustrator 19.1.0, SVG Export Plug-In  -->
<svg version="1.1"
	 xmlns="http://www.w3.org/2000/svg" xmlns:xlink="http://www.w3.org/1999/xlink" xmlns:a="http://ns.adobe.com/AdobeSVGViewerExtensions/3.0/"
	 x="0px" y="0px" width="36.4px" height="18.1px" viewBox="0 0 36.4 18.1" style="enable-background:new 0 0 36.4 18.1;"
	 xml:space="preserve">
<style type="text/css">
	.st0{fill:#DC9E8D;}
	.st1{fill:#AA6959;}
	.st2{fill:#AA695A;}
</style>
<defs>
</defs>
<path id="XMLID_10_" class="st0" d="M7.8,4.2c0,0,0.3-0.1,0.8-0.4c2.5-1.1,9.7-4.3,12.2-3.8c3.1,0.7,2.9,2.6,5.1,2.4
	c2.2-0.1,1.7-2.4,4.4-2.5s3.8,3.6,3.8,3.6s-1.4,10.2-5.4,12.5C23.6,19,15.9,21.1,7.8,4.2z"/>
<path id="XMLID_9_" class="st1" d="M0.1,6.8c-0.1-0.5,0-3.9,0-3.9s-0.2,0,2.7,0.8s8.8,1.9,18.5,1.2s15.2-2,15.2-2v3.7l-1.1-1.8
	c0,0-22,5.6-33.5,0C-0.2,6.8,0.1,6.8,0.1,6.8z"/>
<path id="XMLID_8_" class="st2" d="M14.7,6.8c0,0,12.4-1.8,17.5,0.9c-3-4.3-4.4-4.7-6.5-4.8S15.6,4.1,14.7,6.8z"/>
<ellipse class="st2" cx="16.4" cy="7.3" rx="2.1" ry="0.8"/>
<path id="XMLID_7_" d="M14.9,10.9c0,0,10.9-6.2,16.2-1.8c-3.4-6.9-3.8-4.9-5.7-5.1C23.3,3.6,20.4,3.6,14.9,10.9z"/>
<ellipse class="st1" cx="31.3" cy="5.5" rx="1.6" ry="1.4"/>
<path id="XMLID_2_" class="st2" d="M11.3,6.8c0,0,15.8,3.5,22.1-1.7c-3.8,8.5-6.5,10.2-8.9,10.2S17.7,15.5,11.3,6.8z"/>
<path id="XMLID_1_" d="M14.7,7.3c0,0,11.6,3.4,16.5-1c-2.9,7.1-5,8-6.9,8S19.7,14.6,14.7,7.3z"/>
<ellipse transform="matrix(0.9929 -0.1191 0.1191 0.9929 -0.8043 2.8614)" cx="23.5" cy="8.2" rx="7.2" ry="1.3"/>
<ellipse cx="18" cy="8.2" rx="0.8" ry="0.5"/>
<path class="st1" d="M35.5,6.3c0.1,0-0.9,0-2.2,0c-1.3,0-2.5,0-2.6,0s0.9,0,2.2,0S35.4,6.3,35.5,6.3z"/>
</svg>
