<!-- Generator: Adobe Illustrator 19.1.0, SVG Export Plug-In  -->
<svg version="1.1"
	 xmlns="http://www.w3.org/2000/svg" xmlns:xlink="http://www.w3.org/1999/xlink" xmlns:a="http://ns.adobe.com/AdobeSVGViewerExtensions/3.0/"
	 x="0px" y="0px" width="86.5px" height="204px" viewBox="0 0 86.5 204" style="enable-background:new 0 0 86.5 204;"
	 xml:space="preserve">
<style type="text/css">
	.st0{fill:#4C525C;}
</style>
<defs>
</defs>
<path id="XMLID_1_" class="st0" d="M86.5,16c0,0-2.1-8.6-11.7-13.8s-31.7-0.4-38,8.1S26.1,28.5,24.3,34.8
	c-1.8,6.4-3.7,21.4-6.9,25.9S-1.3,88.4,0.1,98.3s6,18.2,10.6,22.8s10.5,13.6,5.8,25.7c-4.7,12.1-11.6,14.8-13.2,28.3
	c-2,17.4,7.2,28.9,7.2,28.9s-5.7-16.1,5.9-36.2c4.1-7.1,16.9-21.2,16.4-31.3s0.9-15.1-10.2-27.6s-6-22.4-4-27.2S31.3,55.1,36,46.3
	s16.7-27.3,24.1-29.5s24,1.5,24.4,1.3C84.9,18,86.5,16,86.5,16z"/>
</svg>
