<!-- Generator: Adobe Illustrator 19.1.0, SVG Export Plug-In  -->
<svg version="1.1"
	 xmlns="http://www.w3.org/2000/svg" xmlns:xlink="http://www.w3.org/1999/xlink" xmlns:a="http://ns.adobe.com/AdobeSVGViewerExtensions/3.0/"
	 x="0px" y="0px" width="328.7px" height="812.2px" viewBox="0 0 328.7 812.2" style="enable-background:new 0 0 328.7 812.2;"
	 xml:space="preserve">
<style type="text/css">
	.st0{fill:#45484C;}
	.st1{fill:#313335;}
	.st2{fill:#252628;}
	.st3{opacity:0.75;}
	.st4{fill:#F8AA16;}
	.st5{opacity:0.2;}
	.st6{fill:url(#SVGID_1_);}
	.st7{opacity:0.63;fill:#45484C;}
	.st8{fill:#585A5C;}
	.st9{fill:#D38D1C;}
	.st10{fill:#3C424B;}
	.st11{fill:#F7D3AF;}
	.st12{fill:#DEB590;}
	.st13{fill:#729076;}
	.st14{fill:#5F7861;}
	.st15{fill:#6B6D87;}
	.st16{fill:#E46C61;}
	.st17{fill:#C65A55;}
	.st18{fill:#DDB492;}
	.st19{fill:#EF7F7B;}
	.st20{fill:#F1EFEF;}
	.st21{fill:#F6D2B2;}
	.st22{fill:#DF6C63;}
	.st23{fill:#242628;}
	.st24{fill:#4C525C;}
	.st25{fill:url(#SVGID_2_);}
</style>
<defs>
</defs>
<g id="XMLID_70_">
	<g id="XMLID_115_">
		<path id="XMLID_118_" class="st0" d="M242.6,496.9c0,0-42-38.3-48.7-87.6c-2.7-23.3,33.3-25.2,48.7-25.6c15.3-0.4,62-1.5,78.7,18
			c11.3,12.9-2.7,20.8-2.7,20.8s-10-9.2-18-9.2s-8,0-8,0s-15.3-12.7-41.3-16c-26-3.3-39.3,4-43.3,7.4c-4,4-2,32.8,33.3,70.4
			C246,493.3,242.6,496.9,242.6,496.9z"/>
		<path id="XMLID_117_" class="st0" d="M295.3,404.6c0,0-10,42-22,58s-29.3,15.3-32,12.4c2.5,17,1.3,21.9,1.3,21.9s18,8.4,28-6.3
			c10-14.7,38-80,38-80L295.3,404.6z"/>
		<path id="XMLID_116_" class="st1" d="M194.6,401.8c0,0,1.7-23.8,65.2-22.4c63.5,1.3,69.5,22.7,68.9,30.7s-6,12.5-6,12.5
			s-6-2.5-12-5.8c-6-3.4-18-3.4-18-3.4S282,396,267.3,394c-14.7-2-53.3,3.3-59.3,10.7C201.3,406,194.6,401.8,194.6,401.8z"/>
	</g>
	<path id="XMLID_114_" class="st2" d="M111.1,582.5H98.7c-5,0-9-4-9-9v-38c0-5,4-9,9-9h12.4c4.9,0,9,4,9,9v38
		C120.1,578.5,116,582.5,111.1,582.5z"/>
	<path id="XMLID_113_" class="st0" d="M16.7,333.1c0,0,12.4,26.2,41.6,24.9c29.2-1.3,56.2-9.3,69.6-48.7c4.9-16.7-1.1-51.3-5.1-54
		c18.5,14.7,24.4,37,24.4,37s1.6,42.6-26.4,63.1S57,391.3,19.6,366.3C19,337.2,16.7,333.1,16.7,333.1z"/>
	<path id="XMLID_112_" class="st0" d="M77,551.5l-15.8,1.3c-4.4,0.4-8.3-2.9-8.6-7.3L38.4,376.3c-0.4-4.4,2.9-8.3,7.3-8.6l15.8-1.3
		c4.4-0.4,8.3,2.9,8.6,7.3l14.1,169.3C84.6,547.3,81.4,551.2,77,551.5z"/>
	<g id="XMLID_107_">
		<g class="st3">
			<path class="st4" d="M129.8,400.9c-15.2,15.8-33.3,24.6-73,24.1c-39.7-0.6-34-35.4-34-35.4s0.6-39.2-1.1-64.5
				c-1.7-25.4-3.8-34-8.8-59c-8.3-41.6,39-31.1,39-31.1s58.8,6.8,82.9,44.2C167.3,329.3,141.3,388.9,129.8,400.9z"/>
		</g>
		<g class="st5">
			<linearGradient id="SVGID_1_" gradientUnits="userSpaceOnUse" x1="11.919" y1="329.3196" x2="150.5747" y2="329.3196">
				<stop  offset="0" style="stop-color:#FFFFFF"/>
				<stop  offset="1" style="stop-color:#1D1D1B"/>
			</linearGradient>
			<path class="st6" d="M129.8,400.9c-15.2,15.8-33.3,24.6-73,24.1c-39.7-0.6-34-35.4-34-35.4s0.6-39.2-1.1-64.5
				c-1.7-25.4-3.8-34-8.8-59c-8.3-41.6,39-31.1,39-31.1s58.8,6.8,82.9,44.2C167.3,329.3,141.3,388.9,129.8,400.9z"/>
		</g>
	</g>
	<path id="XMLID_104_" class="st7" d="M137.3,277.7c-24.8-38.4-85.1-45.4-85.1-45.4s-48.6-10.7-40.1,32c5.1,25.6,7.4,34.5,9.1,60.6
		c1.7,26,1.1,66.2,1.1,66.2s-5.9,35.8,34.9,36.4c40.7,0.6,59.3-8.4,74.9-24.7C143.9,390.5,170.6,329.2,137.3,277.7z M124,392.3
		c-13.4,13.9-29.3,21.6-64.2,21.2c-34.9-0.5-29.9-31.2-29.9-31.2s0.5-34.4-1-56.7c-1.5-22.3-3.4-29.9-7.8-51.9
		c-7.3-36.6,34.3-27.4,34.3-27.4s51.7,6,72.9,38.9C156.9,329.3,134.1,381.7,124,392.3z"/>
	<path id="XMLID_103_" class="st1" d="M52.1,545.9V530c0-4.4,3.6-8,8-8l99.9,7c4.4,0,8,3.6,8,8v15.9c0,4.4-3.6,8-8,8l-99.9-7
		C55.7,553.9,52.1,550.3,52.1,545.9z"/>
	<g id="XMLID_80_">
		<path id="XMLID_102_" class="st0" d="M147.2,656.8c0,0-11.2-1.1-16,10.8c-3.1,7.9,1.7,19.1,10.3,21.4c10.9-7,20.7-11.5,20.7-11.5
			h2c0,0,1.7-10.8-6.3-15.9C151.2,656.8,147.2,656.8,147.2,656.8z"/>
		<ellipse id="XMLID_101_" class="st2" cx="148" cy="676.3" rx="12.9" ry="12.7"/>
		<path id="XMLID_100_" class="st8" d="M39,709.3l-2.6-0.4c0,0-18.4,0.4-16.8-15.2c0.8-7.2,10.3-5.6,10.3-5.6L39,709.3z"/>
		<path id="XMLID_99_" class="st8" d="M60.3,766.7l-17-5.7c0,0-6.3-12.3-2.3-17.7c4-5.3,14.1,1.5,14.1,1.5L60.3,766.7z"/>
		<path id="XMLID_98_" class="st1" d="M25.1,699.5l-8.5-5.7c0,0,2.3-17.9,17.3-17.3c6.7,1.3,9.3,2.6,9.3,2.6L25.1,699.5z"/>
		<path id="XMLID_97_" class="st1" d="M38.6,750.3l14.4,4.1l5.2-24.5L48,728C48,728,38.9,730.3,38.6,750.3z"/>
		<path id="XMLID_96_" class="st0" d="M61.8,729.1c0,0,8.8-1.3,12.6,12c2.5,8.8-1.3,21.2-8.1,23.8c-8.6-7.7-16.3-12.8-16.3-12.8
			h-1.6c0,0-1.4-12,5-17.7C58.7,729.1,61.8,729.1,61.8,729.1z"/>
		<path id="XMLID_95_" class="st0" d="M39.2,676.4c0,0,9.3-1.3,13.4,12c2.6,8.8-1.4,21.2-8.6,23.8c-9.1-7.7-17.3-12.8-17.3-12.8
			l-4.2-0.8c0,0,1.1-11.2,7.8-16.9C35.9,676.4,39.2,676.4,39.2,676.4z"/>
		<path id="XMLID_94_" class="st0" d="M305.3,688.1c0,0,13-1.3,18.7,12.7c3.7,9.3-1.9,22.4-12,25.2c-12.7-8.2-24.1-13.5-24.1-13.5
			h-2.3c0,0-2-12.7,7.3-18.7C300.6,688.1,305.3,688.1,305.3,688.1z"/>
		<path id="XMLID_93_" class="st0" d="M233.7,739c0,0,13-1.3,18.7,12.7c3.7,9.3-1.9,22.4-12,25.2c-12.7-8.2-24.1-13.5-24.1-13.5H214
			c0,0-2-12.7,7.3-18.7C229,739,233.7,739,233.7,739z"/>
		<path id="XMLID_92_" class="st0" d="M305,673c0,0,2.4-6.7-8.3-9c0,0-16.1-7.4-52.1-13s-116.3-9.6-157.7-4s-59.2,13.4-59.7,18
			c-0.5,4.6,3.7,6.6,3.7,6.6l16-2.6l43.7-7l17.7,8c0,0-45.7,22.7-58.7,37c-4,5-4,5-4,5l4,11.7h17c0,0,60.4-40.9,61.2-42.4
			s17.5-4.4,18.1-5.5c0.7-1.1,11,3.9,11,3.9l42,40c0,0,24.3,18,25.3,18s8-5,9-4.7s3.7-9.3,3.7-9.3s-3.7-5.3-9.7-12
			c-6-6.7-33-32.3-33-32.3l-4-12.1h18l65.3,10.1l28.3,5.3L305,673z"/>
		<path id="XMLID_91_" class="st1" d="M184.7,644v15c0,0-20.3,17.3-48.7,1.7c0-10,0-16.7,0-16.7H184.7z"/>
		<path id="XMLID_90_" class="st0" d="M170.7,637.3l14,6.7c0,0-27.7,15.7-48.7,0c10-4.7,12-6.7,12-6.7H170.7z"/>
		<path id="XMLID_89_" class="st1" d="M146,639.3c0,0,6.3,2.7,13.7,2.7c7.3,0,13.3-2.7,13.3-2.7V570h-27V639.3z"/>
		<path id="XMLID_88_" class="st1" d="M305,673c0,0-2.9,6-8.3,6s-35.7-12.7-44.4-15.3c-8.7-2.7-50.1-4.9-61.7-3
			c-11.6,1.9-12.7,6.3-9.3,8.7c3.3,2.3,13,10,13,10s-4-8,11.3-7.7c15.3,0.3,38,3,53,9.4c15,6.3,32.3,18.7,46.3,9.3
			C305.7,680.7,305,673,305,673z"/>
		<path id="XMLID_87_" class="st1" d="M237,723.7c0,0-0.5,7.6-8.7,9.3c-7.7,1.7-12.7-2-20.7-12.7c-8-10.7-16-21.3-21.7-26.3
			s-25.7-19.3-31-21s-11-2-17.3,0c-6.3,2-24.3,10.7-28.3,13S78.6,706.3,72,711.7c-6.6,5.3-20.3,12.3-24,1c0.7-4.7,1.7-5.7,1.7-5.7
			s-3.7,2.3-4,5c-0.3,2.7,0,12.3,0,12.3s4.3,9.3,15.7,7.3S93,711,93,711s26.7-18.3,34.3-21.7c7.7-3.3,19.7-12.7,33-2.3
			c13.3,10.3,30,29,35,36s14,20.3,26,21.7c12,1.3,15.7-6.7,15.7-6.7V723.7z"/>
		<path id="XMLID_86_" class="st1" d="M108.3,670c0,0,11.3-6.7,16.3-8c5-1.3,4.3-4-3.3-5S80,658.6,70,660s-27,6.8-32,7.2
			s-11,1.2-11-3.8c-0.7,10.9,0,15.6,0,15.6s3,5,16.3,0s28.6-8.3,34-8.7C82.7,670,104.7,668,108.3,670z"/>
		<circle id="XMLID_85_" class="st1" cx="304.3" cy="711" r="15"/>
		<ellipse id="XMLID_84_" class="st1" cx="61.8" cy="750.3" rx="10.7" ry="16.3"/>
		<ellipse id="XMLID_83_" class="st1" cx="39" cy="695.3" rx="10.6" ry="14.1"/>
		<ellipse id="XMLID_82_" class="st1" cx="231.7" cy="763.3" rx="15.4" ry="16.3"/>
		<path id="XMLID_81_" class="st2" d="M139.8,554.7l4,27.6c0,0,16.3,7.7,32.7,0c1-8.7,2.7-28.4,2.7-28.4L139.8,554.7z"/>
	</g>
	<g id="XMLID_76_">
		<path id="XMLID_79_" class="st4" d="M280.1,529c0,0-59.6,15.4-106.1,15.4S67.9,529,67.9,529c-12.5-12.5-31-14-31-31v-2
			c0-17,14-31,31-31c0,0,37.6-6,106.1-6s106.1,6,106.1,6c17.1,0,31,14,31,31v2C311.1,515,292.7,516.4,280.1,529z"/>
		<path id="XMLID_78_" class="st9" d="M42.7,511.3c6.5,6.1,17.1,9.5,25.2,17.7c0,0,59.6,15.4,106.1,15.4S280.1,529,280.1,529
			c8.2-8.2,18.8-11.6,25.2-17.7H42.7z"/>
		<path id="XMLID_77_" class="st1" d="M64,526.7c0.8,0.9,1.5,1.8,2.3,2.7c0,0,50.7,30.6,97.9,30.6s117.6-30.6,117.6-30.6
			c0.7-1,1.5-1.8,2.3-2.7H64z"/>
	</g>
	<path id="XMLID_73_" class="st0" d="M141.3,270C112.1,224.8,50,224.8,50,224.8s-52.6-4.1-49.9,26.5C2.8,282,8.8,292,10.8,322.7
		c2,30.7,1.3,78,1.3,78S5.4,433.3,53.4,434c48,0.7,64.7-11.6,81.7-24C151.3,398.2,180.4,330.7,141.3,270z M130.1,398.7
		c-15,15.6-32.8,24.2-71.9,23.7c-39.1-0.5-33.5-34.9-33.5-34.9s0.5-38.6-1.1-63.6s-3.8-33.5-8.7-58.1c-8.2-41,38.5-30.7,38.5-30.7
		s57.9,6.7,81.7,43.6C167,328.1,141.5,386.9,130.1,398.7z"/>
	<path id="XMLID_72_" class="st1" d="M91,565.8c0,0,14.2-4.4,16.7,2.7c2.5,7.2-3.2,8.6-11.2,8.5c-8-0.2-9.3-4.2-18.9-1
		s-16.7,2.1-21.3,1.5s1.7-5.1,8-6C70.6,570.5,91,565.8,91,565.8z"/>
	<path id="XMLID_71_" class="st1" d="M100.8,561.7c0,0,2,0.3,5.3,0.5c12,0.9,41.3,1.8,56.3-9.7c3.4,6.2,3.4,6.2,3.4,6.2
		s-27.9,11.2-61.4,7.8C100.8,561.7,100.8,561.7,100.8,561.7z"/>
</g>
<path id="XMLID_69_" class="st10" d="M122.6,10.3c0,0-9.3-8.5-15.1-9.7S71.3-2.6,53.1,22.4S41.6,52.6,34.5,73.6s-6.2,30.4-0.8,45.1
	c0,0,4.4,7.9,13.7,16.7s7.2,18.5,0.5,30.3S28,213.3,58.8,228.4c5.4,1.9,6.9,1.9,6.9,1.9s-13.2-12.3-4.8-31.1
	c-3.2,17.8,7.3,33.7,23.7,35.6c-1.1-6.8-2.1-17.3-2.1-17.3s7,5.6,6.8,17.2c7.8,0.5,15,0.9,19.6-7.3c1.4,6.8,1.8,7.3,1.8,7.3
	s8.7-4.4,10.1-11.2c-2,7.7-3.8,11.1-3.8,11.1s15.4-2.3,15.4-21c-0.6,9.7-1.2,19.3-1.8,20.8c5.4-3.5,15.8-6.7,17.4-15.3
	c-0.8,8.1-0.8,8.1-0.8,8.1s13.4-3.3,12.7-22.4c1.5,6.8,1.4,12.9,0.3,15.6c5.8-6.7,12.2-13.8,7.6-25.1c-4.7-11.3-13.1-13-11.2-23.3
	s9.1-14.6,11.9-24.8s3.3-18.6-1.1-29.4s-2.7-41.4-2.6-49s4.4-42.2-15.6-57.9S122.6,10.3,122.6,10.3z"/>
<ellipse id="XMLID_68_" class="st11" cx="123.7" cy="409.1" rx="68.6" ry="43.5"/>
<path id="XMLID_67_" class="st12" d="M188.4,273.4l-13.3-47.2c0,0-2.9-10.3-1-24.6c0.8-10.7-7.2-20.1-17.9-21
	c-10.7-0.8-20.1,7.2-21,17.9c-0.5,6.6,2.3,12.7,7.1,16.6l0,0c0,0,0.3,7.8,6.4,26.3l25.6,94.3c0,0,8,14.7,16.8,17.4
	c8.8,2.7,12.9-3,14.8-8.9C207.9,338.3,188.4,273.4,188.4,273.4z"/>
<path id="XMLID_66_" class="st11" d="M166.1,349.2c-0.7-1.1-1.2-2.3-1.5-3.6c-1.7-7.6,4.7-15.4,14.2-17.5c3.5-0.8,6.9-0.7,10,0.2
	l0,0c0,0,0,0,0.1,0c0,0,0.1,0,0.1,0c3.8,1.1,54.4,15.1,88.7,30.1c13.4,5.2,8.8,22.1-15.4,17.7c-26.4-5.9-59.4-6.3-70.3-12.1
	c-6.1-3.2-12.9-6.3-18.1-9c-2.8-0.9-5.3-2.5-7-4.6C166.6,350,166.3,349.6,166.1,349.2C166.1,349.2,166.1,349.2,166.1,349.2z"/>
<path id="XMLID_65_" class="st11" d="M279.3,382.5c0,0-0.7,5.2,2.3,8.5s6.9,8.6,8.4,11.3c1.6,2.7,0.8,6.1,3.3,7.3
	c2.5,1.2,4.2-4.4,3.2-7.3c-1-2.8-3.5-7.4-3.8-9.8c-0.2-2.5,4.5-0.5,6.5,0c2,0.5,8,1,8.2,3.6s-1.5,10.8,0,13.5
	c1.5,2.7,4.7,2.4,4.6,1.7c-0.1-0.8,1.2-8.9,1.2-8.9s4.7-1.3,4.7-3.8c0-2.5,2-8.3,2-8.3l3.8-2V381c0,0,2-2.2,2.2-3s-0.5-6-3-8
	s-10.9-6.2-10.9-6.2l-34.6-4.4c0,0-8.2,0.1-8.8,5.1s1,9,3.2,10.8S279.3,382.5,279.3,382.5z"/>
<path id="XMLID_64_" class="st12" d="M170.1,389.5L170.1,389.5c-11.7-7.1-28.3-1.1-37.1,13.3c-8.8,14.5-6.4,32,5.3,39.1
	c1.4,0.9,3,1.6,4.5,2c26.3,25.1,103.2,72.2,139.2,85.3c34.4-13.3,20.6-33.9,20.6-33.9s-6-5.7-11.9-11.9
	C234.7,424,160.6,380.9,170.1,389.5z"/>
<path id="XMLID_63_" class="st12" d="M303.7,519.4c3.2-3.5,5.2-8.2,5.2-13.3c0-11-8.9-19.8-19.8-19.8c-11,0-19.8,8.9-19.8,19.8
	c0,2.7,0.5,5.2,1.5,7.5l0,0c0,0-11.1,26.3-14.8,55s-4.5,68.4,0,102.3c4.5,33.4,7.8,55.2-0.5,58.9c1.9,12.5,11,16.9,17.1,9.4
	s1.5-19,4.3-35.6c2.9-16.7,15.7-68,19.6-82c3.9-14,7.9-51.3,7.3-67.3C303.1,540.3,303.6,523.5,303.7,519.4z"/>
<path id="XMLID_62_" class="st12" d="M317.4,777.3c-5.8-6.5-18-13.5-22.8-16.8s-20.3-14-21.3-17.7c1.2-1.8,1.9-4,1.9-6.3
	c0-6.1-5-11.1-11.1-11.1c-6.1,0-11.1,5-11.1,11.1c0,3.8,1.9,7.1,4.8,9.1c0.5,1.1,0.8,2.5,0,4.1c-1.8,3.8-2.8,9.2-2.8,9.2
	s-0.8,2,1.6,4.2s16.1,14.8,20.4,18.8c0,0,12.5,10,24,10.8s19.2-1.8,21-3.2S323.2,783.8,317.4,777.3z"/>
<path id="XMLID_61_" class="st11" d="M92.8,404c-12.3-9.7-31.6-5.8-43.1,8.8c-11.5,14.6,1.5,44,1.5,44c-13.5-6,68,50.2,156.6,81.6
	c9.2,3.3,8,5.4,8,5.4s32.9,9.9,30.2-30.7C214.2,481.3,129.9,418.1,92.8,404z"/>
<path id="XMLID_60_" class="st11" d="M248.6,527C248.6,527,248.6,527,248.6,527c1.1-2.7,1.6-5.7,1.4-8.9
	c-0.8-10.9-10.3-19.1-21.2-18.3c-10.9,0.8-19.1,10.3-18.3,21.2c0,0-16.7,79.3-1,136.3c15.8,57,15.7,76.8,17.8,91.3
	c8.7,22.5,16.4,5.5,18.8,0.2c0,0-1.9-19.2-2.7-36.5c-0.8-17.3,5.5-75.9,5.7-94.7C249.4,585.5,256.3,544,248.6,527z"/>
<path id="XMLID_59_" class="st11" d="M288.5,792.7c-5.8-6.5-18-13.5-22.8-16.8s-20.3-14-21.3-17.7c1.2-1.8,1.9-4,1.9-6.3
	c0-6.1-5-11.1-11.1-11.1c-6.1,0-11.1,5-11.1,11.1c0,3.8,1.9,7.1,4.8,9.1c0.5,1.1,0.8,2.5,0,4.1c-1.8,3.8-2.8,9.2-2.8,9.2
	s-0.8,2,1.6,4.2s16.1,14.8,20.4,18.8c0,0,12.5,10,24,10.8s19.2-1.8,21-3.2S294.2,799.2,288.5,792.7z"/>
<path id="XMLID_58_" class="st13" d="M52.2,398.7c0,0,20.6,33.4,17.9,45.2c-2.7,11.9-0.2,37.3,28.2,50.6s98.4,43.2,98.4,43.2v8.6
	l5.7,3.9c-7,4.3-4.6,5.8-2.8,7.7c-3.5,11.9-9.2,51.3-9,76.6c28.8,28,112.5,10.3,118.3-8.5c-3.5-20.8,0.8-46.7,0-62.1
	c-0.8-15.4,1.8-48.1,3.2-58.7c0.7-10.7-3.6-16-15.8-26c-12.2-10-100.3-83.3-104-83.7C188.6,395.1,52.2,398.7,52.2,398.7z"/>
<path id="XMLID_57_" class="st14" d="M62.6,402.2c0,0,13.3,69,35.7,92.3c-16.2-6.1-73.5-43.2-49.2-92.3
	C62.6,402.2,62.6,402.2,62.6,402.2z"/>
<path id="XMLID_56_" class="st14" d="M79.9,457.6c0,0,10.9,24.4,50.2,38.6c39.3,14.2,66.6,41.5,66.6,41.5s4.9-8.2,9.4-8.4
	c-5.4,8.4-7.1,14.3,0.4,15.7c4.8,2.7-4.1,9.8-4.1,9.8s5.3,6.3,14.1,4.3c-6.5,4.7-13.8,4.7-13.8,4.7l-6,62.1c0,0,5.8,19,19.8,20.9
	c-15.2-5-26-12.4-26-12.4s3.5-75.8,9-76.6c-4.9-1.4-1.3-2.6,2.8-7.7c-5.7-3.9-11.3-1.1-10.1-12.4c-13.2-7.1-94-43.2-94-43.2
	S78.4,470.2,79.9,457.6z"/>
<path id="XMLID_55_" class="st14" d="M312,505.1c0,0-18,13.8-18,24.2c-1.3,10.4,7,54.2,7.1,64.3s3.8,39.8-5,43.5
	c10.1-7,14-5.8,12.7-21.3S312,505.1,312,505.1z"/>
<path id="XMLID_54_" class="st14" d="M270,484.5l-92.6-48.4c0,0-21.4-11.6-6.7-11.3c14.7,0.3,23.1-2.7,28.9-3.6
	c5.8-0.8,8.5,2.2,9.1,12.7C209.4,444.4,270,484.5,270,484.5z"/>
<path id="XMLID_51_" class="st15" d="M220.8,421.1c0,0-8.6,9.8-5.3,14.1C221.6,442.9,229.3,435,220.8,421.1z M219.6,434.8
	c-1.5,0-2.8-1.3-2.8-3s1.2-3,2.8-3c1.5,0,2.8,1.3,2.8,3C222.4,433.5,221.2,434.8,219.6,434.8z"/>
<path id="XMLID_48_" class="st15" d="M146.6,440.1c0,0-8.6,9.8-5.3,14.1C147.4,461.9,155.2,454,146.6,440.1z M145.5,453.8
	c-1.5,0-2.8-1.3-2.8-3s1.2-3,2.8-3c1.5,0,2.8,1.3,2.8,3S147,453.8,145.5,453.8z"/>
<path id="XMLID_45_" class="st15" d="M136.4,426.3c0,0-8.6,9.8-5.3,14.1C137.2,448.1,144.9,440.2,136.4,426.3z M135.3,440.1
	c-1.5,0-2.8-1.3-2.8-3s1.2-3,2.8-3c1.5,0,2.8,1.3,2.8,3C138.1,438.7,136.8,440,135.3,440.1z"/>
<path id="XMLID_42_" class="st15" d="M206.7,412.6c0,0-8.6,9.8-5.3,14.1C207.5,434.4,215.2,426.5,206.7,412.6z M205.6,426.3
	c-1.5,0-2.8-1.3-2.8-3s1.2-3,2.8-3c1.5,0,2.8,1.3,2.8,3C208.4,424.9,207.1,426.3,205.6,426.3z"/>
<path id="XMLID_41_" class="st15" d="M140.2,429.6c0,0-17.6-1.3-39.6,5.3c-1.7-4.7-1.7-4.7-1.7-4.7s27.5-9.1,38.2-7
	C138.2,426.8,140.2,429.6,140.2,429.6z"/>
<path id="XMLID_40_" class="st15" d="M122,450.5c0,0,21.4-8.9,26.5-7.6c-3.4-5.3-3.4-5.3-3.4-5.3l-21.4,7.4L122,450.5z"/>
<polygon id="XMLID_39_" class="st15" points="206.1,405.5 199.6,409.9 206.1,414.6 211.6,409.8 "/>
<polygon id="XMLID_38_" class="st15" points="217.8,414.8 215.1,417.7 220,421.2 224.1,419.9 "/>
<g id="XMLID_24_">
	<g id="XMLID_30_">
		<path id="XMLID_37_" class="st16" d="M47.9,399.6c0,0,10.5-36,25-75.5c4-11,0-17-4-21s2.5-6,3.5-12s-8.3-19.5-11.2-34.8
			c-2.8-15.2-3.8-29.7-3.8-29.7l-9.5-21.5c0,0-8-20,2.5-26s70.5-22,110.5-3.5c15.5,7,13.5,20.5,10.5,38c5.5,14.5,14,23.6,8.5,37.3
			S168.4,269,168.4,269s1,24.6,2.5,33.1s13.9,20,13.2,25s-6.7,8.1-4.2,11.5c2.5,3.5,21.5,54,22.5,64.5
			C181.4,413.6,90.4,433.6,47.9,399.6z"/>
		<path id="XMLID_36_" class="st17" d="M135.6,343.6c-2.7-0.3,42.7-9,47.5-16.5c-3.2,6.2-4.8,7.5-4.8,7.5l3.4,10
			C181.7,344.7,157.9,346,135.6,343.6z"/>
		<path id="XMLID_35_" class="st17" d="M179.6,235c0,0,0.1,14.1-15.6,17.6c-15.6,3.5-50.5,9.5-68.1,3.5c-17.6-6-14.7,0.5-10.9,8.5
			s42.4,18.8,82.3,4.4C178.5,259.6,186.8,241.9,179.6,235z"/>
		<path id="XMLID_34_" class="st17" d="M67.4,298.3c0,0,2.7,5.3,12.1,7.8s12.4,4.6,3.1,9s-0.9,9.5,6.7,12c7.6,2.5,15.6,2.4,15.6,2.4
			s-15.4,3.6-33-5.4C73.5,314.6,67.4,298.3,67.4,298.3z"/>
		<path id="XMLID_33_" class="st17" d="M49.3,391.6c0,0,65.4,42.5,148.2,3.5c2,8.9,2,8.9,2,8.9s-98.2,41.6-152.7-4.4
			C49.3,391.6,49.3,391.6,49.3,391.6z"/>
		<path id="XMLID_32_" class="st17" d="M61.3,354.1c0.4-1.1,15.9,9.6,23.7,8.5c-5.7,13.4-5.7,13.4-5.7,13.4l-22.1-9.6l-5.7-3.9
			L61.3,354.1z"/>
		<polygon id="XMLID_31_" class="st17" points="178.5,347.3 182.8,361.3 190.6,357.4 180.5,343.7 		"/>
	</g>
	<path id="XMLID_29_" class="st18" d="M122.7,168.9c0,0-4.7-12.8-16.9-12.1c-12.2,0.7-15.6,12.1-15.6,12.1s2.1,14.9,14,22.9
		C125.1,205.8,122.7,168.9,122.7,168.9z"/>
	<path id="XMLID_28_" class="st19" d="M92.9,173.2c-4.7-5.3-2.2-6.7-3.7-10.1c-2.2-4.8-32.9,11.3-32.9,11.3l27.4,3.3l-8.1,5.4
		c0,0,31.6,11.7,34.4,13.4c2.8,1.7,13,42,13,42l15-3.6c0,0-16.1-38.1-16.2-39c-0.1-0.8,14.4-16,21.4-17.4
		c-8.8-3.2-17.6-3.2-17.6-3.2s11.3-6.8,19.3-8.4c-8.5-3-23.2-3.8-23.2-3.8s-2.7,23.3-5.2,26.7C108.2,181.7,92.9,173.2,92.9,173.2z"
		/>
	<ellipse id="XMLID_27_" class="st20" cx="123.9" cy="214.5" rx="2.3" ry="2.1"/>
	<ellipse id="XMLID_26_" class="st20" cx="130.1" cy="229" rx="2.3" ry="2.1"/>
	<ellipse id="XMLID_25_" class="st20" cx="117.2" cy="200.4" rx="2.3" ry="2.1"/>
</g>
<g id="XMLID_21_">
	<path id="XMLID_23_" class="st0" d="M5.4,424.2c0,0,16.7,62.7,49.3,91.3c20,31.7,69.1,28.1,69.1,28.1s20.9,6.9,43.8-7.8
		c-49,10.4-41.5-4.9-41.5-4.9s-49.3-4.7-46-37.3s16.7-73.9,24.7-82.3c-4-8.4-11.3-9.4-11.3-9.4S80,426.8,78.7,435.5
		c-1.3,8.7-10.7,47.3-10.7,47.3s-9.3,17.9-23.3-3.1s-27.3-54.6-30-64.1c-2.7-9.5,0.7-18.2,18-20.8c17.3-2.7-4.7-7.3-4.7-7.3
		s-21.3,5.3-25.3,7.3S0.3,408.1,5.4,424.2z"/>
	<path id="XMLID_22_" class="st1" d="M50,392.8c0,0,16.7,1.9,24,8.9c7.3,7.1,18.7,17.9,29.3,17.2c10.7-0.7,13.3-12.9,19.3-17.2
		c6-4.3,6-4.3,6-4.3s-0.7-14-20.7-16s-68.7-2.5-87.3,3.1s-21.9,13.6-19.5,23.8C16.2,402.7,18,397.5,50,392.8z"/>
</g>
<circle id="XMLID_20_" class="st11" cx="54" cy="198.4" r="19.5"/>
<circle id="XMLID_19_" class="st11" cx="25.3" cy="366.6" r="14.1"/>
<path id="XMLID_18_" class="st11" d="M74,200.6c0.1-10.8-9.6-21.5-20.3-21.5c-10.8,0-19.5,8.7-19.5,19.5c0,0-14,73-16,86
	s-7.8,69.3-6.8,79.3s25,15.5,28-6.5s17.5-127,17.5-127s1-9.5,7.6-14C65.3,216,74,207.5,74,200.6z"/>
<path id="XMLID_17_" class="st11" d="M14,380.2c0,0,23,17.3,54.3,18.7c31.3,1.3,49.6,4.6,49.6,4.6s11.8,4.9,14.9-4.3
	c3.1-9.2-2.5-13.6-10.9-15.8s-30.8-7.6-46-12.6s-39.8-13.5-52.3-11.7C19,371,14,380.2,14,380.2z"/>
<path id="XMLID_16_" class="st11" d="M127.3,407.9c0,0,1.8,7.8,4.4,9.1s10.3,4.9,15.3,6.3c5,1.4,11.7,6.9,11.7,6.9
	s-3.5,7.7-1.9,10.5c1.7,2.8,5.2,1.7,5.2,1.7l2.5-6.3c0,0,0.5,3.6,3.5,3s4.2-8.3,4.2-8.3s3.2,2.7,5.5,0.6c2.4-2.1,3.1-10.1,3.1-10.1
	l2.8-0.9l0.8-6.5c0,0,0.5-7.7-2.1-9.1c-2.6-1.4-19.7-11.7-19.7-11.7l-7.8-4.5l-24.5-1.8C130.4,386.8,106.6,394.3,127.3,407.9z"/>
<path id="XMLID_15_" class="st16" d="M256.9,754.3c0,0,18.4,15.5,29.7,16.8c11.3,1.3,17.6-4.4,8.6-10.7c9.7,3.6,25.7,14.7,28.4,22.7
	c2.7,7.9,1,7-2.3,9.7c-3.3,2.6-23.9,3.3-32.6-1.3c-8.7-4.6-32.6-24.2-35-26.9C252.6,759.9,256.9,754.3,256.9,754.3z"/>
<path id="XMLID_14_" class="st16" d="M228.1,771.6c0,0,18.4,15.5,29.7,16.8c11.3,1.3,17.6-4.4,8.6-10.7c9.7,3.6,25.7,14.7,28.4,22.7
	c2.7,7.9,1,7-2.3,9.7s-23.9,3.3-32.6-1.3c-8.7-4.6-32.6-24.2-35-26.9C223.8,777.2,228.1,771.6,228.1,771.6z"/>
<path id="XMLID_13_" class="st18" d="M91.4,163.9c0,0,0.3,16,17.7,12.1c12.2-2.7,11.5-8.3,11.5-8.3l-1-43.3c0,0-2.4-13.1-17.8-10.4
	c-13.2,2.3-11.5,18-11.5,18L91.4,163.9z"/>
<g id="XMLID_6_">
	<g id="XMLID_12_">
		<path class="st21" d="M152.2,42.1c2.3,7.9-0.1,12.3-1.3,19.4c-0.8,3.3,0.6,19.9,0.5,31.9c-0.1,12-3.5,21.3-3.5,21.3
			s0,7.1-12.6,20.1c-7.2,13.7-18.6,13.4-18.3,13.2c-3,0.3-22-9.1-31.7-15.7c-5.1-3.5-14.6-18.4-14.7-21.4c0,0-6.2-12.6-13.9-20.2
			c-3.4-3.3-6.4-8.3-8.6-14.2c0.9-1.5,2.6-2.7,5.2-3.3C64.1,70.6,66,79.4,66,79.4s-0.2,18.6,7.4,22.9c0.9-3.2-1.4-24.3-0.5-30.6
			c0.9-6.2,6.1-29.7,6.1-29.7S110.2,19.6,152.2,42.1z"/>
		<path class="st10" d="M105.6,8c30.9,2.3,44.3,26.3,46.7,34.2C110.2,19.6,79.1,42,79.1,42S73.9,65.5,73,71.8
			c-0.9,6.2,1.4,27.3,0.5,30.6C65.8,98,66,79.4,66,79.4s-2-8.8-12.8-6.2c-2.6,0.6-4.2,1.8-5.2,3.3c-3.7-10.2-4.6-23.3,0.4-35.3
			C65.6,0.4,105.6,8,105.6,8z"/>
	</g>
	<g id="XMLID_11_">
	</g>
</g>
<path id="XMLID_5_" class="st21" d="M64.7,80.9c0,0-3.6-7.3-10.3-8.2s-6.7,4.4-6.7,7.1c0,2.4,1.4,6.6,4.6,9.2
	c5.4,4.4,2.9,6.8,4.9,9.5c2,2.7,6.5,4.2,9.8,1.8C66.5,95.7,64.7,80.9,64.7,80.9z"/>
<path id="XMLID_4_" class="st18" d="M61.1,82.3l1,11.4c0,0-2.2,1.4-3.6-2.5c-1.4-3.9-4.9-5.3-5.8-7.7C51.9,81,53.7,75.8,61.1,82.3z"
	/>
<circle id="XMLID_3_" class="st22" cx="61.3" cy="100.4" r="3.7"/>
<path id="XMLID_2_" class="st23" d="M144.3,39.5c3.5,12.9,8,32.8,7.9,45.3c-0.1,12.5-0.1,40.3-1.1,51.2s12.3,42,36.8,18.4
	c-5.9,0.5-20.3-4.8-20.7-20c-0.4-15.1,4.6-58.2,3.8-69.5c-0.8-11.3-0.7-47.3-25.5-48.9c-17.3-1.1-23.6,16.6-23.6,16.6
	s-5.1-9.8-18.3-5.6c0,0-12,3.9-17.2,13.7C95,37.3,120.4,33.2,144.3,39.5z"/>
<path id="XMLID_1_" class="st24" d="M127.1,23.8c0,0-3.9-7.9-14.4-10.9s-31,6.5-35.3,16.2s-6.5,20.1-6.9,26.7s1,21.7-1.1,26.8
	c-2.1,5.1-12.2,31-8.7,40.4s9.9,16.5,15.3,20c5.5,3.5,13.2,11,11.3,23.8c-1.9,12.8-8.1,17-6.7,30.5c1.9,17.4,13.4,26.7,13.4,26.7
	s-9.1-14.5-2.1-36.6c2.5-7.8,11.9-24.3,9.3-34.1c-2.6-9.8-2.4-14.9-16-24.7s-10.7-20.5-9.8-25.7s6.4-28.7,9.1-38.4
	s10.3-30.2,17.1-34c6.8-3.8,23.8-3.7,24.1-4C125.9,26.1,127.1,23.8,127.1,23.8z"/>
</svg>
