<!-- Generator: Adobe Illustrator 19.1.0, SVG Export Plug-In  -->
<svg version="1.1"
	 xmlns="http://www.w3.org/2000/svg" xmlns:xlink="http://www.w3.org/1999/xlink" xmlns:a="http://ns.adobe.com/AdobeSVGViewerExtensions/3.0/"
	 x="0px" y="0px" width="120.8px" height="141.7px" viewBox="0 0 120.8 141.7" style="enable-background:new 0 0 120.8 141.7;"
	 xml:space="preserve">
<style type="text/css">
	.st0{fill:#F6D2B2;}
	.st1{fill:#3C424B;}
	.st2{fill:#DDB492;}
	.st3{fill:#DF6C63;}
</style>
<defs>
</defs>
<g id="XMLID_5_">
	<g id="XMLID_11_">
		<path class="st0" d="M107.8,35.9c2.2,7.9-0.3,12.3-1.6,19.4c-0.8,3.3,0.3,19.9,0,31.9c-0.3,12-3.8,21.3-3.8,21.3
			s-0.1,7.1-12.9,19.9C82,142,70.6,141.5,70.8,141.3c-3,0.3-21.8-9.4-31.4-16.2c-5.1-3.6-14.4-18.7-14.4-21.6c0,0-6-12.7-13.6-20.4
			c-3.3-3.3-6.3-8.4-8.4-14.4c1-1.4,2.6-2.6,5.2-3.2C19.2,63,21,71.9,21,71.9s-0.5,18.6,7.1,23c1-3.2-1-24.3,0-30.6
			c1-6.2,6.6-29.6,6.6-29.6S66.1,12.7,107.8,35.9z"/>
		<path class="st1" d="M61.6,1c30.8,2.8,43.9,27,46.1,34.9c-41.7-23.2-73.1-1.3-73.1-1.3s-5.6,23.4-6.6,29.6c-1,6.2,1,27.4,0,30.6
			c-7.6-4.4-7.1-23-7.1-23S19.2,63,8.3,65.5c-2.6,0.6-4.3,1.8-5.2,3.2c-3.5-10.3-4.2-23.4,1-35.3C21.8-7.2,61.6,1,61.6,1z"/>
	</g>
	<g id="XMLID_10_">
	</g>
</g>
<path id="XMLID_4_" class="st0" d="M19.6,73.3c0,0-3.5-7.4-10.2-8.4s-6.7,4.3-6.8,7c-0.1,2.4,1.3,6.6,4.5,9.3
	c5.4,4.5,2.8,6.9,4.7,9.5c2,2.8,6.5,4.3,9.8,2C21.2,88.1,19.6,73.3,19.6,73.3z"/>
<path id="XMLID_3_" class="st2" d="M80.4,74.7c0,0-2,11.1-1.4,13.7c0.5,2.6,5,5.6,3.5,6.8c-3.5,2.9-6.3,4.3-14.9,2.4
	c-2.3-0.5-1.9,1.4,2.1,3.5c3.9,2.2,7.3,2.3,9.9,1.4c2.5-0.9,6.4-4.1,6.7-6.6c0.3-2.5-1.2-4-4.7-7.1S80.4,74.7,80.4,74.7z"/>
<path id="XMLID_2_" class="st2" d="M16,74.6L16.8,86c0,0-2.2,1.4-3.5-2.5c-1.3-3.9-4.9-5.3-5.7-7.8S8.7,68,16,74.6z"/>
<circle id="XMLID_1_" class="st3" cx="16" cy="92.7" r="3.7"/>
</svg>
