<!-- Generator: Adobe Illustrator 19.1.0, SVG Export Plug-In  -->
<svg version="1.1"
	 xmlns="http://www.w3.org/2000/svg" xmlns:xlink="http://www.w3.org/1999/xlink" xmlns:a="http://ns.adobe.com/AdobeSVGViewerExtensions/3.0/"
	 x="0px" y="0px" width="296.9px" height="989.9px" viewBox="0 0 296.9 989.9" style="enable-background:new 0 0 296.9 989.9;"
	 xml:space="preserve">
<style type="text/css">
	.st0{fill:#EFBBA6;}
	.st1{fill:#FAD2BF;}
	.st2{fill:#BD845A;}
	.st3{fill:#DB9F88;}
	.st4{fill:#D6A490;}
	.st5{fill:#374554;}
	.st6{fill:#293643;}
	.st7{fill:#292C30;}
	.st8{fill:#9D968A;}
	.st9{fill:#ABCC8E;}
	.st10{fill:#171714;}
	.st11{fill:#6FA2C3;}
	.st12{fill:#EBEFF4;}
	.st13{fill:#CAD6E0;}
	.st14{fill:#6A6D89;}
	.st15{fill:#BCBFCE;}
	.st16{fill:#A7ACBC;}
	.st17{fill:#F8AA16;}
	.st18{fill:#DD9014;}
	.st19{fill:#FFFFFF;}
	.st20{fill:#3D2304;}
</style>
<defs>
</defs>
<g>
	<g>
		<g>
			<rect x="99.3" y="115.3" class="st0" width="69.7" height="50.9"/>
			<circle class="st0" cx="134.1" cy="168.9" r="34.8"/>
		</g>
		<path class="st1" d="M165,95.2l-71.7,4.2l-6.3,9.3c0.8-0.1,0.8-0.1,0.8-0.1l4.8,16.4c0,0,0.5,9.1,9.8,16.1s13.8,10.5,13.8,10.5
			l5.2,6.2c0,0,2.8,4,8.5,4.2s13.2,0,13.2,0s4.4-1.2,7.1-5s4.4-4.8,4.4-4.8l15.1-11c0,0,10.6-7,12.6-16.4c1.5-6.9,3.3-13.4,4.2-16.3
			L165,95.2z"/>
		<path class="st2" d="M165,95.2l-71.7,4.2l-6.3,9.3c0.8-0.1,0.8-0.1,0.8-0.1l4.8,16.4c0,0,0.5,9.1,9.8,16.1s13.8,10.5,13.8,10.5
			l5.2,6.2c0,0,2.8,4,8.5,4.2s13.2,0,13.2,0s4.4-1.2,7.1-5s4.4-4.8,4.4-4.8l15.1-11c0,0,10.6-7,12.6-16.4c1.5-6.9,3.3-13.4,4.2-16.3
			L165,95.2z"/>
		<path class="st1" d="M190.1,75.3c-3.8-2.3-8.5-36.8-8.5-37.5s-22.9-24.5-22.9-24.5h-46.8L86.1,38.8v43.8c0,0-3.9-7.1-6.8-8.6
			c-2.9-1.4-8.1-0.8-6.1,4.9c2,5.7,4.4,9,4.2,11.8c-0.2,2.8-1.5,18.3,8.8,18c1.8-0.2,1.8-0.2,1.8-0.2l0,0.1l1-1.1
			c0,0,5.4,21.2,15,27c9.6,5.8,14.9,9,14.9,9s12.8-9.5,33.7,0c13.3-7.8,23.2-14.2,23.2-14.2s2.7-2.3,4.2-6.7S187,107,187,107
			s6.5-1.5,8.7-8.2c2.2-6.8-0.3-5.3,2.4-13.9C200.9,76.3,198.7,68.5,190.1,75.3z"/>
		<path class="st0" d="M84.6,89.8c-5.5-10-7-12.5-7.2-11s0.2,7.2,1.8,9.2s-0.3,14.7,7.9,15.4C88.5,101.4,85.6,94.3,84.6,89.8z"/>
		<path class="st0" d="M188.8,89.8c2.2-7,6.8-11.4,6.8-11.4s1.2-2.8,0,3.9s-1,8.8-1.8,10s-2.3,5.4-2.3,5.4S183.7,111.8,188.8,89.8z"
			/>
		<path class="st3" d="M122.6,166.8c0,0,3.5,11,20.5,6C136.6,181.3,126.6,184.8,122.6,166.8z"/>
		<path class="st4" d="M116.1,103.8c0,0-12.2,2.8-13,10.9s-0.8,8.1-0.8,8.1S103.1,110.8,116.1,103.8z"/>
		<path class="st4" d="M154.6,103.8c0,0,12.2,5.7,12.5,13.7s0,5.2,0,5.2S165.9,111.8,154.6,103.8z"/>
		<path class="st2" d="M80.6,75.3l7.2,11.2c0,0,2.2-12.1,2-16.2c-0.2-4.1-2.8-22.6,1.5-29.3s19-24.2,34.2-18s23.8,0.8,30.2-0.2
			S168.4,28,174.4,37s6.5,7.2,7.5,23s3.2,26.5,3.2,26.5l7.2-13.7c0,0,0.2-13.8,0-22.8s-1.5-10-7-16.5s-14-20.2-19.8-26.5
			S145,0,136.6,0s-18.7-0.5-32.7,11.2s-27,25.2-25.2,43.5C80.1,67.8,80.6,75.3,80.6,75.3z"/>
		<path class="st2" d="M117.5,110.8c0,0,18.2,5.4,33.9-0.8c7.9,3.5,13.2,4.2,14.2,7.4c1.1,3.2-0.8,12.2-0.8,12.2s-1.7,0.8-3.2-2.4
			c-1.4-3.3-4.2-8.2-4.2-8.2h-6.6l-12.7,3.6l-0.5-4.6l-3.6-0.7v5.3c0,0-15.2-2.5-18.5-3.6s-4.2-1-4.2-1s-0.5,10.9-2,11.8
			c-1.5,0.9-2.3,1.1-2.3,1.1l-1.8-13.7c0,0-1-3.2,1.8-3.7S117.5,110.8,117.5,110.8z"/>
	</g>
	<path class="st4" d="M120.9,103.1c0,0-2.2,5.6,7.2,3.3c3.8,4.5,6.8,5.8,12.2,0.5c5,0.7,8-0.5,5.5-5s-2.8-6.8-2.8-8.8s1,1.2,2.2,3.2
		s6.5,7.2,4.2,11s-6.5,3-6.5,3c-3.8,3.8-7.5,6-13.2,1.2c-2.2-1.5-2.2-1.5-2.2-1.5S116.9,109.8,120.9,103.1z"/>
</g>
<polygon class="st0" points="77.6,195.1 108.6,176.1 164.1,179.6 179.6,190.6 147.6,224.1 119.6,224.6 "/>
<g>
	<g>
		
			<ellipse transform="matrix(0.9987 -5.026000e-02 5.026000e-02 0.9987 -26.9058 5.0416)" class="st5" cx="86.8" cy="537.5" rx="44.5" ry="38.1"/>
		
			<ellipse transform="matrix(0.9987 -5.026000e-02 5.026000e-02 0.9987 -36.0042 5.2046)" class="st5" cx="85.5" cy="718.5" rx="34.1" ry="29.2"/>
		<polygon class="st5" points="42.4,539.8 51.2,716.2 119.3,712.8 131.2,535.3 		"/>
	</g>
	<g>
		<ellipse transform="matrix(0.9887 -0.15 0.15 0.9887 -79.9918 33.3158)" class="st5" cx="180.8" cy="546.8" rx="43.7" ry="38.1"/>
		<ellipse transform="matrix(0.9887 -0.15 0.15 0.9887 -105.8885 41.7849)" class="st5" cx="224" cy="722.7" rx="33.5" ry="29.2"/>
		<polygon class="st5" points="137.6,553.4 190.9,727.8 256.6,714.1 223.2,536.5 		"/>
	</g>
	<g id="XMLID_26_">
		<path id="XMLID_30_" class="st5" d="M192.7,558.8L66,550.9c-14.6-0.9-25.8-12.8-24.8-26.3L45,471c1-13.6,13.8-23.9,28.4-23
			l126.7,7.9c14.6,0.9,25.8,12.8,24.8,26.3l-3.9,53.5C220.1,549.3,207.4,559.7,192.7,558.8z"/>
		<path id="XMLID_29_" class="st6" d="M120.6,505.7c-0.2,2.2,0.3,22.7,0.3,22.7l27.8,1.7l3.7-23.9L120.6,505.7z"/>
		<polygon id="XMLID_28_" class="st6" points="169.1,514 169.5,534.5 209.9,534.1 210.4,513.7 204.7,513.3 204.5,529.4 173.7,529.7 
			173.8,514.3 		"/>
		<polygon id="XMLID_27_" class="st6" points="99.2,509.3 98.6,531.2 56.6,526.4 57.4,503.1 65,504.3 62.6,523.8 91.2,527.1 
			93.4,509.7 		"/>
		<path class="st7" d="M45.6,463.9c0,0,82.8,31.7,180.1,8.9c0.1,26.3,0.1,26.3,0.1,26.3s-81.9,22.6-186.9-11.7
			C41.6,472.3,45.6,463.9,45.6,463.9z"/>
		<polygon class="st5" points="58.3,464.7 52.2,500 59.6,501.1 68.6,468.3 		"/>
		<polygon class="st5" points="189.2,474.8 193.6,507.5 201.5,505.9 198.2,475.4 		"/>
		<polygon class="st8" points="120.5,479.5 118.5,506.9 157.8,509.3 159.9,479.2 		"/>
	</g>
	<polygon id="XMLID_25_" class="st9" points="206.3,904.4 205.5,914.3 200.3,921.6 204,926.9 202.4,936.8 223.9,934.6 221.6,905 	
		"/>
	<polygon id="XMLID_24_" class="st9" points="110.4,898.2 111.8,908 117.6,914.9 114.2,920.5 116.5,930.3 94.9,929.6 95.2,899.8 	
		"/>
	<path id="XMLID_23_" class="st10" d="M195.6,943.9c0,0-1.7,7.5,1.3,21.6c18.9,5.3,18.9,5.3,18.9,5.3l0.8-9.4c0,0-1.9-2.8,6.7,5.5
		c8.6,8.3,3.1,17.8,33.3,21.9c30.1,4.2,40.3-5.4,40.3-5.4s-0.2-10.3-15.4-19.5c-15.2-9.1-15.2-8.2-42.8-27.4
		c-3.1-15.9-3.1-15.9-3.1-15.9s-18.8,1.3-25.2,8.9C216.3,942.6,195.6,943.9,195.6,943.9z"/>
	<path id="XMLID_22_" class="st10" d="M113.9,937.4c0,0,2.3,7.4,0.1,21.6c-18.5,6.6-18.5,6.6-18.5,6.6l-1.4-9.3c0,0,1.7-2.9-6.3,6
		c-8,8.9-1.9,18-31.7,24.2s-40.6-2.7-40.6-2.7s-0.5-10.3,14-20.5c14.5-10.1,14.6-9.2,40.8-30.3c2-16.1,2-16.1,2-16.1
		s18.8,0,25.8,7.2C93.2,937.5,113.9,937.4,113.9,937.4z"/>
	<g>
		<path class="st5" d="M114.6,722.2c0.6-16.1-12.9-29.6-30.2-30.2s-31.8,12-32.5,28.1c-0.6,16.1,12.9,29.6,30.2,30.2
			S113.9,738.3,114.6,722.2z"/>
		<path class="st5" d="M52,723.6c0,0,11.1,175.6,7.6,196.8c-2,12.9-2,12.9-2,12.9s40.8,14.4,56.6,11.6c7.7-5.9,7.7-5.9,7.7-5.9
			s3.5-12,0.8-19.3c-2.7-7.3-2.7-8.9-3.1-26.9c-0.4-18-0.6-128.7-5-170.5C78.7,719.9,52,723.6,52,723.6z"/>
	</g>
	<g>
		<path class="st5" d="M192.7,724.2c-0.3-16.1,13.5-29.4,30.8-29.7c17.3-0.3,31.6,12.5,31.9,28.6s-13.5,29.4-30.8,29.7
			C207.3,753.2,193.1,740.3,192.7,724.2z"/>
		<path class="st5" d="M255.3,726.7c0,0-14.5,175.4-11.5,196.6c1.7,12.9,1.7,12.9,1.7,12.9s-41.1,13.7-56.8,10.6
			c-7.5-6.1-7.5-6.1-7.5-6.1s-3.2-12-0.4-19.3s2.8-8.8,3.6-26.9s3.1-128.7,8.3-170.3C228.7,722.5,255.3,726.7,255.3,726.7z"/>
	</g>
</g>
<path class="st11" d="M93.4,185.5c0,0,4.4,19.4,39.1,42c29.3-23.1,30.6-37.4,37.6-45.8c5.9,2.4,32.1,5.4,51.3,11.7
	c38.9,12.6,24.1,39.2,16.6,76.7c0,0-9.7,134.7-7.5,149.4s5.4,32.7,5.4,32.7l-19.8,30c0,0-61.7,22.6-161.5,0
	c-15-17.8-15-17.8-15-17.8l2-37c0,0-19.7-157.9-25-191.5S21.8,193,93.4,185.5z"/>
<path class="st12" d="M95.6,174c0,0,19.6,30.2,28.8,32c-6.4,15.9-18,23-18,23s-22.1-37.4-21.8-41.1C93.2,177.4,95.6,174,95.6,174z"
	/>
<path class="st12" d="M172.1,171.4c0,0-19.1,32.2-28.3,34.1c10.9,18.1,16.3,25.2,16.3,25.2s23.3-38.1,23-41.8
	C174.5,178.4,172.1,171.4,172.1,171.4z"/>
<path class="st13" d="M151.9,218.6c0,0-15.8,7.8-25.5,13.4c-2.5-10.9,17.3-26.5,17.3-26.5L151.9,218.6z"/>
<path class="st13" d="M124.4,206c0,0,9.6,3.1,10.3,21.5c-8.2-4-16.5-10.3-16.5-10.3L124.4,206z"/>
<path class="st13" d="M124.4,220.2c0,0,11.1,110.4,10.3,129.9c-0.7,19.5-1.3,86-1.3,86l-1.5,25.3l-2.3,12.3l5.2,18.4h17.2l4.4-19.4
	l-4.4-13V350.8l-7.6-128.5l-9.7,5.3L124.4,220.2z"/>
<ellipse class="st12" cx="136" cy="232" rx="4.3" ry="3.9"/>
<ellipse class="st12" cx="139.1" cy="281.9" rx="4.3" ry="3.9"/>
<ellipse class="st12" cx="141.9" cy="336.5" rx="4.3" ry="3.9"/>
<ellipse class="st12" cx="141.9" cy="389.7" rx="4.3" ry="3.9"/>
<ellipse class="st12" cx="141.9" cy="445.3" rx="4.3" ry="3.9"/>
<polygon class="st12" points="163.6,257.9 167.5,274.7 219.2,274.7 221,257.9 "/>
<g id="XMLID_1_">
	<g id="XMLID_2_">
		<path id="XMLID_21_" class="st14" d="M90.4,205.7c0,0-6.5-44.3,40.6-47.1c47.1-2.7,43,49.8,43,49.8l-7.2,0.7
			c0,0,0.3-44.7-35.8-44.7s-35.5,46-35.5,46L90.4,205.7z"/>
		<g id="XMLID_14_">
			
				<ellipse id="XMLID_20_" transform="matrix(0.9916 0.1295 -0.1295 0.9916 30.2393 -20.9755)" class="st15" cx="176.4" cy="222" rx="10.5" ry="16.5"/>
			
				<ellipse id="XMLID_19_" transform="matrix(0.9916 0.1295 -0.1295 0.9916 30.0975 -20.2775)" class="st16" cx="171" cy="221.3" rx="14.2" ry="20.7"/>
			
				<ellipse id="XMLID_17_" transform="matrix(0.9916 0.1295 -0.1295 0.9916 29.9862 -19.9941)" class="st17" cx="168.7" cy="220.6" rx="13.1" ry="20.7"/>
			
				<ellipse id="XMLID_15_" transform="matrix(0.9916 0.1295 -0.1295 0.9916 29.9048 -19.8494)" class="st18" cx="167.6" cy="220" rx="7" ry="13.7"/>
		</g>
		<g id="XMLID_7_">
			
				<ellipse id="XMLID_13_" transform="matrix(-0.9684 0.2495 -0.2495 -0.9684 227.9087 415.1786)" class="st15" cx="87.6" cy="222" rx="10.4" ry="16.5"/>
			
				<ellipse id="XMLID_12_" transform="matrix(-0.9684 0.2495 -0.2495 -0.9684 237.9749 411.1141)" class="st16" cx="92.9" cy="220.6" rx="14.1" ry="20.7"/>
			
				<ellipse id="XMLID_10_" transform="matrix(-0.9684 0.2495 -0.2495 -0.9684 241.9129 408.6557)" class="st17" cx="95.1" cy="219.7" rx="13.1" ry="20.7"/>
			
				<ellipse id="XMLID_8_" transform="matrix(-0.9684 0.2495 -0.2495 -0.9684 243.8549 407.0312)" class="st18" cx="96.1" cy="219" rx="7" ry="13.7"/>
		</g>
		<g id="XMLID_3_">
			<path id="XMLID_6_" class="st14" d="M167.7,242.1c0,0,5.6,18.5-5.8,19.6c-11.4,1.1-29.8,0.4-29.8,0.4l-0.2,4.7l27.9-1.5
				c0,0,9.1-0.2,10.8-8.7s0.3-16.9,0.3-16.9L167.7,242.1z"/>
			
				<ellipse id="XMLID_4_" transform="matrix(1 9.592922e-03 -9.592922e-03 1 2.5325 -1.3053)" class="st17" cx="137.3" cy="263.3" rx="9" ry="6.4"/>
		</g>
	</g>
</g>
<path class="st4" d="M128.1,134.7c0,0,5.8-5.8,12.2,0C138.6,137.4,130.4,136.2,128.1,134.7z"/>
<path class="st4" d="M106.2,86.8c0,0,5,4.8,14.9,1.2C117.9,90.8,109.9,94.1,106.2,86.8z"/>
<path class="st4" d="M150.2,86.8c0,0,5.2,6.9,14.2,2.2C161,92.6,152.5,96.1,150.2,86.8z"/>
<path class="st4" d="M103.9,74.3c0,0,7-4.5,16.1-3.5C115.6,68.3,106.6,69.3,103.9,74.3z"/>
<path class="st4" d="M150.2,71.9c0,0,9.7-5.7,17.1,0C162.9,71.6,161.7,69.7,150.2,71.9z"/>
<g>
	<ellipse class="st4" cx="113.7" cy="80" rx="8.9" ry="7.1"/>
	<ellipse class="st4" cx="158.1" cy="80.4" rx="8.9" ry="7.1"/>
	<ellipse class="st19" cx="113.7" cy="81.5" rx="8.9" ry="5.7"/>
	<ellipse class="st19" cx="158.1" cy="81.9" rx="8.9" ry="5.7"/>
	<circle class="st20" cx="158.1" cy="81.2" r="2.7"/>
	<circle class="st20" cx="114.5" cy="81" r="2.7"/>
</g>
<path class="st2" d="M92.6,58.9c0,0,8-13.7,21.1-4c12.1,9,16.5,6.7,16.5,6.7s-3.7,6.8-6.8,6.2c-3.2-0.6-11.5-6.9-15.5-8.3
	C103.8,58,92.6,58.9,92.6,58.9z"/>
<path class="st2" d="M178,57.5c0,0-9.6-12.6-21.4-1.3c-10.9,10.4-15.5,8.7-15.5,8.7s4.5,6.3,7.5,5.3c3-1,10.5-8.3,14.4-10.2
	C166.8,58,178,57.5,178,57.5z"/>
<path class="st1" d="M102.7,84.4c-1-0.9,14.7-1.3,22,1.1C119,87.4,108.5,89.8,102.7,84.4z"/>
<path class="st1" d="M169.4,85.4c1-0.9-14.7-1.3-22,1.1C153,88.4,163.6,90.8,169.4,85.4z"/>
<path class="st19" d="M117.2,123.2c0,0,12.3,12.8,36.8,2.9C145.1,124.4,128.2,121.5,117.2,123.2z"/>
<g>
	<g>
		<path class="st3" d="M134,121c-13.3,0-20.9,3.7-21.4,3.9c-0.6,0.3-0.9,1.1-0.6,1.7c0.3,0.6,1.1,0.9,1.7,0.6l0,0
			c0.2-0.1,17.3-8.4,45.8,0.5c0.7,0.2,1.4-0.2,1.6-0.8c0.2-0.7-0.2-1.4-0.8-1.6C150,122.1,141.1,121,134,121z"/>
	</g>
	<path class="st3" d="M111.9,130.3l1.8-3.1l-0.9-5.2C112.8,122,110,128.5,111.9,130.3z"/>
	<path class="st3" d="M160,131.3l-1.3-5.1l2.6-4.1C161.2,122,162.3,129,160,131.3z"/>
</g>
<g>
	<circle class="st0" cx="213.6" cy="366.2" r="24"/>
	<path class="st0" d="M254.2,229.7c1,33.2-17,140.9-17,140.9l-47.5-7.1c0,0-14.9-101.9-5.1-129.4
		C194.5,206.8,253.2,196.5,254.2,229.7z"/>
	<path class="st11" d="M254.3,239.3c0.7-4.9,0.3-10-1.3-15c-5.7-18.4-25.3-28.8-43.7-23c-10.6,3.3-18.5,11.2-22.2,20.7h0
		c-15.2,13.1-8.8,76-6.5,99c25.8-15.7,71.5-1.2,71.5-1.2C256.2,283.2,255,251.9,254.3,239.3z"/>
	<path class="st12" d="M258.6,309.8c0,0-47.6-25.2-82.8-3.6c2.6,19.7,4.3,23.9,4.3,23.9l69.4,1C249.5,331.2,253,327.8,258.6,309.8z"
		/>
</g>
<g>
	<circle class="st0" cx="43.1" cy="362.7" r="24"/>
	<path class="st0" d="M7.2,224.9C5,258,19.4,366.3,19.4,366.3l47.7-5.4c0,0,18.4-101.3,9.5-129.1S9.3,191.7,7.2,224.9z"/>
	<path class="st11" d="M74.6,219.5c-3.4-9.7-11-17.8-21.5-21.5c-18.2-6.3-38.2,3.3-44.5,21.5c-1.7,5-2.3,10-1.8,14.9
		C5.6,247,3.4,278.3,6.3,315c0,0,46.1-12.9,71.4,3.6C80.8,295.7,89.3,233.1,74.6,219.5z"/>
	<path class="st12" d="M0,304.8c0,0,48.4-23.6,82.9-0.8c-3.3,19.6-5.1,23.8-5.1,23.8l-69.3-1.3C8.4,326.4,5,322.9,0,304.8z"/>
</g>
<path class="st0" d="M160.3,348.9c0,0,26.9-5.7,32.9-4.8c5.9,0.9,35.3,9.1,37.1,26.4c1.2,17.7-5.6,16.9-7.6,16.4
	c-3.2,10.9-7.7,13.2-10.1,9.9c-7.4,7.2-11.9,5.9-10-1.7c1.9-7.6,1.9-7.6,1.9-7.6l-16.6-6.5c0,0-23.6,5.5-33.3-5.7
	S160.3,348.9,160.3,348.9z"/>
<g>
	<circle class="st1" cx="231.1" cy="260.9" r="16"/>
	<circle class="st1" cx="221" cy="365.4" r="24"/>
	<path class="st1" d="M244.7,369.5c5.8-23.4,2.2-105.8,2.2-105.8l-31.5-5.5c0,0-17.1,78.8-17.9,103.1
		C196.6,385.5,238.9,392.8,244.7,369.5z"/>
</g>
<g>
	<path class="st1" d="M210.8,176.6c0,0,1.3-6.7,10.3-2.3c2.3,1.3,2.3,1.3,2.3,1.3l2.2,1c0,0,8.3-2.3,10-1.9c1.7,0.4,8,7.7,8,7.7
		s4,0.2,5.5,1.8c1.5,1.7,2.3,5.5,2.3,5.5l0.8,4.3c0,0,8.7,7,10.3,9.2c1.7,2.2,0,13.8-1.3,18.5c-1.3,4.7-6,25.7-9,29.8
		s-25.2,16.7-34.5,2.7c-9.3-14-15.5-27.7-15.7-32.2c-0.2-4.5,0-22,0-22s-0.8-7.2,3.3-9.8c4.2-2.7,4.8-9.3,4.8-9.3l2.2,0.5V179
		C212.4,179,210.4,177.6,210.8,176.6z"/>
	<path class="st0" d="M236.4,184.5l-9.8,4l-6.8,9c0,0,0.2,5.7,6,4.2c5.8-1.5,8-6.8,8-6.8l6.8-0.7l-7,4.5l-3.4,7.2v11.7
		c0,0,8.1,1.3,9.1-9.5c2.8-2.8,6.8-4.8,6.8-4.8s-0.3,3.5,1,5.2c-2.7,1.7-4.8,2.5-6,6.5c6.8-0.2,6,0.7,6,0.7l-7.3,0.5
		c0,0-9.2,8.7-9.2,11.7c-3.2-7.8-9.3-12.2-12.2-14.3c0.7-6.2-5-13.8-5-13.8s4.5-4.2,3.5-11.2s-4.5-6.8-4.5-6.8V179
		c0,0,2.3,4,7.2,0.8c2,1.5-4,1.5,0.8,6C225.2,190.3,236.4,184.5,236.4,184.5z"/>
</g>
<g>
	
		<ellipse transform="matrix(0.9941 -0.1081 0.1081 0.9941 -38.2694 19.2386)" class="st1" cx="158.3" cy="362.5" rx="16.8" ry="16"/>
	<ellipse transform="matrix(0.9941 -0.1081 0.1081 0.9941 -39.3369 7.3714)" class="st1" cx="48.3" cy="366.4" rx="25.2" ry="24"/>
	<path class="st1" d="M45.7,342.6c24.9-4.4,110.8,4,110.8,4l3.5,31.8c0,0-83.7,12.5-109.1,11.9S20.9,347,45.7,342.6z"/>
</g>
</svg>
