<!-- Generator: Adobe Illustrator 19.1.0, SVG Export Plug-In  -->
<svg version="1.1"
	 xmlns="http://www.w3.org/2000/svg" xmlns:xlink="http://www.w3.org/1999/xlink" xmlns:a="http://ns.adobe.com/AdobeSVGViewerExtensions/3.0/"
	 x="0px" y="0px" width="1312.8px" height="750.6px" viewBox="0 0 1312.8 750.6" style="enable-background:new 0 0 1312.8 750.6;"
	 xml:space="preserve">
<style type="text/css">
	.st0{clip-path:url(#XMLID_141_);}
	.st1{fill:#FFD784;}
	.st2{fill:#E5DDD8;}
	.st3{fill:#E4EAE7;}
	.st4{fill:#D1E9F2;}
	.st5{fill:#AECF91;}
	.st6{opacity:0.2;fill:#7D96B9;}
	.st7{fill:#F7ECE4;}
	.st8{fill:#B7A498;}
	.st9{fill:#AAB3C1;}
	.st10{fill:#F2F1F0;}
	.st11{fill:#939CAA;}
	.st12{fill:#91C1BC;}
	.st13{fill:#ED993E;}
	.st14{fill:#F9BE58;}
	.st15{fill:#C5A16A;}
	.st16{fill:#BEDCD2;}
	.st17{fill:#FFD782;}
	.st18{fill:#F7B06B;}
	.st19{fill:#ACCCC1;}
	.st20{fill:#EDC174;}
	.st21{fill:#E89C5D;}
	.st22{fill:#EADDC0;}
	.st23{clip-path:url(#XMLID_142_);}
	.st24{fill:#FFFFFF;}
	.st25{fill:#A9AAA9;}
	.st26{fill:#8CACD3;}
	.st27{fill:#516C95;}
	.st28{fill:#E2BC8A;}
	.st29{fill:#7DAFA9;}
	.st30{fill:#97A09C;}
	.st31{fill:#7C7C7C;}
	.st32{fill:#C0E3EF;}
	.st33{fill:#B28D5B;}
	.st34{clip-path:url(#XMLID_143_);}
	.st35{clip-path:url(#XMLID_144_);}
</style>
<defs>
</defs>
<g id="XMLID_40_">
	<defs>
		<rect id="XMLID_41_" x="74.2" y="102.7" width="1025" height="577"/>
	</defs>
	<clipPath id="XMLID_141_">
		<use xlink:href="#XMLID_41_"  style="overflow:visible;"/>
	</clipPath>
	<g id="XMLID_77_" class="st0">
		<g id="XMLID_124_">
			<g id="XMLID_129_">
				<polygon id="XMLID_140_" class="st1" points="528.9,117.6 984.3,117.6 984.3,593.4 524.2,593.4 				"/>
				<rect id="XMLID_139_" x="582.2" y="257.7" class="st2" width="378" height="195"/>
				<g id="XMLID_130_">
					<rect id="XMLID_138_" x="590.2" y="267.7" class="st3" width="83" height="83"/>
					<rect id="XMLID_137_" x="682.2" y="267.7" class="st3" width="83" height="83"/>
					<rect id="XMLID_136_" x="775.2" y="267.7" class="st3" width="83" height="83"/>
					<rect id="XMLID_135_" x="868.2" y="267.7" class="st3" width="83" height="83"/>
					<rect id="XMLID_134_" x="590.2" y="360.7" class="st3" width="83" height="83"/>
					<rect id="XMLID_133_" x="682.2" y="360.7" class="st3" width="83" height="83"/>
					<rect id="XMLID_132_" x="775.2" y="360.7" class="st3" width="83" height="83"/>
					<rect id="XMLID_131_" x="868.2" y="360.7" class="st3" width="83" height="83"/>
				</g>
			</g>
			<rect id="XMLID_128_" x="982.1" y="110.7" class="st4" width="103.1" height="481"/>
			<path id="XMLID_127_" class="st5" d="M834.5,363.7v191.4l242.6,25.4c0,0,26.8-53.5-7.7-63.5c6.3-20,16.3-52.6-35.4-59.9
				c-1.8-28.1-21.8-15.4-21.8-15.4s2.7-39.9-28.1-39.9s-34.5,12.7-34.5,12.7s1.8-29-26.3-30.8c-28.1-1.8-26.3,2.7-26.3,2.7
				s10-17.2-9.1-24.5c2.7-20-37.2-52.6-54.4-32.7C833.6,352.9,834.5,363.7,834.5,363.7z"/>
			<path id="XMLID_126_" class="st5" d="M836.2,337.7c0,0-9-33-33-23s-22,28-22,28s-11-27-37-17s-22,35-22,35l127,35L836.2,337.7z"
				/>
			<polyline id="XMLID_125_" class="st6" points="531.2,242.9 1080.2,102.9 1080.2,583.9 522.2,505.9 531.2,242.9 			"/>
		</g>
		<rect id="XMLID_123_" x="58.2" y="254.7" class="st3" width="417" height="272"/>
		<g id="XMLID_106_">
			<polygon id="XMLID_122_" class="st7" points="529.2,370.7 1091,342.1 1092.2,364 528.3,383.8 			"/>
			<polygon id="XMLID_121_" class="st8" points="540.4,244.7 1044.2,95.7 48.2,93.7 50.2,292.7 479.2,292.7 479.2,260.7 			"/>
			<polygon id="XMLID_120_" class="st9" points="1105.2,591.7 518.2,519.7 518.2,457.7 16.2,457.7 59.2,684.7 1110.2,684.7 			"/>
			<polygon id="XMLID_119_" class="st7" points="540.4,244.7 1044.2,95.7 1105.2,96.7 1107.2,109.7 536.2,255.7 			"/>
			<polygon id="XMLID_118_" class="st7" points="533.2,507.7 1105.2,576.7 1105.2,591.7 527.2,522.7 			"/>
			<polygon id="XMLID_117_" class="st2" points="505.3,238 469.1,250.1 469.1,522.6 512.6,529.2 512.6,235 			"/>
			<polygon id="XMLID_116_" class="st10" points="512.6,235 540.4,244.7 540.4,521.3 512.6,529.2 			"/>
			<polygon id="XMLID_115_" class="st7" points="635.2,225.7 635.2,528.7 645.2,530.7 645.2,218.7 			"/>
			<polygon id="XMLID_114_" class="st7" points="745.2,198.7 745.2,536.7 759.2,540.7 759.2,190.7 			"/>
			<polygon id="XMLID_113_" class="st7" points="1078.2,111.7 1078.2,582.7 1101.2,582.7 1101.2,105.7 			"/>
			<polygon id="XMLID_112_" class="st11" points="10.2,472.7 53.2,484.7 163.2,471.7 0,464.5 			"/>
			<polygon id="XMLID_111_" class="st11" points="169.2,502.7 146.2,505.7 133.2,506.7 242.2,534.7 299.2,525.7 302.2,514.7 			"/>
			<path id="XMLID_110_" class="st11" d="M301.2,529.7c0,0-42,8-37,8s129,30,129,30l74-8l3-11L301.2,529.7z"/>
			<polygon id="XMLID_109_" class="st11" points="479.2,565.7 437.2,572.7 428.2,573.7 883.2,695.7 1107.2,689.7 1239.2,610.7 
				908.2,563.7 			"/>
			<polygon id="XMLID_108_" class="st2" points="900.2,107.7 840.2,127.7 840.2,578.7 912.2,589.7 912.2,102.7 			"/>
			<polygon id="XMLID_107_" class="st10" points="912.2,102.7 958.2,118.7 958.2,576.7 912.2,589.7 			"/>
		</g>
		<path id="XMLID_105_" class="st2" d="M39.9,293c3,0.2,265.1-57.4,265.1-57.4l2.1,241.1L86.7,466.3L46,463.4L39.9,293z"/>
		<polygon id="XMLID_104_" class="st10" points="305.1,235.6 324.4,243 324.4,480 304.1,478.5 		"/>
		<path id="XMLID_103_" class="st12" d="M53,374.1l102.1,5.5l0,88.8L51.3,478C51.3,478,53,373.7,53,374.1z"/>
		<path id="XMLID_102_" class="st13" d="M238.1,366.3l157,8.4v136.7l-159.8,14.7C235.3,526.1,238.1,365.6,238.1,366.3z"/>
		<path id="XMLID_101_" class="st14" d="M393.8,358.5l197.1,10.6v171.5L390.4,559C390.4,559,393.8,357.8,393.8,358.5z"/>
		<path id="XMLID_100_" class="st12" d="M588.7,341.8l252.9,13.6v220.1l-257.4,23.7C584.3,599.1,588.7,340.8,588.7,341.8z"/>
		<polygon id="XMLID_99_" class="st15" points="461.3,352.4 568.1,601.5 588.4,598.6 588.4,340.6 567.1,340.6 		"/>
		<polygon id="XMLID_98_" class="st15" points="466.2,577.1 461.3,574.5 461.3,352.4 588.1,345.6 588,354.5 		"/>
		<polygon id="XMLID_97_" class="st15" points="298.2,537.7 294.3,535.6 295.4,364.9 401.5,356.3 400.3,368.2 		"/>
		<polygon id="XMLID_96_" class="st15" points="164.2,509.9 161,508.2 162,372.2 246.4,365.4 245.6,374.9 		"/>
		<polygon id="XMLID_95_" class="st12" points="2.1,465.6 0,464.5 0.6,377.9 55.5,373.2 55.9,375.5 		"/>
		<polygon id="XMLID_94_" class="st16" points="584.7,342.4 568.1,342.4 463,354.2 463,576.1 570.4,601.5 587.4,597.2 588.6,342.8 
					"/>
		<polygon id="XMLID_93_" class="st17" points="388.9,358.9 388.9,558.3 297.1,538.6 297.1,366.3 		"/>
		<polygon id="XMLID_92_" class="st18" points="238,368 165.4,373.9 165.4,512.4 236,527 		"/>
		<polygon id="XMLID_91_" class="st12" points="49.1,375.5 49.1,477.5 2.1,465.6 2.1,379.2 		"/>
		<polygon id="XMLID_90_" class="st15" points="388.9,358.9 401.5,358.9 401.5,557.1 388.9,558.3 		"/>
		<polygon id="XMLID_89_" class="st15" points="238,368 236,527 246.4,527 246.4,368.4 		"/>
		<rect id="XMLID_88_" x="49.1" y="375.5" class="st12" width="6.8" height="102.1"/>
		<polygon id="XMLID_87_" class="st15" points="567.1,341.8 568.1,602.7 588.4,599.7 588.7,341.8 		"/>
		<polygon id="XMLID_86_" class="st19" points="508.6,348.9 508.6,587.3 515.7,589.1 515.7,347.7 		"/>
		<polygon id="XMLID_85_" class="st20" points="337,362.5 342.3,361.9 342.3,548.3 336.4,546.5 		"/>
		<polygon id="XMLID_84_" class="st21" points="198.5,371.1 202.6,370.6 202.6,519.5 198,518.1 		"/>
		<polygon id="XMLID_83_" class="st22" points="357,165.5 277.4,187 356.5,188.1 445,168 		"/>
		<polygon id="XMLID_82_" class="st22" points="569.2,100.9 461,130.3 594.4,134.9 728.1,105.5 		"/>
		<polygon id="XMLID_81_" class="st22" points="94.2,238.2 56.8,248.3 94,248.8 135.6,239.4 		"/>
		<polygon id="XMLID_80_" class="st22" points="193.1,212 151.1,223.4 202.9,225.2 254.8,213.7 		"/>
		<polygon id="XMLID_79_" class="st22" points="94.2,152.4 30.2,173.7 123.5,174.7 196.1,154.8 		"/>
		<polygon id="XMLID_78_" class="st22" points="232.8,97.5 161.3,121 308.4,124.9 399.1,101 		"/>
	</g>
	<g id="XMLID_42_" class="st0">
		<defs>
			<polygon id="XMLID_43_" points="1312.8,750.6 924.6,669.6 921.9,111.6 1312.8,0 			"/>
		</defs>
		<clipPath id="XMLID_142_">
			<use xlink:href="#XMLID_43_"  style="overflow:visible;"/>
		</clipPath>
		<g id="XMLID_44_" class="st23">
			<polygon id="XMLID_76_" class="st9" points="1141.6,605.6 1135.4,604.9 1134.2,51 1140.4,49.2 			"/>
			<polygon id="XMLID_75_" class="st9" points="942.5,580.2 938,579.7 935.8,107.6 940.3,106.3 			"/>
			<g id="XMLID_55_">
				<path id="XMLID_74_" class="st24" d="M1236.7,41.9L785.3,164.4c-1.9,0.5-2.2-0.6-0.8-2.4l1.8-2.3c1.4-1.8,4.1-3.7,6-4.3
					l459.3-127.9c4-1.1,4.8,0.4,1.7,3.3l-3.8,3.7C1246.4,37.6,1240.7,40.8,1236.7,41.9z"/>
				<path id="XMLID_73_" class="st24" d="M1236.7,63.5L785.4,179.2c-1.9,0.5-2.2-0.6-0.8-2.4l1.8-2.2c1.4-1.8,4.1-3.7,6-4.2
					l459.2-121c4-1.1,4.8,0.5,1.7,3.4l-3.8,3.6C1246.4,59.3,1240.7,62.4,1236.7,63.5z"/>
				<path id="XMLID_72_" class="st24" d="M1236.8,85L785.5,194c-1.9,0.4-2.2-0.6-0.8-2.4l1.8-2.2c1.4-1.8,4.1-3.6,6-4.1l459.1-114.1
					c4-1,4.8,0.5,1.7,3.4l-3.8,3.5C1246.4,80.9,1240.7,84,1236.8,85z"/>
				<path id="XMLID_71_" class="st24" d="M1236.8,106.5L785.6,208.8c-1.9,0.4-2.2-0.7-0.8-2.4l1.8-2.2c1.4-1.8,4.1-3.5,6-4
					L1251.6,93c4-0.9,4.8,0.6,1.7,3.4l-3.8,3.5C1246.5,102.6,1240.7,105.6,1236.8,106.5z"/>
				<path id="XMLID_70_" class="st24" d="M1236.8,128l-451.1,95.5c-1.9,0.4-2.2-0.7-0.8-2.4l1.8-2.1c1.4-1.7,4.1-3.5,6-3.9
					l459-100.4c4-0.9,4.8,0.7,1.7,3.4l-3.8,3.4C1246.5,124.3,1240.7,127.2,1236.8,128z"/>
				<path id="XMLID_69_" class="st24" d="M1236.8,149.5l-451,88.8c-1.9,0.4-2.2-0.7-0.8-2.4l1.8-2.1c1.4-1.7,4.1-3.4,6-3.8
					l458.9-93.5c4-0.8,4.8,0.7,1.7,3.4l-3.8,3.4C1246.5,145.9,1240.8,148.8,1236.8,149.5z"/>
				<path id="XMLID_68_" class="st24" d="M1236.8,171l-450.9,82c-1.9,0.3-2.2-0.8-0.8-2.4l1.8-2.1c1.4-1.7,4.1-3.4,6-3.7l458.8-86.7
					c4-0.8,4.8,0.8,1.7,3.5l-3.8,3.3C1246.5,167.6,1240.8,170.3,1236.8,171z"/>
				<path id="XMLID_67_" class="st24" d="M1236.9,192.5L786,267.8c-1.9,0.3-2.2-0.8-0.8-2.4l1.8-2.1c1.4-1.7,4.1-3.3,6-3.6
					l458.7-79.8c4-0.7,4.8,0.9,1.7,3.5l-3.8,3.2C1246.5,189.2,1240.8,191.9,1236.9,192.5z"/>
				<path id="XMLID_66_" class="st24" d="M1236.9,214l-450.8,68.6c-1.9,0.3-2.2-0.8-0.8-2.5l1.8-2c1.4-1.6,4.1-3.2,6-3.5l458.7-73
					c4-0.6,4.8,0.9,1.7,3.5l-3.8,3.2C1246.5,210.8,1240.8,213.4,1236.9,214z"/>
				<path id="XMLID_65_" class="st24" d="M1236.9,235.4l-450.7,61.9c-1.9,0.3-2.2-0.9-0.8-2.5l1.8-2c1.4-1.6,4.1-3.2,6-3.4
					l458.6-66.1c4-0.6,4.8,1,1.7,3.5l-3.8,3.1C1246.6,232.4,1240.8,234.9,1236.9,235.4z"/>
				<path id="XMLID_64_" class="st24" d="M1236.9,256.9L786.3,312c-1.9,0.2-2.2-0.9-0.8-2.5l1.8-2c1.4-1.6,4.1-3.1,6-3.4l458.5-59.3
					c4-0.5,4.8,1.1,1.7,3.6l-3.8,3.1C1246.6,254,1240.9,256.4,1236.9,256.9z"/>
				<path id="XMLID_63_" class="st24" d="M1236.9,278.3l-450.5,48.5c-1.9,0.2-2.2-0.9-0.8-2.5l1.8-2c1.4-1.6,4.1-3,6-3.3l458.4-52.5
					c4-0.5,4.8,1.2,1.7,3.6l-3.8,3C1246.6,275.6,1240.9,277.9,1236.9,278.3z"/>
				<path id="XMLID_62_" class="st24" d="M1237,299.7l-450.5,41.8c-1.9,0.2-2.2-0.9-0.8-2.5l1.8-1.9c1.4-1.6,4.1-3,6-3.2l458.3-45.7
					c4-0.4,4.8,1.2,1.7,3.6l-3.8,3C1246.6,297.2,1240.9,299.4,1237,299.7z"/>
				<path id="XMLID_61_" class="st24" d="M1237,321.2l-450.4,35.1c-1.9,0.1-2.2-1-0.8-2.5l1.8-1.9c1.4-1.5,4.1-2.9,6-3.1l458.3-38.9
					c4-0.3,4.8,1.3,1.7,3.6l-3.8,2.9C1246.6,318.7,1240.9,320.9,1237,321.2z"/>
				<path id="XMLID_60_" class="st24" d="M1237,342.6l-450.3,28.4c-1.9,0.1-2.2-1-0.8-2.5l1.8-1.9c1.4-1.5,4.1-2.9,6-3l458.2-32.1
					c4-0.3,4.8,1.4,1.7,3.7l-3.8,2.8C1246.7,340.3,1240.9,342.3,1237,342.6z"/>
				<path id="XMLID_59_" class="st24" d="M1237,364l-450.2,21.7c-1.9,0.1-2.2-1-0.8-2.5l1.8-1.8c1.4-1.5,4.1-2.8,6-2.9l458.1-25.3
					c4-0.2,4.8,1.4,1.7,3.7l-3.8,2.8C1246.7,361.8,1241,363.8,1237,364z"/>
				<path id="XMLID_58_" class="st24" d="M1237,385.3l-450.2,15c-1.9,0.1-2.2-1.1-0.8-2.5l1.8-1.8c1.4-1.5,4.1-2.7,6-2.8l458-18.5
					c4-0.2,4.8,1.5,1.7,3.7l-3.8,2.7C1246.7,383.3,1241,385.2,1237,385.3z"/>
				<path id="XMLID_57_" class="st24" d="M1237.1,406.7L787,415.1c-1.9,0-2.2-1.1-0.8-2.5l1.8-1.8c1.4-1.4,4.1-2.7,6-2.7l458-11.7
					c4-0.1,4.8,1.6,1.7,3.7l-3.8,2.7C1246.7,404.8,1241,406.6,1237.1,406.7z"/>
				<path id="XMLID_56_" class="st24" d="M1237.1,428.1l-450,1.7c-1.9,0-2.2-1.1-0.8-2.6l1.8-1.8c1.4-1.4,4.1-2.6,6-2.6l457.9-4.9
					c4,0,4.8,1.6,1.7,3.8l-3.8,2.6C1246.7,426.3,1241,428,1237.1,428.1z"/>
			</g>
			<g id="XMLID_45_">
				<path id="XMLID_54_" class="st24" d="M1237.1,449.8l-449.9-5.1c-1.9,0-2.2-1.2-0.8-2.6l1.8-1.7c1.4-1.4,4.1-2.5,6-2.5l457.8,2
					c4,0,4.8,1.7,1.7,3.8l-3.8,2.5C1246.7,448.2,1241,449.8,1237.1,449.8z"/>
				<path id="XMLID_53_" class="st24" d="M1237.1,471.1l-449.9-11.7c-1.9,0-2.2-1.2-0.8-2.6l1.8-1.7c1.4-1.4,4.1-2.5,6-2.5
					l457.7,8.7c4,0.1,4.8,1.8,1.7,3.8l-3.8,2.5C1246.8,469.7,1241,471.2,1237.1,471.1z"/>
				<path id="XMLID_52_" class="st24" d="M1237.1,492.4l-449.8-18.3c-1.9-0.1-2.2-1.2-0.8-2.6l1.8-1.7c1.4-1.4,4.1-2.4,6-2.4
					l457.6,15.5c4,0.1,4.8,1.9,1.7,3.8l-3.8,2.4C1246.8,491.1,1241.1,492.6,1237.1,492.4z"/>
				<path id="XMLID_51_" class="st24" d="M1237.2,513.7l-449.7-25c-1.9-0.1-2.2-1.3-0.8-2.6l1.8-1.7c1.4-1.3,4.1-2.4,6-2.3
					l457.6,22.3c4,0.2,4.8,1.9,1.7,3.8l-3.8,2.4C1246.8,512.6,1241.1,513.9,1237.2,513.7z"/>
				<path id="XMLID_50_" class="st24" d="M1237.2,535l-449.6-31.6c-1.9-0.1-2.2-1.3-0.8-2.6l1.8-1.6c1.4-1.3,4.1-2.3,6-2.2l457.5,29
					c4,0.3,4.8,2,1.7,3.9l-3.8,2.3C1246.8,534,1241.1,535.3,1237.2,535z"/>
				<path id="XMLID_49_" class="st24" d="M1237.2,556.3l-449.6-38.2c-1.9-0.2-2.2-1.3-0.8-2.6l1.8-1.6c1.4-1.3,4.1-2.2,6-2.1
					l457.4,35.7c4,0.3,4.8,2.1,1.7,3.9l-3.8,2.3C1246.8,555.5,1241.1,556.7,1237.2,556.3z"/>
				<path id="XMLID_48_" class="st24" d="M1237.2,577.6l-449.5-44.9c-1.9-0.2-2.2-1.4-0.8-2.6l1.8-1.6c1.4-1.3,4.1-2.2,6-2L1252,569
					c4,0.4,4.8,2.1,1.7,3.9l-3.8,2.2C1246.8,576.9,1241.1,578,1237.2,577.6z"/>
				<path id="XMLID_47_" class="st24" d="M1237.2,598.9l-449.4-51.5c-1.9-0.2-2.2-1.4-0.8-2.6l1.8-1.6c1.4-1.3,4.1-2.1,6-1.9
					l457.2,49.2c4,0.4,4.8,2.2,1.7,3.9l-3.8,2.1C1246.9,598.3,1241.2,599.3,1237.2,598.9z"/>
				<path id="XMLID_46_" class="st24" d="M1237.3,620.1l-449.3-58.1c-1.9-0.2-2.2-1.4-0.8-2.7l1.8-1.5c1.4-1.2,4.1-2.1,6-1.8
					L1252,612c4,0.5,4.8,2.3,1.7,4l-3.8,2.1C1246.9,619.7,1241.2,620.6,1237.3,620.1z"/>
			</g>
		</g>
	</g>
</g>
<polygon id="XMLID_39_" class="st13" points="600.7,417.7 600.7,477.2 610.2,477.2 610.2,418.2 "/>
<polygon id="XMLID_38_" class="st17" points="618.7,422.7 610.2,422.7 610.2,477.2 620.2,477.2 "/>
<g id="XMLID_33_">
	<path id="XMLID_37_" class="st25" d="M687.2,444.2l-4.5,4h-61.5l-1-13.5h8.5c0,0,3.5-1.5,4,2.5s31.5,3,31.5,3s0.5-3.5,5.5-3.5
		s14-1,14-1s3.5-1,3.5,4.5"/>
	<path id="XMLID_36_" class="st25" d="M687.2,455.7l-4.5,4h-61.5l-1-13.5h8.5c0,0,3.5-1.5,4,2.5s31.5,3,31.5,3s0.5-3.5,5.5-3.5
		s14-1,14-1s3.5-1,3.5,4.5"/>
	<path id="XMLID_35_" class="st25" d="M687.2,467.2l-4.5,4h-61.5l-1-13.5h8.5c0,0,3.5-1.5,4,2.5s31.5,3,31.5,3s0.5-3.5,5.5-3.5
		s14-1,14-1s3.5-1,3.5,4.5"/>
	<path id="XMLID_34_" class="st25" d="M687.2,473.7l-4.5,4h-61.5l-1-13.5h8.5c0,0,3.5-1.5,4,2.5s31.5,3,31.5,3s0.5-3.5,5.5-3.5
		s14-1,14-1s3.5-1,3.5,4.5"/>
</g>
<polygon id="XMLID_32_" class="st15" points="1037.7,483.2 1037.7,489.7 792.2,501.2 792.2,490.7 "/>
<polygon id="XMLID_31_" class="st26" points="587.5,476.7 600.7,477.2 600.2,422 588.8,421.4 "/>
<polygon id="XMLID_30_" class="st16" points="589.8,473.7 767.8,474.7 767.8,584.2 588.8,599.2 "/>
<g id="XMLID_26_">
	<polygon id="XMLID_29_" class="st12" points="658.3,503.7 725.3,502.2 726.8,504.7 658.3,507.2 658.3,529.8 757.3,526.1 
		757.3,479.7 658.3,480.3 	"/>
	<polygon id="XMLID_28_" class="st12" points="656.3,529.9 656.3,480.4 597.3,480.7 597.3,532.1 	"/>
	<polygon id="XMLID_27_" class="st12" points="597.3,534.5 597.3,592.7 757.3,579.7 757.3,529.4 	"/>
</g>
<g id="XMLID_8_">
	<path id="XMLID_25_" class="st27" d="M737.7,484.7c0,0-17-34-21.5-52.5c7.5-10,7.5-12,17.5-10s11,1.5,17.5,17s20.5,44.5,20.5,44.5
		L737.7,484.7z"/>
	<polygon id="XMLID_24_" class="st15" points="720.7,484.2 720.7,493.7 792.2,501.2 792.2,490.7 	"/>
	<polygon id="XMLID_23_" class="st28" points="720.7,484.2 958.2,480.7 1037.7,483.2 792.2,490.7 	"/>
	<polygon id="XMLID_22_" class="st16" points="720.7,493.7 721.2,641.7 792.7,660.7 792.7,501.2 	"/>
	<polygon id="XMLID_21_" class="st7" points="1018.7,490.7 1018.7,617.7 796.2,650.2 797.2,501.2 	"/>
	<polygon id="XMLID_20_" class="st12" points="1033.7,489.7 1033.2,623.2 1012.2,617.7 1012.2,490.7 	"/>
	<polygon id="XMLID_19_" class="st29" points="1037.7,490.2 1037.7,622.2 1033.2,623.2 1033.7,489.7 	"/>
	<path id="XMLID_18_" class="st18" d="M775.7,465.7l0.5,19c0,0,9.5,3.5,16,0.5c0-7.5,1.5-19,1.5-19S778.7,464.7,775.7,465.7z"/>
	<polygon id="XMLID_17_" class="st30" points="802.7,486.2 802.7,482.2 814.2,473.7 852.2,473.2 854.2,478.7 851.7,484.2 	"/>
	<polygon id="XMLID_16_" class="st31" points="876.7,396.7 877.2,448.2 922.7,448.7 921.2,392.2 	"/>
	<polygon id="XMLID_15_" class="st32" points="880.2,400.7 917.2,397.7 917.2,445.2 879.7,445.2 	"/>
	<polygon id="XMLID_14_" class="st30" points="921.2,392.2 934.2,387.7 938.7,387.7 940.2,454.7 934.7,455.2 922.7,448.7 	"/>
	<path id="XMLID_13_" class="st30" d="M910.7,448.2l-0.5,25l-9,1.5c0,0-5.5,7-3.5,7s68.5,0,68.5,0l-2.5-6l-13-1l-0.5-36h-7.5v36
		l-26.5-1.5v-25.5L910.7,448.2z"/>
	<path id="XMLID_12_" class="st30" d="M938.2,413.2h7c0,0,4-0.5,4,4.5s0,5,0,5l-10.5,1L938.2,413.2z"/>
	<polygon id="XMLID_11_" class="st30" points="944.2,421.2 944.2,442.2 948.2,442.2 948.2,420.7 	"/>
	<polygon id="XMLID_10_" class="st12" points="797.2,501.2 792.7,501.2 792.7,660.7 798.2,659.7 	"/>
	<polygon id="XMLID_9_" class="st32" points="924.2,396 924.8,444.7 934.8,450.7 932.2,392.7 	"/>
</g>
<g id="XMLID_1_">
	<path id="XMLID_7_" class="st33" d="M981.1,529.5l-14.6,113.9c0,0,1.3,3.2,5.4,0c1.9-12,9.8-72.1,9.8-72.1s23.4,4.1,34.5,26.9
		s19.3,48.4,20.3,60.4c4.1,2.8,5.7,0.9,6.6-0.3c-0.9-7.9-15.8-86.7-60.4-93c2.5-19.6,4.7-35.1,4.7-35.1L981.1,529.5z"/>
	<path id="XMLID_6_" class="st18" d="M888.1,568.7c0,0,3.2-13,19.9-14.6s49.7-2.2,59.5-1.9c9.8,0.3,24.7,1.6,32.6,8.5
		c7.9,7,13.9,17.7-3.5,24.4c-17.4,6.6-38.6,3.5-47.5,1.9c-8.9-1.6-22.8-4.1-34.8-3.2C904.9,577.9,897.6,572.5,888.1,568.7z"/>
	<path id="XMLID_5_" class="st18" d="M950.7,486.8l-2.2,26.9c0,0-2.5,10.8,10.8,15.5c0,0,24.3,8.9,53.2,2.5
		c11.4-2.5,14.6-5.1,16.1-14.6c1.6-9.5,4.7-32,4.7-32s2.2-7.3-7-7.6c-9.2-0.3-57.3,0.3-63.6,0.6
		C956.4,478.6,952.3,481.7,950.7,486.8z"/>
	<path id="XMLID_4_" class="st13" d="M892.2,566.2c0,0,46.8,6.6,71.9,7.5c25.2,0.9,40.3-3.8,42-5.2c3.1,4,6.4,12.8-12.3,18.5
		s-74.5,0-74.5,0L892.2,566.2z"/>
	<path id="XMLID_3_" class="st13" d="M949.2,503.2c0,0,2.8-16.8,13-17.1s49-1.3,56-1.6c7-0.3,14.2-1.6,13.9,6.3
		c-0.3,7.9-4.1,30.4-4.1,30.4s0,6.6-13,10.1c-13,3.5-31,6-51.6,0.3C942.8,526,947.6,510.8,949.2,503.2z"/>
	<path id="XMLID_2_" class="st15" d="M878.9,653.5c0,0,2.8,3.2,6,0.3c0.3-12,6.6-80.1,6.6-80.1s49,21.8,57.9,96.8
		c1.9,4.1,5.1,3.5,6.3,0.9c-1.3-10.1-6.6-76.3-63.6-105.4c1.9-22.5,4.1-39.9,4.1-39.9s0.9-12,17.7-10.8c16.8,1.3,60.8,6.6,85.1,4.4
		c24.4-2.2,29.1-4.1,31-5.4s2.8-6.3-0.9-6c-3.8,0.3-5.4,1.3-16.8,2.5c-11.4,1.3-39.9,3.5-77.2,0.6c-20.9-1.6-28.5-2.5-28.5-2.5
		s-13.9-0.9-16.1,13.9c-2.2,14.9-12.7,128.5-12.7,128.5L878.9,653.5z"/>
</g>
</svg>
