<!-- Generator: Adobe Illustrator 19.1.0, SVG Export Plug-In  -->
<svg version="1.1"
	 xmlns="http://www.w3.org/2000/svg" xmlns:xlink="http://www.w3.org/1999/xlink" xmlns:a="http://ns.adobe.com/AdobeSVGViewerExtensions/3.0/"
	 x="0px" y="0px" width="509px" height="597.8px" viewBox="0 0 509 597.8" style="enable-background:new 0 0 509 597.8;"
	 xml:space="preserve">
<style type="text/css">
	.st0{fill:#47A096;}
	.st1{fill:#BEDCD2;}
</style>
<defs>
</defs>
<g>
	<path class="st0" d="M259.3,535.1c-71.6-0.1-131.2-7.3-189.8-21.8c-16.1-4-32-8.5-47.6-14.1c-12.8-4.6-22-17.7-21.9-31
		c0-11.7,9.6-22.1,21.3-21.7c6.9,0.2,11-2.1,15.2-7.4c15.7-19.5,31.9-38.6,48-57.8c1.9-2.2,1.8-4.9,2.3-7.3
		c9.4-49,18.7-98.1,28-147.1c4.9-25.8,14.9-49.1,32.6-68.8c18.8-21,41.9-34.8,69.2-41.6c2.4-0.6,2.5-1.3,1.8-3.3
		c-2.5-7.1-4.8-14.3-7.2-21.4c-0.9-2.8-1.6-5.6-1.3-8.6c0.9-7.7,6.2-13.1,14-13.3c16.3-0.3,32.6-0.4,48.9,0
		c10.3,0.3,16.2,9.5,13.1,19.8c-2.4,8-5.2,15.8-7.9,23.7c-0.6,1.9-0.3,2.4,1.7,2.9c51.9,14.2,85.4,47,99.3,99.1
		c5.2,19.6,8,39.8,11.9,59.7c6.2,32.2,12.4,64.3,18.3,96.5c1.1,5.9,3.5,10.6,7.3,15c16.2,19.2,32.3,38.6,48.3,58
		c1,1.2,2,1.7,3.6,1.6c2.8-0.1,5.7-0.2,8.4,0.1c14.4,1.9,23,15.1,18.8,29.2c-3.4,11.4-10.3,19.8-21.9,23.8
		c-25.6,9-51.9,15.5-78.5,20.9c-23.7,4.8-47.5,8.4-71.5,10.8C298.6,533.8,273.4,535.3,259.3,535.1z M68.4,424.3
		c11.2,0,21.4,0,31.7,0c1.4,0,2.2-0.6,3.1-1.6c9.2-10.6,18.5-21.3,27.7-31.9c1.1-1.2,1.7-2.6,2-4.2c2.4-13,4.9-26.1,7.4-39.1
		c7-36.7,14-73.5,20.9-110.2c2.3-12.2,4.6-24.3,9.8-35.6c11-23.8,28.2-41.4,52.1-52.3c2.1-1,3.1-2.1,2.9-4.5c-0.2-3.1,0-6.2,0-9.4
		c0-4.1,0-4.2-4.1-3.3c-40.1,9.2-67.7,33-82.7,71.3c-4.8,12.3-6.5,25.3-9,38.1c-9,47-18.1,94-27.1,140.9c-0.4,1.8-1.1,3.3-2.3,4.7
		c-7.8,8.7-15.5,17.5-23.2,26.2C74.8,417,71.9,420.4,68.4,424.3z"/>
	<path class="st0" d="M189.7,557c39.1,3,78,3.1,116.9,0c-5.2,16.9-24.2,38.8-54.1,40.7C224.6,599.5,198.5,582.5,189.7,557z"/>
	<path class="st1" d="M68.4,424.3c3.4-4,6.4-7.3,9.3-10.7c7.7-8.8,15.4-17.5,23.2-26.2c1.3-1.4,2-2.9,2.3-4.7c9-47,18-94,27.1-140.9
		c2.5-12.8,4.2-25.8,9-38.1c15-38.3,42.6-62.1,82.7-71.3c4.1-0.9,4.1-0.9,4.1,3.3c0,3.1-0.2,6.3,0,9.4c0.2,2.4-0.8,3.5-2.9,4.5
		c-23.9,10.9-41.1,28.5-52.1,52.3c-5.2,11.3-7.5,23.5-9.8,35.6c-6.9,36.7-13.9,73.5-20.9,110.2c-2.5,13-5,26.1-7.4,39.1
		c-0.3,1.7-1,3-2,4.2c-9.3,10.6-18.5,21.2-27.7,31.9c-0.8,1-1.7,1.6-3.1,1.6C89.9,424.3,79.6,424.3,68.4,424.3z"/>
	<g id="spIeAl_1_">
		<g id="XMLID_1_">
			<path id="XMLID_4_" class="st0" d="M476.3,47.4c17.7,21.2,28.4,45.6,31.8,73c1.1,8.4,1.1,16.9,0.3,25.4c-0.2,2.1-1,3-3.1,3.1
				c-6.5,0.2-13-0.5-19.3-1.9c-1.9-0.4-2.3-1.3-2.4-3.6c-0.2-6.1-0.1-12.2-0.6-18.2c-1.4-17-6.3-32.9-15.3-47.4
				c-14.8-23.6-35.1-40.2-62-48.2c-6.3-1.9-12.7-3.1-19.1-4.6c-2.9-0.7-3.7-1.1-3.5-4.1c0.4-5.9,0.9-11.8,1.7-17.6
				c0.4-3,1.4-3.4,4.5-3.1C414.6,3,436.9,13,456.9,28.7C464,34.3,470.4,40.5,476.3,47.4z"/>
			<path id="XMLID_3_" class="st0" d="M470.4,144.7c-0.9,0.2-1.5,0.4-2.1,0.5c-6.6,0.2-13.2-0.4-19.6-1.9c-1.8-0.4-2.2-1.3-2.4-3.6
				c-0.5-5.6-0.8-11.2-1.6-16.7c-3-21.2-14.1-37.1-31.7-48.7c-9.4-6.2-19.8-9.9-30.6-12.6c-2.9-0.7-3.1-0.7-2.9-3.6
				c0.4-5.8,1-11.6,1.7-17.3c0.4-3.1,1.4-3.6,4.5-3.2c20.1,2.4,37.3,11.1,52.4,24.4c15.8,13.9,25.7,31.4,30.8,51.7
				c2.3,9.3,3.1,18.7,2.3,28.3C471.1,142.8,470.7,143.7,470.4,144.7z"/>
			<path id="XMLID_2_" class="st0" d="M433.1,141.1c-0.8,0.2-1.5,0.4-2.1,0.5c-6.6,0.2-13.1-0.5-19.5-1.9c-1.4-0.3-1.9-1.1-2-2.5
				c-0.5-6-1.9-11.8-4.3-17.3c-3.1-7.1-8.1-12.4-15-15.9c-4-2.1-8.4-3.6-12.6-5.3c-1.1-0.4-1.7-1-1.8-2.2
				c-0.2-6.6,0.3-13.2,1.8-19.6c0.5-2.1,1.6-2.7,4-2.3c7.1,0.9,13.7,3.3,19.9,6.9c7.4,4.2,13.9,9.4,19.1,16.2
				c7.8,10.3,12.5,21.8,13.4,34.8c0.1,2.1,0,4.2-0.1,6.2C433.9,139.5,433.4,140.3,433.1,141.1z"/>
		</g>
	</g>
</g>
</svg>
